G04 Layer_Color=128*
%FSLAX44Y44*%
%MOMM*%
G71*
G01*
G75*
%ADD13C,0.2540*%
%ADD18C,0.1000*%
%ADD31R,5.2000X1.4000*%
%ADD32R,1.2000X2.5000*%
D13*
X0Y1207700D02*
X1879800D01*
Y0D02*
Y1207700D01*
X0Y0D02*
X1879800D01*
X0D02*
Y1207700D01*
D18*
X1592900Y197500D02*
X1596900D01*
X1594900Y195500D02*
Y199500D01*
D31*
X1078500Y319500D02*
D03*
Y369500D02*
D03*
X1139500Y319500D02*
D03*
Y369500D02*
D03*
X1220000Y319500D02*
D03*
Y369500D02*
D03*
X1280000Y319500D02*
D03*
Y369500D02*
D03*
X1360000Y319500D02*
D03*
Y369500D02*
D03*
X1420000Y319500D02*
D03*
Y369500D02*
D03*
X1500000Y319500D02*
D03*
Y369500D02*
D03*
X1078500Y590300D02*
D03*
Y640300D02*
D03*
X1139500Y590300D02*
D03*
Y640300D02*
D03*
X1220000Y590300D02*
D03*
Y640300D02*
D03*
X1280000Y590300D02*
D03*
Y640300D02*
D03*
X1360000Y590300D02*
D03*
Y640300D02*
D03*
X1500000Y590300D02*
D03*
Y640300D02*
D03*
X1078500Y860600D02*
D03*
Y910600D02*
D03*
X1139500Y860600D02*
D03*
Y910600D02*
D03*
X1220000Y860600D02*
D03*
Y910600D02*
D03*
X1280000Y860600D02*
D03*
Y910600D02*
D03*
X1360000Y860600D02*
D03*
Y910600D02*
D03*
X1420000Y860600D02*
D03*
Y910600D02*
D03*
X1500000Y860600D02*
D03*
Y910600D02*
D03*
X1078500Y1129000D02*
D03*
Y1179000D02*
D03*
X1139500Y1129000D02*
D03*
Y1179000D02*
D03*
X1220000Y1129000D02*
D03*
Y1179000D02*
D03*
X1283500Y1129000D02*
D03*
Y1179000D02*
D03*
X1360000Y1129000D02*
D03*
Y1179000D02*
D03*
X1426100Y1129000D02*
D03*
Y1179000D02*
D03*
X1500000Y1129000D02*
D03*
Y1179000D02*
D03*
X1420000Y590300D02*
D03*
Y640300D02*
D03*
X693300Y568200D02*
D03*
Y618200D02*
D03*
X691600Y167500D02*
D03*
Y217500D02*
D03*
X692300Y968400D02*
D03*
Y1018400D02*
D03*
D32*
X320900Y806700D02*
D03*
X293900D02*
D03*
M02*
