G04 Layer_Color=16711935*
%FSLAX44Y44*%
%MOMM*%
G71*
G01*
G75*
%ADD13C,0.2540*%
%ADD18C,0.1000*%
%ADD39C,1.7272*%
%ADD40C,1.6032*%
%ADD41R,1.7032X1.7032*%
%ADD42C,1.7032*%
G04:AMPARAMS|DCode=43|XSize=5.0032mm|YSize=2.6032mm|CornerRadius=0.7016mm|HoleSize=0mm|Usage=FLASHONLY|Rotation=270.000|XOffset=0mm|YOffset=0mm|HoleType=Round|Shape=RoundedRectangle|*
%AMROUNDEDRECTD43*
21,1,5.0032,1.2000,0,0,270.0*
21,1,3.6000,2.6032,0,0,270.0*
1,1,1.4032,-0.6000,-1.8000*
1,1,1.4032,-0.6000,1.8000*
1,1,1.4032,0.6000,1.8000*
1,1,1.4032,0.6000,-1.8000*
%
%ADD43ROUNDEDRECTD43*%
%ADD44R,1.7032X1.7032*%
%ADD45O,9.2032X6.2032*%
%ADD46C,5.2032*%
%ADD47C,2.5032*%
%ADD48R,2.5032X2.5032*%
%ADD49R,5.4032X1.6032*%
%ADD50R,1.4032X2.7032*%
D13*
X0Y1207700D02*
X1879800D01*
Y0D02*
Y1207700D01*
X0Y0D02*
X1879800D01*
X0D02*
Y1207700D01*
D18*
X1592900Y197500D02*
X1596900D01*
X1594900Y195500D02*
Y199500D01*
D39*
X388300Y1004090D02*
D03*
X388300Y207800D02*
D03*
X1839100Y400000D02*
D03*
Y1180000D02*
D03*
X158400Y40000D02*
D03*
Y400000D02*
D03*
Y800000D02*
D03*
X1839100D02*
D03*
Y40000D02*
D03*
X158400Y1180000D02*
D03*
X235100Y811900D02*
D03*
D40*
X1750200Y100900D02*
D03*
Y231300D02*
D03*
X1714900Y101400D02*
D03*
X1714800Y232000D02*
D03*
X1582800Y126300D02*
D03*
X1691800D02*
D03*
X1582600Y152800D02*
D03*
X1691600D02*
D03*
X661000Y150300D02*
D03*
Y41300D02*
D03*
X724600Y150300D02*
D03*
Y41300D02*
D03*
Y374200D02*
D03*
Y265200D02*
D03*
X661000Y374200D02*
D03*
Y265200D02*
D03*
X725000Y547400D02*
D03*
Y438400D02*
D03*
X661400Y547400D02*
D03*
Y438400D02*
D03*
X725000Y772400D02*
D03*
Y663400D02*
D03*
X661400Y772400D02*
D03*
Y663400D02*
D03*
X725300Y945500D02*
D03*
Y836500D02*
D03*
X661700Y945500D02*
D03*
Y836500D02*
D03*
X725300Y1170600D02*
D03*
Y1061600D02*
D03*
X661700Y1170600D02*
D03*
Y1061600D02*
D03*
D41*
X1638500Y290400D02*
D03*
D42*
X1663900D02*
D03*
X1689300D02*
D03*
X347100Y836800D02*
D03*
X1678650Y353750D02*
D03*
X1658485D02*
D03*
X1638480D02*
D03*
X694400Y1130000D02*
D03*
Y1104600D02*
D03*
Y1079200D02*
D03*
Y905100D02*
D03*
Y879700D02*
D03*
Y854300D02*
D03*
Y731600D02*
D03*
Y706200D02*
D03*
Y680800D02*
D03*
Y506900D02*
D03*
Y481500D02*
D03*
Y456100D02*
D03*
Y333500D02*
D03*
Y308100D02*
D03*
Y282700D02*
D03*
Y109700D02*
D03*
Y84300D02*
D03*
Y58900D02*
D03*
X1322250Y370010D02*
D03*
Y145010D02*
D03*
X1462750Y369410D02*
D03*
Y144410D02*
D03*
X1180850Y369410D02*
D03*
Y144410D02*
D03*
X1040350Y370010D02*
D03*
Y145010D02*
D03*
X1322250Y640510D02*
D03*
Y415510D02*
D03*
X1462750Y639910D02*
D03*
Y414910D02*
D03*
X1180850Y639910D02*
D03*
Y414910D02*
D03*
X1040350Y640510D02*
D03*
Y415510D02*
D03*
X1322250Y910410D02*
D03*
Y685410D02*
D03*
X1462750Y909810D02*
D03*
Y684810D02*
D03*
X1180850Y909810D02*
D03*
Y684810D02*
D03*
X1040350Y910410D02*
D03*
Y685410D02*
D03*
X1322250Y1179010D02*
D03*
Y954010D02*
D03*
X1462750Y1178410D02*
D03*
Y953410D02*
D03*
X1180850Y1178410D02*
D03*
Y953410D02*
D03*
X1040350Y1179010D02*
D03*
Y954010D02*
D03*
X234250Y454550D02*
D03*
X214085D02*
D03*
X194080D02*
D03*
X197550Y355650D02*
D03*
X217715D02*
D03*
X237720D02*
D03*
X347100Y426200D02*
D03*
Y400800D02*
D03*
Y375400D02*
D03*
X807500Y617900D02*
D03*
D43*
X316725Y872000D02*
D03*
X94475Y872000D02*
D03*
Y927000D02*
D03*
Y1147000D02*
D03*
Y1092000D02*
D03*
Y1037000D02*
D03*
Y982000D02*
D03*
X316725Y476700D02*
D03*
X94475Y476700D02*
D03*
Y531700D02*
D03*
Y751700D02*
D03*
Y696700D02*
D03*
Y641700D02*
D03*
Y586700D02*
D03*
X316725Y79000D02*
D03*
X94475Y79000D02*
D03*
Y134000D02*
D03*
Y354000D02*
D03*
Y299000D02*
D03*
Y244000D02*
D03*
Y189000D02*
D03*
X1554075Y694100D02*
D03*
X1776325Y694100D02*
D03*
Y639100D02*
D03*
Y419100D02*
D03*
Y474100D02*
D03*
Y529100D02*
D03*
Y584100D02*
D03*
X1553075Y1089600D02*
D03*
X1775325Y1089600D02*
D03*
Y1034600D02*
D03*
Y814600D02*
D03*
Y869600D02*
D03*
Y924600D02*
D03*
Y979600D02*
D03*
D44*
X347100Y811400D02*
D03*
X694400Y1155400D02*
D03*
Y930500D02*
D03*
Y757000D02*
D03*
Y532300D02*
D03*
Y358900D02*
D03*
Y135100D02*
D03*
X347100Y451600D02*
D03*
X807500Y592500D02*
D03*
D45*
X1708650Y567750D02*
D03*
X1608320D02*
D03*
X264250Y668550D02*
D03*
X163920D02*
D03*
X167550Y141650D02*
D03*
X267880D02*
D03*
D46*
X904220Y1002820D02*
D03*
Y604040D02*
D03*
Y206530D02*
D03*
X501950Y1004090D02*
D03*
Y605310D02*
D03*
Y207800D02*
D03*
D47*
X635460Y1170350D02*
D03*
Y1115850D02*
D03*
X750710Y1061350D02*
D03*
Y1115850D02*
D03*
Y836560D02*
D03*
Y891060D02*
D03*
X635460Y375330D02*
D03*
Y320830D02*
D03*
Y150530D02*
D03*
Y96030D02*
D03*
X750710Y663840D02*
D03*
Y718340D02*
D03*
Y439050D02*
D03*
Y493550D02*
D03*
Y266330D02*
D03*
Y320830D02*
D03*
Y41540D02*
D03*
Y96040D02*
D03*
X635460Y945550D02*
D03*
Y891050D02*
D03*
Y772840D02*
D03*
Y718340D02*
D03*
Y548040D02*
D03*
Y493540D02*
D03*
D48*
Y1061350D02*
D03*
X750710Y1170350D02*
D03*
Y945560D02*
D03*
X635460Y266330D02*
D03*
Y41530D02*
D03*
X750710Y772840D02*
D03*
Y548050D02*
D03*
Y375330D02*
D03*
Y150540D02*
D03*
X635460Y836550D02*
D03*
Y663840D02*
D03*
Y439040D02*
D03*
D49*
X1078500Y319500D02*
D03*
Y369500D02*
D03*
X1139500Y319500D02*
D03*
Y369500D02*
D03*
X1220000Y319500D02*
D03*
Y369500D02*
D03*
X1280000Y319500D02*
D03*
Y369500D02*
D03*
X1360000Y319500D02*
D03*
Y369500D02*
D03*
X1420000Y319500D02*
D03*
Y369500D02*
D03*
X1500000Y319500D02*
D03*
Y369500D02*
D03*
X1078500Y590300D02*
D03*
Y640300D02*
D03*
X1139500Y590300D02*
D03*
Y640300D02*
D03*
X1220000Y590300D02*
D03*
Y640300D02*
D03*
X1280000Y590300D02*
D03*
Y640300D02*
D03*
X1360000Y590300D02*
D03*
Y640300D02*
D03*
X1500000Y590300D02*
D03*
Y640300D02*
D03*
X1078500Y860600D02*
D03*
Y910600D02*
D03*
X1139500Y860600D02*
D03*
Y910600D02*
D03*
X1220000Y860600D02*
D03*
Y910600D02*
D03*
X1280000Y860600D02*
D03*
Y910600D02*
D03*
X1360000Y860600D02*
D03*
Y910600D02*
D03*
X1420000Y860600D02*
D03*
Y910600D02*
D03*
X1500000Y860600D02*
D03*
Y910600D02*
D03*
X1078500Y1129000D02*
D03*
Y1179000D02*
D03*
X1139500Y1129000D02*
D03*
Y1179000D02*
D03*
X1220000Y1129000D02*
D03*
Y1179000D02*
D03*
X1283500Y1129000D02*
D03*
Y1179000D02*
D03*
X1360000Y1129000D02*
D03*
Y1179000D02*
D03*
X1426100Y1129000D02*
D03*
Y1179000D02*
D03*
X1500000Y1129000D02*
D03*
Y1179000D02*
D03*
X1420000Y590300D02*
D03*
Y640300D02*
D03*
X693300Y568200D02*
D03*
Y618200D02*
D03*
X691600Y167500D02*
D03*
Y217500D02*
D03*
X692300Y968400D02*
D03*
Y1018400D02*
D03*
D50*
X320900Y806700D02*
D03*
X293900D02*
D03*
M02*
