G04 Layer_Color=65535*
%FSLAX44Y44*%
%MOMM*%
G71*
G01*
G75*
%ADD13C,0.2540*%
%ADD18C,0.1000*%
%ADD33C,0.2000*%
%ADD34C,0.1500*%
%ADD35C,0.5000*%
G36*
X1656469Y1158675D02*
X1656615D01*
X1656702Y1158646D01*
X1656819Y1158617D01*
X1656848D01*
X1656877Y1158588D01*
X1656935Y1158529D01*
X1656965Y1158471D01*
X1656994Y1158413D01*
X1657023Y1158296D01*
Y1158267D01*
Y1158150D01*
Y1158121D01*
X1656994Y1158034D01*
Y1158004D01*
X1656965Y1157888D01*
X1656935Y1157829D01*
X1656906Y1157684D01*
X1652620Y1145728D01*
Y1145699D01*
X1652591Y1145641D01*
X1652474Y1145466D01*
X1652445D01*
X1652416Y1145408D01*
X1652328Y1145378D01*
X1652182Y1145320D01*
X1652153D01*
X1652066Y1145291D01*
X1651920D01*
X1651716Y1145262D01*
X1651541D01*
X1651337Y1145233D01*
X1650550D01*
X1650316Y1145262D01*
X1650287D01*
X1650170Y1145291D01*
X1650025D01*
X1649879Y1145320D01*
X1649850D01*
X1649792Y1145349D01*
X1649587Y1145466D01*
Y1145495D01*
X1649529Y1145553D01*
X1649442Y1145728D01*
X1645184Y1157684D01*
Y1157713D01*
X1645155Y1157800D01*
X1645068Y1157975D01*
Y1158004D01*
Y1158063D01*
X1645038Y1158121D01*
Y1158179D01*
Y1158208D01*
Y1158296D01*
Y1158325D01*
Y1158354D01*
X1645097Y1158471D01*
Y1158500D01*
X1645155Y1158529D01*
X1645272Y1158617D01*
X1645301D01*
X1645359Y1158646D01*
X1645476Y1158675D01*
X1645651D01*
X1645768Y1158704D01*
X1646613D01*
X1646817Y1158675D01*
X1646846D01*
X1646963Y1158646D01*
X1647050Y1158617D01*
X1647167Y1158588D01*
X1647196D01*
X1647255Y1158558D01*
X1647313Y1158500D01*
X1647371Y1158442D01*
X1647400D01*
X1647430Y1158383D01*
X1647517Y1158238D01*
X1651075Y1147857D01*
X1651133Y1147682D01*
X1651162Y1147857D01*
X1654661Y1158238D01*
Y1158267D01*
X1654690Y1158296D01*
X1654749Y1158442D01*
X1654778Y1158471D01*
X1654807Y1158500D01*
X1654953Y1158588D01*
X1654982D01*
X1655069Y1158617D01*
X1655186Y1158646D01*
X1655332Y1158675D01*
X1655361D01*
X1655507Y1158704D01*
X1656294D01*
X1656469Y1158675D01*
D02*
G37*
G36*
X1764650D02*
X1764766D01*
X1764883Y1158646D01*
X1764970Y1158617D01*
X1765000D01*
X1765029Y1158588D01*
X1765087Y1158529D01*
X1765116Y1158471D01*
X1765145Y1158442D01*
X1765174Y1158296D01*
Y1158267D01*
Y1158208D01*
X1765145Y1158034D01*
Y1158004D01*
X1765116Y1157946D01*
X1765087Y1157829D01*
X1765058Y1157684D01*
X1761355Y1145728D01*
Y1145699D01*
X1761325Y1145641D01*
X1761209Y1145466D01*
X1761180D01*
X1761151Y1145408D01*
X1761063Y1145378D01*
X1760946Y1145320D01*
X1760917D01*
X1760830Y1145291D01*
X1760713D01*
X1760509Y1145262D01*
X1760334D01*
X1760101Y1145233D01*
X1759343D01*
X1759080Y1145262D01*
X1759022D01*
X1758905Y1145291D01*
X1758759D01*
X1758614Y1145320D01*
X1758584D01*
X1758526Y1145349D01*
X1758439Y1145408D01*
X1758351Y1145466D01*
Y1145495D01*
X1758322Y1145553D01*
X1758235Y1145728D01*
X1755610Y1154855D01*
X1755581Y1155001D01*
X1755552Y1154855D01*
X1753103Y1145728D01*
Y1145699D01*
X1753073Y1145641D01*
X1752957Y1145466D01*
X1752928D01*
X1752898Y1145408D01*
X1752811Y1145378D01*
X1752665Y1145320D01*
X1752636D01*
X1752549Y1145291D01*
X1752403D01*
X1752199Y1145262D01*
X1752024D01*
X1751790Y1145233D01*
X1751032D01*
X1750799Y1145262D01*
X1750770D01*
X1750653Y1145291D01*
X1750507D01*
X1750361Y1145320D01*
X1750332D01*
X1750274Y1145349D01*
X1750187Y1145408D01*
X1750099Y1145466D01*
Y1145495D01*
X1750041Y1145553D01*
X1749982Y1145728D01*
X1746279Y1157684D01*
Y1157713D01*
X1746250Y1157829D01*
X1746221Y1157917D01*
X1746192Y1158034D01*
Y1158063D01*
Y1158121D01*
X1746163Y1158296D01*
Y1158325D01*
Y1158354D01*
X1746221Y1158471D01*
Y1158500D01*
X1746279Y1158529D01*
X1746396Y1158617D01*
X1746425D01*
X1746483Y1158646D01*
X1746600Y1158675D01*
X1746775D01*
X1746892Y1158704D01*
X1747737D01*
X1747941Y1158675D01*
X1747970D01*
X1748087Y1158646D01*
X1748175Y1158617D01*
X1748291Y1158588D01*
X1748320D01*
X1748379Y1158558D01*
X1748437Y1158529D01*
X1748495Y1158442D01*
X1748524Y1158383D01*
X1748583Y1158238D01*
X1751615Y1147857D01*
X1751645Y1147740D01*
X1751674Y1147857D01*
X1754473Y1158238D01*
Y1158267D01*
X1754502Y1158296D01*
X1754561Y1158442D01*
Y1158471D01*
X1754619Y1158500D01*
X1754648Y1158558D01*
X1754735Y1158588D01*
X1754765D01*
X1754823Y1158617D01*
X1754940Y1158646D01*
X1755085Y1158675D01*
X1755114D01*
X1755231Y1158704D01*
X1756018D01*
X1756193Y1158675D01*
X1756223D01*
X1756339Y1158646D01*
X1756427Y1158617D01*
X1756543Y1158588D01*
X1756573D01*
X1756602Y1158558D01*
X1756718Y1158471D01*
X1756747Y1158413D01*
X1756806Y1158267D01*
X1759809Y1147857D01*
X1759838Y1147740D01*
X1759867Y1147857D01*
X1762871Y1158238D01*
Y1158267D01*
X1762900Y1158296D01*
X1762958Y1158442D01*
Y1158471D01*
X1763017Y1158500D01*
X1763046Y1158558D01*
X1763133Y1158588D01*
X1763162D01*
X1763250Y1158617D01*
X1763367Y1158646D01*
X1763512Y1158675D01*
X1763542D01*
X1763687Y1158704D01*
X1764475D01*
X1764650Y1158675D01*
D02*
G37*
G36*
X1690585Y1163399D02*
X1690643Y1163341D01*
X1690673D01*
X1690702Y1163311D01*
X1690818Y1163166D01*
X1690848Y1163136D01*
X1690877Y1163078D01*
X1690906Y1162991D01*
X1690935Y1162845D01*
Y1162816D01*
X1690964Y1162699D01*
X1690993Y1162553D01*
Y1162378D01*
Y1162349D01*
Y1162291D01*
Y1162203D01*
X1690964Y1162087D01*
X1690935Y1161824D01*
X1690848Y1161591D01*
X1690818Y1161562D01*
X1690760Y1161474D01*
X1690614Y1161358D01*
X1690469Y1161329D01*
X1684024D01*
Y1156226D01*
X1684053D01*
X1684112Y1156255D01*
X1684199D01*
X1684316Y1156284D01*
X1684608Y1156313D01*
X1685162D01*
X1685278Y1156342D01*
X1686357D01*
X1686620Y1156313D01*
X1686999Y1156284D01*
X1687407Y1156255D01*
X1687844Y1156197D01*
X1688282Y1156080D01*
X1688719Y1155963D01*
X1688777Y1155934D01*
X1688894Y1155905D01*
X1689098Y1155817D01*
X1689361Y1155701D01*
X1689652Y1155555D01*
X1689973Y1155351D01*
X1690264Y1155147D01*
X1690556Y1154913D01*
X1690585Y1154884D01*
X1690673Y1154797D01*
X1690818Y1154651D01*
X1690993Y1154447D01*
X1691168Y1154214D01*
X1691343Y1153922D01*
X1691547Y1153601D01*
X1691693Y1153251D01*
X1691722Y1153222D01*
X1691752Y1153076D01*
X1691810Y1152872D01*
X1691897Y1152639D01*
X1691985Y1152318D01*
X1692043Y1151939D01*
X1692072Y1151560D01*
X1692101Y1151123D01*
Y1151094D01*
Y1151065D01*
Y1150890D01*
X1692072Y1150598D01*
X1692043Y1150248D01*
X1691985Y1149840D01*
X1691897Y1149402D01*
X1691781Y1148965D01*
X1691606Y1148528D01*
X1691577Y1148469D01*
X1691518Y1148353D01*
X1691402Y1148149D01*
X1691256Y1147886D01*
X1691052Y1147565D01*
X1690818Y1147274D01*
X1690527Y1146953D01*
X1690206Y1146632D01*
X1690177Y1146603D01*
X1690060Y1146516D01*
X1689856Y1146370D01*
X1689623Y1146195D01*
X1689302Y1145991D01*
X1688952Y1145787D01*
X1688544Y1145612D01*
X1688078Y1145437D01*
X1688019Y1145408D01*
X1687873Y1145378D01*
X1687611Y1145320D01*
X1687290Y1145262D01*
X1686882Y1145174D01*
X1686415Y1145116D01*
X1685891Y1145087D01*
X1685336Y1145058D01*
X1685016D01*
X1684812Y1145087D01*
X1684578D01*
X1684316Y1145116D01*
X1683733Y1145203D01*
X1683704D01*
X1683616Y1145233D01*
X1683470Y1145262D01*
X1683295Y1145291D01*
X1682858Y1145378D01*
X1682392Y1145466D01*
X1682362D01*
X1682304Y1145495D01*
X1682187Y1145524D01*
X1682041Y1145583D01*
X1681750Y1145670D01*
X1681429Y1145787D01*
X1681400D01*
X1681371Y1145816D01*
X1681225Y1145874D01*
X1681050Y1145962D01*
X1680934Y1146049D01*
Y1146078D01*
X1680875Y1146107D01*
X1680788Y1146224D01*
Y1146253D01*
X1680759Y1146282D01*
X1680700Y1146428D01*
Y1146457D01*
Y1146516D01*
X1680671Y1146632D01*
Y1146749D01*
Y1146778D01*
Y1146866D01*
Y1147011D01*
Y1147186D01*
Y1147215D01*
Y1147332D01*
Y1147449D01*
Y1147595D01*
Y1147624D01*
X1680700Y1147711D01*
X1680729Y1147828D01*
X1680759Y1147915D01*
Y1147944D01*
X1680788Y1147974D01*
X1680875Y1148090D01*
X1680904D01*
X1680934Y1148119D01*
X1681050Y1148149D01*
X1681079D01*
X1681167Y1148119D01*
X1681283Y1148090D01*
X1681487Y1147974D01*
X1681546Y1147944D01*
X1681692Y1147857D01*
X1681954Y1147740D01*
X1682275Y1147595D01*
X1682304D01*
X1682362Y1147565D01*
X1682479Y1147536D01*
X1682625Y1147478D01*
X1682800Y1147420D01*
X1683033Y1147361D01*
X1683529Y1147215D01*
X1683558D01*
X1683645Y1147186D01*
X1683820Y1147157D01*
X1684024Y1147128D01*
X1684287Y1147099D01*
X1684578Y1147070D01*
X1684899Y1147040D01*
X1685628D01*
X1685832Y1147070D01*
X1686095Y1147099D01*
X1686386Y1147128D01*
X1686999Y1147245D01*
X1687028D01*
X1687144Y1147303D01*
X1687290Y1147332D01*
X1687465Y1147420D01*
X1687903Y1147653D01*
X1688340Y1147944D01*
X1688369Y1147974D01*
X1688427Y1148032D01*
X1688544Y1148119D01*
X1688661Y1148265D01*
X1688806Y1148440D01*
X1688952Y1148644D01*
X1689098Y1148878D01*
X1689215Y1149140D01*
X1689244Y1149169D01*
X1689273Y1149257D01*
X1689331Y1149432D01*
X1689390Y1149636D01*
X1689448Y1149898D01*
X1689506Y1150190D01*
X1689565Y1150510D01*
Y1150890D01*
Y1150919D01*
Y1151035D01*
Y1151210D01*
X1689536Y1151414D01*
X1689506Y1151648D01*
X1689448Y1151910D01*
X1689273Y1152406D01*
Y1152435D01*
X1689215Y1152523D01*
X1689156Y1152639D01*
X1689069Y1152785D01*
X1688806Y1153164D01*
X1688631Y1153339D01*
X1688427Y1153514D01*
X1688398Y1153543D01*
X1688340Y1153601D01*
X1688194Y1153660D01*
X1688048Y1153776D01*
X1687844Y1153893D01*
X1687582Y1153980D01*
X1687319Y1154097D01*
X1686999Y1154184D01*
X1686969D01*
X1686853Y1154214D01*
X1686649Y1154272D01*
X1686415Y1154301D01*
X1686124Y1154360D01*
X1685745Y1154389D01*
X1685366Y1154418D01*
X1684433D01*
X1683966Y1154389D01*
X1683470Y1154330D01*
X1683354D01*
X1683237Y1154301D01*
X1683091D01*
X1682712Y1154272D01*
X1682304Y1154243D01*
X1682246D01*
X1682100Y1154272D01*
X1681925Y1154330D01*
X1681750Y1154418D01*
X1681721Y1154447D01*
X1681692Y1154564D01*
X1681633Y1154797D01*
X1681604Y1154943D01*
Y1155118D01*
Y1162495D01*
Y1162524D01*
Y1162582D01*
X1681633Y1162757D01*
X1681692Y1162991D01*
X1681808Y1163195D01*
X1681837Y1163224D01*
X1681954Y1163311D01*
X1682158Y1163399D01*
X1682421Y1163428D01*
X1690498D01*
X1690585Y1163399D01*
D02*
G37*
G36*
X1578935Y1158675D02*
X1579080D01*
X1579168Y1158646D01*
X1579285Y1158617D01*
X1579314D01*
X1579343Y1158588D01*
X1579401Y1158529D01*
X1579430Y1158471D01*
X1579460Y1158413D01*
X1579489Y1158296D01*
Y1158267D01*
Y1158150D01*
Y1158121D01*
X1579460Y1158034D01*
Y1158004D01*
X1579430Y1157888D01*
X1579401Y1157829D01*
X1579372Y1157684D01*
X1575086Y1145728D01*
Y1145699D01*
X1575056Y1145641D01*
X1574940Y1145466D01*
X1574911D01*
X1574881Y1145408D01*
X1574794Y1145378D01*
X1574648Y1145320D01*
X1574619D01*
X1574532Y1145291D01*
X1574386D01*
X1574182Y1145262D01*
X1574007D01*
X1573803Y1145233D01*
X1573015D01*
X1572782Y1145262D01*
X1572753D01*
X1572636Y1145291D01*
X1572490D01*
X1572345Y1145320D01*
X1572316D01*
X1572257Y1145349D01*
X1572053Y1145466D01*
Y1145495D01*
X1571995Y1145553D01*
X1571907Y1145728D01*
X1567650Y1157684D01*
Y1157713D01*
X1567621Y1157800D01*
X1567533Y1157975D01*
Y1158004D01*
Y1158063D01*
X1567504Y1158121D01*
Y1158179D01*
Y1158208D01*
Y1158296D01*
Y1158325D01*
Y1158354D01*
X1567563Y1158471D01*
Y1158500D01*
X1567621Y1158529D01*
X1567737Y1158617D01*
X1567767D01*
X1567825Y1158646D01*
X1567942Y1158675D01*
X1568116D01*
X1568233Y1158704D01*
X1569079D01*
X1569283Y1158675D01*
X1569312D01*
X1569429Y1158646D01*
X1569516Y1158617D01*
X1569633Y1158588D01*
X1569662D01*
X1569720Y1158558D01*
X1569779Y1158500D01*
X1569837Y1158442D01*
X1569866D01*
X1569895Y1158383D01*
X1569983Y1158238D01*
X1573540Y1147857D01*
X1573598Y1147682D01*
X1573628Y1147857D01*
X1577127Y1158238D01*
Y1158267D01*
X1577156Y1158296D01*
X1577214Y1158442D01*
X1577243Y1158471D01*
X1577272Y1158500D01*
X1577418Y1158588D01*
X1577448D01*
X1577535Y1158617D01*
X1577652Y1158646D01*
X1577797Y1158675D01*
X1577827D01*
X1577972Y1158704D01*
X1578760D01*
X1578935Y1158675D01*
D02*
G37*
G36*
X1707789Y1153281D02*
X1707818D01*
X1707847Y1153251D01*
X1707877Y1153193D01*
X1707935Y1153106D01*
Y1153076D01*
X1707964Y1153018D01*
X1707993Y1152931D01*
X1708022Y1152814D01*
Y1152785D01*
X1708051Y1152697D01*
X1708081Y1152552D01*
Y1152377D01*
Y1152347D01*
Y1152289D01*
Y1152202D01*
X1708051Y1152085D01*
X1708022Y1151823D01*
X1707993Y1151706D01*
X1707935Y1151618D01*
X1707906Y1151589D01*
X1707847Y1151531D01*
X1707731Y1151444D01*
X1707585Y1151414D01*
X1701695D01*
X1701578Y1151444D01*
X1701462Y1151502D01*
X1701345Y1151618D01*
X1701316Y1151648D01*
X1701287Y1151794D01*
X1701257Y1151881D01*
Y1152027D01*
X1701228Y1152172D01*
Y1152377D01*
Y1152406D01*
Y1152464D01*
Y1152552D01*
X1701257Y1152668D01*
X1701287Y1152902D01*
X1701316Y1153018D01*
X1701345Y1153106D01*
X1701374Y1153135D01*
X1701432Y1153222D01*
X1701549Y1153310D01*
X1701724Y1153339D01*
X1707643D01*
X1707789Y1153281D01*
D02*
G37*
G36*
X1788239Y1158879D02*
X1788268D01*
X1788385Y1158850D01*
X1788531Y1158821D01*
X1788706Y1158792D01*
X1788764D01*
X1788852Y1158763D01*
X1789027Y1158704D01*
X1789172Y1158646D01*
X1789202D01*
X1789289Y1158617D01*
X1789377Y1158588D01*
X1789464Y1158529D01*
X1789493D01*
X1789522Y1158500D01*
X1789581Y1158383D01*
X1789610Y1158354D01*
Y1158238D01*
Y1158208D01*
X1789639Y1158179D01*
Y1158092D01*
Y1157946D01*
Y1157917D01*
X1789668Y1157829D01*
Y1157654D01*
Y1157450D01*
Y1157392D01*
Y1157275D01*
Y1157101D01*
X1789639Y1156926D01*
Y1156896D01*
Y1156809D01*
X1789581Y1156576D01*
Y1156546D01*
X1789552Y1156517D01*
X1789464Y1156401D01*
X1789435Y1156372D01*
X1789318Y1156342D01*
X1789231D01*
X1789143Y1156372D01*
X1789027Y1156401D01*
X1788997D01*
X1788939Y1156430D01*
X1788822Y1156488D01*
X1788677Y1156517D01*
X1788648Y1156546D01*
X1788531Y1156576D01*
X1788385Y1156605D01*
X1788210Y1156663D01*
X1788181D01*
X1788064Y1156692D01*
X1787889Y1156721D01*
X1787598D01*
X1787452Y1156692D01*
X1787219Y1156663D01*
X1786956Y1156576D01*
X1786898Y1156546D01*
X1786752Y1156459D01*
X1786519Y1156313D01*
X1786257Y1156109D01*
X1786227D01*
X1786198Y1156051D01*
X1786023Y1155876D01*
X1785790Y1155613D01*
X1785498Y1155234D01*
X1785469Y1155205D01*
X1785440Y1155147D01*
X1785353Y1155030D01*
X1785236Y1154884D01*
X1785119Y1154680D01*
X1784944Y1154476D01*
X1784624Y1153951D01*
Y1145641D01*
Y1145583D01*
X1784565Y1145466D01*
X1784507Y1145408D01*
X1784449Y1145378D01*
X1784361Y1145320D01*
X1784332D01*
X1784274Y1145291D01*
X1784157D01*
X1784011Y1145262D01*
X1783866D01*
X1783690Y1145233D01*
X1783078D01*
X1782874Y1145262D01*
X1782845D01*
X1782757Y1145291D01*
X1782524Y1145320D01*
X1782495D01*
X1782466Y1145349D01*
X1782349Y1145466D01*
Y1145495D01*
Y1145524D01*
X1782320Y1145641D01*
Y1158267D01*
Y1158296D01*
Y1158325D01*
X1782349Y1158442D01*
Y1158471D01*
X1782378Y1158500D01*
X1782437Y1158529D01*
X1782495Y1158588D01*
X1782524D01*
X1782583Y1158617D01*
X1782699Y1158646D01*
X1782816Y1158675D01*
X1782845D01*
X1782961Y1158704D01*
X1783690D01*
X1783866Y1158675D01*
X1783895D01*
X1783982Y1158646D01*
X1784070Y1158617D01*
X1784157Y1158588D01*
X1784186D01*
X1784215Y1158558D01*
X1784332Y1158442D01*
X1784361Y1158383D01*
X1784390Y1158267D01*
Y1156430D01*
X1784420Y1156459D01*
X1784478Y1156546D01*
X1784594Y1156692D01*
X1784711Y1156867D01*
X1785032Y1157275D01*
X1785353Y1157654D01*
X1785382Y1157684D01*
X1785440Y1157742D01*
X1785527Y1157829D01*
X1785644Y1157917D01*
X1785907Y1158150D01*
X1786227Y1158383D01*
X1786257D01*
X1786286Y1158442D01*
X1786490Y1158558D01*
X1786723Y1158675D01*
X1787015Y1158792D01*
X1787044D01*
X1787073Y1158821D01*
X1787277Y1158850D01*
X1787540Y1158879D01*
X1787831Y1158908D01*
X1788064D01*
X1788239Y1158879D01*
D02*
G37*
G36*
X1560885D02*
X1561177Y1158850D01*
X1561527Y1158792D01*
X1561877Y1158733D01*
X1562226Y1158617D01*
X1562547Y1158471D01*
X1562576Y1158442D01*
X1562693Y1158383D01*
X1562839Y1158296D01*
X1563043Y1158150D01*
X1563276Y1158004D01*
X1563509Y1157800D01*
X1563743Y1157567D01*
X1563947Y1157305D01*
X1563976Y1157275D01*
X1564034Y1157188D01*
X1564122Y1157042D01*
X1564267Y1156838D01*
X1564384Y1156605D01*
X1564501Y1156313D01*
X1564647Y1155992D01*
X1564734Y1155642D01*
Y1155613D01*
X1564763Y1155468D01*
X1564822Y1155263D01*
X1564851Y1155001D01*
X1564909Y1154651D01*
X1564938Y1154272D01*
X1564967Y1153835D01*
Y1153339D01*
Y1145641D01*
Y1145583D01*
X1564909Y1145466D01*
X1564851Y1145408D01*
X1564792Y1145378D01*
X1564705Y1145320D01*
X1564676D01*
X1564617Y1145291D01*
X1564501D01*
X1564355Y1145262D01*
X1564209D01*
X1564034Y1145233D01*
X1563422D01*
X1563218Y1145262D01*
X1563189D01*
X1563101Y1145291D01*
X1562868Y1145320D01*
X1562839D01*
X1562810Y1145349D01*
X1562693Y1145466D01*
Y1145495D01*
Y1145524D01*
X1562664Y1145641D01*
Y1153018D01*
Y1153076D01*
Y1153193D01*
Y1153397D01*
X1562635Y1153631D01*
Y1153922D01*
X1562605Y1154214D01*
X1562547Y1154505D01*
X1562489Y1154768D01*
Y1154797D01*
X1562460Y1154884D01*
X1562431Y1155001D01*
X1562372Y1155176D01*
X1562197Y1155526D01*
X1561993Y1155905D01*
Y1155934D01*
X1561935Y1155992D01*
X1561760Y1156167D01*
X1561497Y1156401D01*
X1561147Y1156634D01*
X1561118D01*
X1561060Y1156663D01*
X1560943Y1156721D01*
X1560827Y1156780D01*
X1560652Y1156809D01*
X1560448Y1156867D01*
X1559981Y1156896D01*
X1559835D01*
X1559660Y1156867D01*
X1559427Y1156809D01*
X1559165Y1156750D01*
X1558873Y1156634D01*
X1558552Y1156459D01*
X1558232Y1156255D01*
X1558202Y1156226D01*
X1558086Y1156138D01*
X1557911Y1155992D01*
X1557678Y1155788D01*
X1557415Y1155555D01*
X1557094Y1155234D01*
X1556774Y1154855D01*
X1556424Y1154447D01*
Y1145641D01*
Y1145583D01*
X1556365Y1145466D01*
X1556307Y1145408D01*
X1556249Y1145378D01*
X1556161Y1145320D01*
X1556132D01*
X1556074Y1145291D01*
X1555957D01*
X1555811Y1145262D01*
X1555666D01*
X1555491Y1145233D01*
X1554878D01*
X1554674Y1145262D01*
X1554645D01*
X1554557Y1145291D01*
X1554324Y1145320D01*
X1554295D01*
X1554266Y1145349D01*
X1554149Y1145466D01*
Y1145495D01*
Y1145524D01*
X1554120Y1145641D01*
Y1158267D01*
Y1158296D01*
Y1158325D01*
X1554149Y1158442D01*
Y1158471D01*
X1554178Y1158500D01*
X1554237Y1158529D01*
X1554295Y1158588D01*
X1554324D01*
X1554383Y1158617D01*
X1554499Y1158646D01*
X1554616Y1158675D01*
X1554645D01*
X1554762Y1158704D01*
X1555491D01*
X1555666Y1158675D01*
X1555695D01*
X1555782Y1158646D01*
X1555870Y1158617D01*
X1555957Y1158588D01*
X1555986D01*
X1556015Y1158558D01*
X1556132Y1158442D01*
X1556161Y1158383D01*
X1556190Y1158267D01*
Y1156576D01*
X1556249Y1156634D01*
X1556365Y1156780D01*
X1556570Y1156984D01*
X1556861Y1157246D01*
X1557153Y1157538D01*
X1557532Y1157829D01*
X1557911Y1158092D01*
X1558290Y1158325D01*
X1558348Y1158354D01*
X1558465Y1158413D01*
X1558698Y1158500D01*
X1558961Y1158617D01*
X1559281Y1158733D01*
X1559660Y1158821D01*
X1560040Y1158879D01*
X1560448Y1158908D01*
X1560652D01*
X1560885Y1158879D01*
D02*
G37*
G36*
X1602291D02*
X1602320D01*
X1602437Y1158850D01*
X1602583Y1158821D01*
X1602758Y1158792D01*
X1602816D01*
X1602903Y1158763D01*
X1603078Y1158704D01*
X1603224Y1158646D01*
X1603253D01*
X1603341Y1158617D01*
X1603428Y1158588D01*
X1603516Y1158529D01*
X1603545D01*
X1603574Y1158500D01*
X1603633Y1158383D01*
X1603662Y1158354D01*
Y1158238D01*
Y1158208D01*
X1603691Y1158179D01*
Y1158092D01*
Y1157946D01*
Y1157917D01*
X1603720Y1157829D01*
Y1157654D01*
Y1157450D01*
Y1157392D01*
Y1157275D01*
Y1157101D01*
X1603691Y1156926D01*
Y1156896D01*
Y1156809D01*
X1603633Y1156576D01*
Y1156546D01*
X1603603Y1156517D01*
X1603516Y1156401D01*
X1603487Y1156372D01*
X1603370Y1156342D01*
X1603282D01*
X1603195Y1156372D01*
X1603078Y1156401D01*
X1603049D01*
X1602991Y1156430D01*
X1602874Y1156488D01*
X1602728Y1156517D01*
X1602699Y1156546D01*
X1602583Y1156576D01*
X1602437Y1156605D01*
X1602262Y1156663D01*
X1602233D01*
X1602116Y1156692D01*
X1601941Y1156721D01*
X1601650D01*
X1601504Y1156692D01*
X1601271Y1156663D01*
X1601008Y1156576D01*
X1600950Y1156546D01*
X1600804Y1156459D01*
X1600571Y1156313D01*
X1600308Y1156109D01*
X1600279D01*
X1600250Y1156051D01*
X1600075Y1155876D01*
X1599842Y1155613D01*
X1599550Y1155234D01*
X1599521Y1155205D01*
X1599492Y1155147D01*
X1599404Y1155030D01*
X1599288Y1154884D01*
X1599171Y1154680D01*
X1598996Y1154476D01*
X1598675Y1153951D01*
Y1145641D01*
Y1145583D01*
X1598617Y1145466D01*
X1598559Y1145408D01*
X1598500Y1145378D01*
X1598413Y1145320D01*
X1598384D01*
X1598326Y1145291D01*
X1598209D01*
X1598063Y1145262D01*
X1597917D01*
X1597742Y1145233D01*
X1597130D01*
X1596926Y1145262D01*
X1596897D01*
X1596809Y1145291D01*
X1596576Y1145320D01*
X1596547D01*
X1596518Y1145349D01*
X1596401Y1145466D01*
Y1145495D01*
Y1145524D01*
X1596372Y1145641D01*
Y1158267D01*
Y1158296D01*
Y1158325D01*
X1596401Y1158442D01*
Y1158471D01*
X1596430Y1158500D01*
X1596488Y1158529D01*
X1596547Y1158588D01*
X1596576D01*
X1596634Y1158617D01*
X1596751Y1158646D01*
X1596868Y1158675D01*
X1596897D01*
X1597013Y1158704D01*
X1597742D01*
X1597917Y1158675D01*
X1597946D01*
X1598034Y1158646D01*
X1598121Y1158617D01*
X1598209Y1158588D01*
X1598238D01*
X1598267Y1158558D01*
X1598384Y1158442D01*
X1598413Y1158383D01*
X1598442Y1158267D01*
Y1156430D01*
X1598471Y1156459D01*
X1598530Y1156546D01*
X1598646Y1156692D01*
X1598763Y1156867D01*
X1599084Y1157275D01*
X1599404Y1157654D01*
X1599433Y1157684D01*
X1599492Y1157742D01*
X1599579Y1157829D01*
X1599696Y1157917D01*
X1599958Y1158150D01*
X1600279Y1158383D01*
X1600308D01*
X1600338Y1158442D01*
X1600542Y1158558D01*
X1600775Y1158675D01*
X1601066Y1158792D01*
X1601096D01*
X1601125Y1158821D01*
X1601329Y1158850D01*
X1601591Y1158879D01*
X1601883Y1158908D01*
X1602116D01*
X1602291Y1158879D01*
D02*
G37*
G36*
X1636145D02*
X1636174D01*
X1636291Y1158850D01*
X1636437Y1158821D01*
X1636611Y1158792D01*
X1636670D01*
X1636757Y1158763D01*
X1636932Y1158704D01*
X1637078Y1158646D01*
X1637107D01*
X1637195Y1158617D01*
X1637282Y1158588D01*
X1637370Y1158529D01*
X1637399D01*
X1637428Y1158500D01*
X1637486Y1158383D01*
X1637515Y1158354D01*
Y1158238D01*
Y1158208D01*
X1637545Y1158179D01*
Y1158092D01*
Y1157946D01*
Y1157917D01*
X1637574Y1157829D01*
Y1157654D01*
Y1157450D01*
Y1157392D01*
Y1157275D01*
Y1157101D01*
X1637545Y1156926D01*
Y1156896D01*
Y1156809D01*
X1637486Y1156576D01*
Y1156546D01*
X1637457Y1156517D01*
X1637370Y1156401D01*
X1637341Y1156372D01*
X1637224Y1156342D01*
X1637136D01*
X1637049Y1156372D01*
X1636932Y1156401D01*
X1636903D01*
X1636845Y1156430D01*
X1636728Y1156488D01*
X1636582Y1156517D01*
X1636553Y1156546D01*
X1636437Y1156576D01*
X1636291Y1156605D01*
X1636116Y1156663D01*
X1636087D01*
X1635970Y1156692D01*
X1635795Y1156721D01*
X1635504D01*
X1635358Y1156692D01*
X1635124Y1156663D01*
X1634862Y1156576D01*
X1634804Y1156546D01*
X1634658Y1156459D01*
X1634425Y1156313D01*
X1634162Y1156109D01*
X1634133D01*
X1634104Y1156051D01*
X1633929Y1155876D01*
X1633696Y1155613D01*
X1633404Y1155234D01*
X1633375Y1155205D01*
X1633346Y1155147D01*
X1633258Y1155030D01*
X1633142Y1154884D01*
X1633025Y1154680D01*
X1632850Y1154476D01*
X1632529Y1153951D01*
Y1145641D01*
Y1145583D01*
X1632471Y1145466D01*
X1632413Y1145408D01*
X1632354Y1145378D01*
X1632267Y1145320D01*
X1632238D01*
X1632179Y1145291D01*
X1632063D01*
X1631917Y1145262D01*
X1631771D01*
X1631596Y1145233D01*
X1630984D01*
X1630780Y1145262D01*
X1630750D01*
X1630663Y1145291D01*
X1630430Y1145320D01*
X1630401D01*
X1630371Y1145349D01*
X1630255Y1145466D01*
Y1145495D01*
Y1145524D01*
X1630226Y1145641D01*
Y1158267D01*
Y1158296D01*
Y1158325D01*
X1630255Y1158442D01*
Y1158471D01*
X1630284Y1158500D01*
X1630342Y1158529D01*
X1630401Y1158588D01*
X1630430D01*
X1630488Y1158617D01*
X1630605Y1158646D01*
X1630721Y1158675D01*
X1630750D01*
X1630867Y1158704D01*
X1631596D01*
X1631771Y1158675D01*
X1631800D01*
X1631888Y1158646D01*
X1631975Y1158617D01*
X1632063Y1158588D01*
X1632092D01*
X1632121Y1158558D01*
X1632238Y1158442D01*
X1632267Y1158383D01*
X1632296Y1158267D01*
Y1156430D01*
X1632325Y1156459D01*
X1632383Y1156546D01*
X1632500Y1156692D01*
X1632617Y1156867D01*
X1632937Y1157275D01*
X1633258Y1157654D01*
X1633287Y1157684D01*
X1633346Y1157742D01*
X1633433Y1157829D01*
X1633550Y1157917D01*
X1633812Y1158150D01*
X1634133Y1158383D01*
X1634162D01*
X1634191Y1158442D01*
X1634395Y1158558D01*
X1634629Y1158675D01*
X1634920Y1158792D01*
X1634949D01*
X1634979Y1158821D01*
X1635183Y1158850D01*
X1635445Y1158879D01*
X1635737Y1158908D01*
X1635970D01*
X1636145Y1158879D01*
D02*
G37*
G36*
X1738552D02*
X1738902Y1158850D01*
X1739339Y1158792D01*
X1739777Y1158704D01*
X1740243Y1158588D01*
X1740681Y1158442D01*
X1740739Y1158413D01*
X1740885Y1158354D01*
X1741089Y1158238D01*
X1741351Y1158092D01*
X1741672Y1157917D01*
X1741993Y1157654D01*
X1742314Y1157392D01*
X1742605Y1157071D01*
X1742634Y1157042D01*
X1742722Y1156926D01*
X1742868Y1156721D01*
X1743043Y1156488D01*
X1743247Y1156167D01*
X1743422Y1155817D01*
X1743626Y1155409D01*
X1743772Y1154943D01*
X1743801Y1154884D01*
X1743830Y1154709D01*
X1743888Y1154476D01*
X1743976Y1154126D01*
X1744063Y1153689D01*
X1744122Y1153222D01*
X1744151Y1152697D01*
X1744180Y1152114D01*
Y1152085D01*
Y1152056D01*
Y1151968D01*
Y1151852D01*
X1744151Y1151560D01*
X1744122Y1151181D01*
X1744092Y1150744D01*
X1744005Y1150248D01*
X1743917Y1149752D01*
X1743772Y1149257D01*
X1743742Y1149198D01*
X1743684Y1149053D01*
X1743597Y1148790D01*
X1743480Y1148499D01*
X1743305Y1148149D01*
X1743072Y1147769D01*
X1742838Y1147390D01*
X1742547Y1147040D01*
X1742518Y1147011D01*
X1742401Y1146895D01*
X1742226Y1146720D01*
X1741993Y1146516D01*
X1741701Y1146282D01*
X1741351Y1146020D01*
X1740943Y1145787D01*
X1740506Y1145583D01*
X1740447Y1145553D01*
X1740302Y1145495D01*
X1740039Y1145408D01*
X1739718Y1145320D01*
X1739310Y1145233D01*
X1738844Y1145145D01*
X1738319Y1145087D01*
X1737736Y1145058D01*
X1737473D01*
X1737182Y1145087D01*
X1736803Y1145116D01*
X1736365Y1145174D01*
X1735928Y1145233D01*
X1735461Y1145349D01*
X1734995Y1145495D01*
X1734936Y1145524D01*
X1734820Y1145583D01*
X1734586Y1145699D01*
X1734324Y1145845D01*
X1734032Y1146020D01*
X1733712Y1146253D01*
X1733391Y1146516D01*
X1733070Y1146836D01*
X1733041Y1146866D01*
X1732953Y1147011D01*
X1732808Y1147186D01*
X1732633Y1147449D01*
X1732458Y1147769D01*
X1732283Y1148119D01*
X1732079Y1148557D01*
X1731933Y1148994D01*
Y1149023D01*
Y1149053D01*
X1731875Y1149228D01*
X1731816Y1149490D01*
X1731758Y1149811D01*
X1731700Y1150248D01*
X1731641Y1150744D01*
X1731612Y1151269D01*
X1731583Y1151852D01*
Y1151881D01*
Y1151910D01*
Y1151998D01*
Y1152114D01*
X1731612Y1152406D01*
X1731641Y1152785D01*
X1731671Y1153222D01*
X1731758Y1153689D01*
X1731846Y1154184D01*
X1731962Y1154680D01*
Y1154709D01*
X1731991Y1154739D01*
X1732050Y1154913D01*
X1732137Y1155147D01*
X1732254Y1155468D01*
X1732429Y1155817D01*
X1732633Y1156197D01*
X1732895Y1156576D01*
X1733158Y1156926D01*
X1733187Y1156955D01*
X1733303Y1157071D01*
X1733478Y1157246D01*
X1733712Y1157450D01*
X1734003Y1157684D01*
X1734353Y1157946D01*
X1734732Y1158179D01*
X1735170Y1158383D01*
X1735228Y1158413D01*
X1735374Y1158471D01*
X1735636Y1158558D01*
X1735986Y1158646D01*
X1736394Y1158733D01*
X1736890Y1158821D01*
X1737415Y1158879D01*
X1737998Y1158908D01*
X1738260D01*
X1738552Y1158879D01*
D02*
G37*
G36*
X1773806D02*
X1774155Y1158850D01*
X1774534Y1158792D01*
X1774943Y1158704D01*
X1775380Y1158588D01*
X1775788Y1158413D01*
X1775847Y1158383D01*
X1775963Y1158325D01*
X1776167Y1158208D01*
X1776401Y1158092D01*
X1776663Y1157888D01*
X1776955Y1157684D01*
X1777246Y1157421D01*
X1777509Y1157130D01*
X1777538Y1157101D01*
X1777625Y1156984D01*
X1777742Y1156809D01*
X1777888Y1156576D01*
X1778034Y1156313D01*
X1778209Y1155992D01*
X1778354Y1155613D01*
X1778500Y1155234D01*
X1778529Y1155176D01*
X1778559Y1155059D01*
X1778617Y1154826D01*
X1778675Y1154534D01*
X1778734Y1154184D01*
X1778763Y1153805D01*
X1778821Y1153368D01*
Y1152931D01*
Y1152493D01*
Y1152464D01*
Y1152406D01*
Y1152318D01*
X1778792Y1152202D01*
X1778704Y1151939D01*
X1778617Y1151794D01*
X1778529Y1151706D01*
X1778471Y1151677D01*
X1778354Y1151618D01*
X1778150Y1151531D01*
X1777917Y1151502D01*
X1769636D01*
Y1151444D01*
Y1151327D01*
Y1151123D01*
X1769665Y1150860D01*
X1769694Y1150569D01*
X1769723Y1150248D01*
X1769840Y1149577D01*
Y1149548D01*
X1769869Y1149432D01*
X1769927Y1149286D01*
X1770015Y1149082D01*
X1770219Y1148644D01*
X1770540Y1148149D01*
X1770569Y1148119D01*
X1770627Y1148061D01*
X1770744Y1147944D01*
X1770890Y1147828D01*
X1771065Y1147682D01*
X1771298Y1147536D01*
X1771531Y1147390D01*
X1771823Y1147245D01*
X1771852D01*
X1771969Y1147186D01*
X1772144Y1147157D01*
X1772348Y1147099D01*
X1772639Y1147040D01*
X1772960Y1146982D01*
X1773339Y1146953D01*
X1773747Y1146924D01*
X1774068D01*
X1774301Y1146953D01*
X1774534D01*
X1774797Y1146982D01*
X1775351Y1147070D01*
X1775380D01*
X1775468Y1147099D01*
X1775613Y1147128D01*
X1775759Y1147157D01*
X1776138Y1147274D01*
X1776546Y1147390D01*
X1776576D01*
X1776634Y1147420D01*
X1776721Y1147449D01*
X1776838Y1147507D01*
X1777130Y1147595D01*
X1777392Y1147711D01*
X1777421D01*
X1777450Y1147740D01*
X1777596Y1147799D01*
X1777742Y1147857D01*
X1777888Y1147886D01*
X1777946D01*
X1778063Y1147828D01*
X1778092D01*
X1778121Y1147799D01*
X1778179Y1147653D01*
Y1147624D01*
X1778209Y1147595D01*
X1778238Y1147507D01*
X1778267Y1147390D01*
Y1147361D01*
X1778296Y1147274D01*
Y1147157D01*
Y1146982D01*
Y1146953D01*
Y1146866D01*
X1778267Y1146662D01*
Y1146632D01*
Y1146603D01*
X1778238Y1146428D01*
Y1146399D01*
X1778209Y1146370D01*
X1778150Y1146224D01*
X1778121Y1146195D01*
X1778034Y1146078D01*
X1778004D01*
X1777946Y1146020D01*
X1777800Y1145932D01*
X1777567Y1145816D01*
X1777538D01*
X1777509Y1145787D01*
X1777421Y1145758D01*
X1777305Y1145699D01*
X1777013Y1145583D01*
X1776605Y1145466D01*
X1776576D01*
X1776488Y1145437D01*
X1776372Y1145408D01*
X1776197Y1145378D01*
X1775992Y1145349D01*
X1775759Y1145291D01*
X1775205Y1145203D01*
X1775176D01*
X1775059Y1145174D01*
X1774914Y1145145D01*
X1774709D01*
X1774447Y1145116D01*
X1774155Y1145087D01*
X1773514Y1145058D01*
X1773251D01*
X1772960Y1145087D01*
X1772610Y1145116D01*
X1772173Y1145145D01*
X1771706Y1145233D01*
X1771269Y1145320D01*
X1770802Y1145466D01*
X1770744Y1145495D01*
X1770598Y1145553D01*
X1770394Y1145641D01*
X1770132Y1145787D01*
X1769811Y1145962D01*
X1769461Y1146195D01*
X1769140Y1146457D01*
X1768819Y1146749D01*
X1768790Y1146778D01*
X1768703Y1146895D01*
X1768557Y1147099D01*
X1768382Y1147361D01*
X1768178Y1147653D01*
X1767974Y1148032D01*
X1767799Y1148440D01*
X1767624Y1148907D01*
Y1148936D01*
X1767595Y1148965D01*
X1767565Y1149140D01*
X1767507Y1149402D01*
X1767449Y1149752D01*
X1767361Y1150219D01*
X1767303Y1150715D01*
X1767274Y1151298D01*
X1767245Y1151910D01*
Y1151939D01*
Y1151998D01*
Y1152056D01*
Y1152172D01*
X1767274Y1152493D01*
X1767303Y1152902D01*
X1767332Y1153339D01*
X1767420Y1153835D01*
X1767507Y1154330D01*
X1767653Y1154826D01*
Y1154855D01*
X1767682Y1154884D01*
X1767740Y1155030D01*
X1767828Y1155293D01*
X1767944Y1155584D01*
X1768120Y1155934D01*
X1768324Y1156284D01*
X1768586Y1156663D01*
X1768849Y1157013D01*
X1768878Y1157042D01*
X1768994Y1157159D01*
X1769169Y1157334D01*
X1769373Y1157538D01*
X1769665Y1157742D01*
X1769986Y1157975D01*
X1770336Y1158208D01*
X1770744Y1158413D01*
X1770802Y1158442D01*
X1770948Y1158500D01*
X1771181Y1158558D01*
X1771502Y1158675D01*
X1771852Y1158763D01*
X1772289Y1158821D01*
X1772785Y1158879D01*
X1773281Y1158908D01*
X1773514D01*
X1773806Y1158879D01*
D02*
G37*
G36*
X1587857D02*
X1588207Y1158850D01*
X1588586Y1158792D01*
X1588994Y1158704D01*
X1589432Y1158588D01*
X1589840Y1158413D01*
X1589899Y1158383D01*
X1590015Y1158325D01*
X1590219Y1158208D01*
X1590453Y1158092D01*
X1590715Y1157888D01*
X1591006Y1157684D01*
X1591298Y1157421D01*
X1591561Y1157130D01*
X1591590Y1157101D01*
X1591677Y1156984D01*
X1591794Y1156809D01*
X1591940Y1156576D01*
X1592085Y1156313D01*
X1592260Y1155992D01*
X1592406Y1155613D01*
X1592552Y1155234D01*
X1592581Y1155176D01*
X1592610Y1155059D01*
X1592669Y1154826D01*
X1592727Y1154534D01*
X1592785Y1154184D01*
X1592814Y1153805D01*
X1592873Y1153368D01*
Y1152931D01*
Y1152493D01*
Y1152464D01*
Y1152406D01*
Y1152318D01*
X1592844Y1152202D01*
X1592756Y1151939D01*
X1592669Y1151794D01*
X1592581Y1151706D01*
X1592523Y1151677D01*
X1592406Y1151618D01*
X1592202Y1151531D01*
X1591969Y1151502D01*
X1583688D01*
Y1151444D01*
Y1151327D01*
Y1151123D01*
X1583717Y1150860D01*
X1583746Y1150569D01*
X1583775Y1150248D01*
X1583892Y1149577D01*
Y1149548D01*
X1583921Y1149432D01*
X1583979Y1149286D01*
X1584067Y1149082D01*
X1584271Y1148644D01*
X1584592Y1148149D01*
X1584621Y1148119D01*
X1584679Y1148061D01*
X1584796Y1147944D01*
X1584941Y1147828D01*
X1585116Y1147682D01*
X1585350Y1147536D01*
X1585583Y1147390D01*
X1585874Y1147245D01*
X1585904D01*
X1586020Y1147186D01*
X1586195Y1147157D01*
X1586399Y1147099D01*
X1586691Y1147040D01*
X1587012Y1146982D01*
X1587391Y1146953D01*
X1587799Y1146924D01*
X1588120D01*
X1588353Y1146953D01*
X1588586D01*
X1588849Y1146982D01*
X1589403Y1147070D01*
X1589432D01*
X1589519Y1147099D01*
X1589665Y1147128D01*
X1589811Y1147157D01*
X1590190Y1147274D01*
X1590598Y1147390D01*
X1590627D01*
X1590686Y1147420D01*
X1590773Y1147449D01*
X1590890Y1147507D01*
X1591181Y1147595D01*
X1591444Y1147711D01*
X1591473D01*
X1591502Y1147740D01*
X1591648Y1147799D01*
X1591794Y1147857D01*
X1591940Y1147886D01*
X1591998D01*
X1592115Y1147828D01*
X1592144D01*
X1592173Y1147799D01*
X1592231Y1147653D01*
Y1147624D01*
X1592260Y1147595D01*
X1592289Y1147507D01*
X1592319Y1147390D01*
Y1147361D01*
X1592348Y1147274D01*
Y1147157D01*
Y1146982D01*
Y1146953D01*
Y1146866D01*
X1592319Y1146662D01*
Y1146632D01*
Y1146603D01*
X1592289Y1146428D01*
Y1146399D01*
X1592260Y1146370D01*
X1592202Y1146224D01*
X1592173Y1146195D01*
X1592085Y1146078D01*
X1592056D01*
X1591998Y1146020D01*
X1591852Y1145932D01*
X1591619Y1145816D01*
X1591590D01*
X1591561Y1145787D01*
X1591473Y1145758D01*
X1591356Y1145699D01*
X1591065Y1145583D01*
X1590657Y1145466D01*
X1590627D01*
X1590540Y1145437D01*
X1590423Y1145408D01*
X1590248Y1145378D01*
X1590044Y1145349D01*
X1589811Y1145291D01*
X1589257Y1145203D01*
X1589228D01*
X1589111Y1145174D01*
X1588965Y1145145D01*
X1588761D01*
X1588499Y1145116D01*
X1588207Y1145087D01*
X1587566Y1145058D01*
X1587303D01*
X1587012Y1145087D01*
X1586662Y1145116D01*
X1586224Y1145145D01*
X1585758Y1145233D01*
X1585320Y1145320D01*
X1584854Y1145466D01*
X1584796Y1145495D01*
X1584650Y1145553D01*
X1584446Y1145641D01*
X1584183Y1145787D01*
X1583862Y1145962D01*
X1583513Y1146195D01*
X1583192Y1146457D01*
X1582871Y1146749D01*
X1582842Y1146778D01*
X1582755Y1146895D01*
X1582609Y1147099D01*
X1582434Y1147361D01*
X1582230Y1147653D01*
X1582025Y1148032D01*
X1581850Y1148440D01*
X1581676Y1148907D01*
Y1148936D01*
X1581646Y1148965D01*
X1581617Y1149140D01*
X1581559Y1149402D01*
X1581501Y1149752D01*
X1581413Y1150219D01*
X1581355Y1150715D01*
X1581326Y1151298D01*
X1581297Y1151910D01*
Y1151939D01*
Y1151998D01*
Y1152056D01*
Y1152172D01*
X1581326Y1152493D01*
X1581355Y1152902D01*
X1581384Y1153339D01*
X1581472Y1153835D01*
X1581559Y1154330D01*
X1581705Y1154826D01*
Y1154855D01*
X1581734Y1154884D01*
X1581792Y1155030D01*
X1581880Y1155293D01*
X1581996Y1155584D01*
X1582171Y1155934D01*
X1582375Y1156284D01*
X1582638Y1156663D01*
X1582900Y1157013D01*
X1582929Y1157042D01*
X1583046Y1157159D01*
X1583221Y1157334D01*
X1583425Y1157538D01*
X1583717Y1157742D01*
X1584037Y1157975D01*
X1584387Y1158208D01*
X1584796Y1158413D01*
X1584854Y1158442D01*
X1585000Y1158500D01*
X1585233Y1158558D01*
X1585554Y1158675D01*
X1585904Y1158763D01*
X1586341Y1158821D01*
X1586837Y1158879D01*
X1587332Y1158908D01*
X1587566D01*
X1587857Y1158879D01*
D02*
G37*
G36*
X1621711D02*
X1622061Y1158850D01*
X1622440Y1158792D01*
X1622848Y1158704D01*
X1623286Y1158588D01*
X1623694Y1158413D01*
X1623752Y1158383D01*
X1623869Y1158325D01*
X1624073Y1158208D01*
X1624306Y1158092D01*
X1624569Y1157888D01*
X1624860Y1157684D01*
X1625152Y1157421D01*
X1625414Y1157130D01*
X1625444Y1157101D01*
X1625531Y1156984D01*
X1625648Y1156809D01*
X1625793Y1156576D01*
X1625939Y1156313D01*
X1626114Y1155992D01*
X1626260Y1155613D01*
X1626406Y1155234D01*
X1626435Y1155176D01*
X1626464Y1155059D01*
X1626522Y1154826D01*
X1626581Y1154534D01*
X1626639Y1154184D01*
X1626668Y1153805D01*
X1626727Y1153368D01*
Y1152931D01*
Y1152493D01*
Y1152464D01*
Y1152406D01*
Y1152318D01*
X1626697Y1152202D01*
X1626610Y1151939D01*
X1626522Y1151794D01*
X1626435Y1151706D01*
X1626377Y1151677D01*
X1626260Y1151618D01*
X1626056Y1151531D01*
X1625823Y1151502D01*
X1617541D01*
Y1151444D01*
Y1151327D01*
Y1151123D01*
X1617571Y1150860D01*
X1617600Y1150569D01*
X1617629Y1150248D01*
X1617746Y1149577D01*
Y1149548D01*
X1617775Y1149432D01*
X1617833Y1149286D01*
X1617921Y1149082D01*
X1618125Y1148644D01*
X1618445Y1148149D01*
X1618474Y1148119D01*
X1618533Y1148061D01*
X1618649Y1147944D01*
X1618795Y1147828D01*
X1618970Y1147682D01*
X1619203Y1147536D01*
X1619437Y1147390D01*
X1619728Y1147245D01*
X1619758D01*
X1619874Y1147186D01*
X1620049Y1147157D01*
X1620253Y1147099D01*
X1620545Y1147040D01*
X1620865Y1146982D01*
X1621245Y1146953D01*
X1621653Y1146924D01*
X1621974D01*
X1622207Y1146953D01*
X1622440D01*
X1622703Y1146982D01*
X1623257Y1147070D01*
X1623286D01*
X1623373Y1147099D01*
X1623519Y1147128D01*
X1623665Y1147157D01*
X1624044Y1147274D01*
X1624452Y1147390D01*
X1624481D01*
X1624540Y1147420D01*
X1624627Y1147449D01*
X1624744Y1147507D01*
X1625035Y1147595D01*
X1625298Y1147711D01*
X1625327D01*
X1625356Y1147740D01*
X1625502Y1147799D01*
X1625648Y1147857D01*
X1625793Y1147886D01*
X1625852D01*
X1625968Y1147828D01*
X1625998D01*
X1626027Y1147799D01*
X1626085Y1147653D01*
Y1147624D01*
X1626114Y1147595D01*
X1626143Y1147507D01*
X1626172Y1147390D01*
Y1147361D01*
X1626202Y1147274D01*
Y1147157D01*
Y1146982D01*
Y1146953D01*
Y1146866D01*
X1626172Y1146662D01*
Y1146632D01*
Y1146603D01*
X1626143Y1146428D01*
Y1146399D01*
X1626114Y1146370D01*
X1626056Y1146224D01*
X1626027Y1146195D01*
X1625939Y1146078D01*
X1625910D01*
X1625852Y1146020D01*
X1625706Y1145932D01*
X1625473Y1145816D01*
X1625444D01*
X1625414Y1145787D01*
X1625327Y1145758D01*
X1625210Y1145699D01*
X1624919Y1145583D01*
X1624510Y1145466D01*
X1624481D01*
X1624394Y1145437D01*
X1624277Y1145408D01*
X1624102Y1145378D01*
X1623898Y1145349D01*
X1623665Y1145291D01*
X1623111Y1145203D01*
X1623082D01*
X1622965Y1145174D01*
X1622819Y1145145D01*
X1622615D01*
X1622353Y1145116D01*
X1622061Y1145087D01*
X1621420Y1145058D01*
X1621157D01*
X1620865Y1145087D01*
X1620516Y1145116D01*
X1620078Y1145145D01*
X1619612Y1145233D01*
X1619174Y1145320D01*
X1618708Y1145466D01*
X1618649Y1145495D01*
X1618504Y1145553D01*
X1618300Y1145641D01*
X1618037Y1145787D01*
X1617716Y1145962D01*
X1617366Y1146195D01*
X1617046Y1146457D01*
X1616725Y1146749D01*
X1616696Y1146778D01*
X1616608Y1146895D01*
X1616463Y1147099D01*
X1616288Y1147361D01*
X1616083Y1147653D01*
X1615879Y1148032D01*
X1615704Y1148440D01*
X1615529Y1148907D01*
Y1148936D01*
X1615500Y1148965D01*
X1615471Y1149140D01*
X1615413Y1149402D01*
X1615354Y1149752D01*
X1615267Y1150219D01*
X1615209Y1150715D01*
X1615179Y1151298D01*
X1615150Y1151910D01*
Y1151939D01*
Y1151998D01*
Y1152056D01*
Y1152172D01*
X1615179Y1152493D01*
X1615209Y1152902D01*
X1615238Y1153339D01*
X1615325Y1153835D01*
X1615413Y1154330D01*
X1615559Y1154826D01*
Y1154855D01*
X1615588Y1154884D01*
X1615646Y1155030D01*
X1615733Y1155293D01*
X1615850Y1155584D01*
X1616025Y1155934D01*
X1616229Y1156284D01*
X1616492Y1156663D01*
X1616754Y1157013D01*
X1616783Y1157042D01*
X1616900Y1157159D01*
X1617075Y1157334D01*
X1617279Y1157538D01*
X1617571Y1157742D01*
X1617891Y1157975D01*
X1618241Y1158208D01*
X1618649Y1158413D01*
X1618708Y1158442D01*
X1618854Y1158500D01*
X1619087Y1158558D01*
X1619408Y1158675D01*
X1619758Y1158763D01*
X1620195Y1158821D01*
X1620691Y1158879D01*
X1621186Y1158908D01*
X1621420D01*
X1621711Y1158879D01*
D02*
G37*
G36*
X1608619Y1162028D02*
X1608648D01*
X1608764Y1161999D01*
X1608852Y1161970D01*
X1608969Y1161912D01*
X1608998D01*
X1609056Y1161883D01*
X1609114Y1161824D01*
X1609173Y1161766D01*
X1609202Y1161737D01*
X1609231Y1161591D01*
Y1158617D01*
X1612526D01*
X1612643Y1158558D01*
X1612672D01*
X1612701Y1158529D01*
X1612788Y1158383D01*
X1612818Y1158354D01*
X1612847Y1158296D01*
X1612876Y1158208D01*
X1612905Y1158063D01*
Y1158034D01*
X1612934Y1157946D01*
Y1157800D01*
Y1157625D01*
Y1157596D01*
Y1157538D01*
X1612905Y1157363D01*
X1612876Y1157101D01*
X1612788Y1156896D01*
X1612759Y1156867D01*
X1612701Y1156809D01*
X1612614Y1156721D01*
X1612468Y1156692D01*
X1609231D01*
Y1149665D01*
Y1149606D01*
Y1149461D01*
X1609260Y1149228D01*
X1609289Y1148936D01*
X1609319Y1148615D01*
X1609406Y1148294D01*
X1609494Y1148003D01*
X1609610Y1147711D01*
X1609639Y1147682D01*
X1609698Y1147624D01*
X1609785Y1147507D01*
X1609931Y1147390D01*
X1610106Y1147274D01*
X1610339Y1147157D01*
X1610631Y1147099D01*
X1610981Y1147070D01*
X1611185D01*
X1611360Y1147099D01*
X1611564Y1147128D01*
X1611622D01*
X1611710Y1147157D01*
X1611855Y1147215D01*
X1612001Y1147245D01*
X1612030Y1147274D01*
X1612118Y1147303D01*
X1612351Y1147390D01*
X1612380D01*
X1612439Y1147420D01*
X1612584Y1147449D01*
X1612643D01*
X1612730Y1147420D01*
X1612759Y1147390D01*
X1612788Y1147361D01*
X1612818Y1147274D01*
Y1147245D01*
X1612847Y1147215D01*
X1612876Y1147128D01*
X1612905Y1147011D01*
Y1146982D01*
X1612934Y1146895D01*
Y1146778D01*
Y1146603D01*
Y1146574D01*
Y1146545D01*
Y1146370D01*
X1612905Y1146137D01*
X1612876Y1145932D01*
Y1145903D01*
X1612847Y1145816D01*
X1612788Y1145699D01*
X1612701Y1145583D01*
X1612672Y1145553D01*
X1612614Y1145524D01*
X1612497Y1145437D01*
X1612351Y1145378D01*
X1612322D01*
X1612205Y1145349D01*
X1612059Y1145320D01*
X1611855Y1145262D01*
X1611797D01*
X1611680Y1145203D01*
X1611476Y1145174D01*
X1611243Y1145145D01*
X1611185D01*
X1611039Y1145116D01*
X1610835Y1145087D01*
X1610252D01*
X1610018Y1145116D01*
X1609756Y1145145D01*
X1609464Y1145174D01*
X1608910Y1145320D01*
X1608881D01*
X1608794Y1145378D01*
X1608677Y1145437D01*
X1608502Y1145524D01*
X1608123Y1145758D01*
X1607744Y1146107D01*
X1607715Y1146137D01*
X1607686Y1146195D01*
X1607598Y1146312D01*
X1607511Y1146457D01*
X1607394Y1146662D01*
X1607277Y1146895D01*
X1607190Y1147128D01*
X1607102Y1147420D01*
Y1147449D01*
X1607073Y1147565D01*
X1607044Y1147740D01*
X1607015Y1147974D01*
X1606986Y1148236D01*
X1606957Y1148586D01*
X1606927Y1148936D01*
Y1149344D01*
Y1156692D01*
X1605120D01*
X1605032Y1156721D01*
X1604915Y1156780D01*
X1604828Y1156896D01*
X1604799Y1156955D01*
X1604770Y1157071D01*
X1604740Y1157305D01*
X1604711Y1157625D01*
Y1157684D01*
Y1157771D01*
Y1157917D01*
X1604740Y1158063D01*
Y1158092D01*
X1604770Y1158179D01*
X1604799Y1158296D01*
X1604828Y1158383D01*
Y1158413D01*
X1604857Y1158442D01*
X1604974Y1158558D01*
X1605003D01*
X1605032Y1158588D01*
X1605178Y1158617D01*
X1606927D01*
Y1161591D01*
Y1161620D01*
Y1161649D01*
X1606957Y1161766D01*
Y1161795D01*
X1607015Y1161824D01*
X1607132Y1161912D01*
X1607161Y1161941D01*
X1607219Y1161970D01*
X1607336Y1161999D01*
X1607482Y1162028D01*
X1607511D01*
X1607656Y1162057D01*
X1608444D01*
X1608619Y1162028D01*
D02*
G37*
G36*
X1723477Y1163399D02*
X1723856Y1163370D01*
X1723943D01*
X1724060Y1163341D01*
X1724235Y1163311D01*
X1724410Y1163282D01*
X1724643Y1163253D01*
X1725139Y1163136D01*
X1725168D01*
X1725285Y1163107D01*
X1725430Y1163078D01*
X1725605Y1163020D01*
X1725839Y1162932D01*
X1726101Y1162816D01*
X1726655Y1162553D01*
X1726684Y1162524D01*
X1726772Y1162466D01*
X1726918Y1162378D01*
X1727092Y1162262D01*
X1727297Y1162087D01*
X1727530Y1161912D01*
X1727938Y1161474D01*
X1727967Y1161445D01*
X1728026Y1161358D01*
X1728142Y1161241D01*
X1728259Y1161037D01*
X1728376Y1160833D01*
X1728521Y1160570D01*
X1728667Y1160308D01*
X1728784Y1159987D01*
Y1159958D01*
X1728842Y1159841D01*
X1728871Y1159667D01*
X1728929Y1159433D01*
X1728988Y1159171D01*
X1729017Y1158850D01*
X1729075Y1158500D01*
Y1158121D01*
Y1158092D01*
Y1158063D01*
Y1157888D01*
X1729046Y1157625D01*
X1729017Y1157305D01*
X1728959Y1156926D01*
X1728871Y1156488D01*
X1728755Y1156080D01*
X1728609Y1155642D01*
X1728580Y1155584D01*
X1728521Y1155468D01*
X1728434Y1155263D01*
X1728288Y1155001D01*
X1728113Y1154709D01*
X1727880Y1154389D01*
X1727617Y1154097D01*
X1727326Y1153776D01*
X1727297Y1153747D01*
X1727180Y1153660D01*
X1727005Y1153514D01*
X1726772Y1153339D01*
X1726480Y1153164D01*
X1726130Y1152960D01*
X1725722Y1152785D01*
X1725285Y1152610D01*
X1725226Y1152581D01*
X1725081Y1152552D01*
X1724818Y1152493D01*
X1724468Y1152406D01*
X1724060Y1152318D01*
X1723564Y1152260D01*
X1723010Y1152231D01*
X1722398Y1152202D01*
X1720357D01*
Y1145670D01*
Y1145641D01*
Y1145612D01*
X1720328Y1145524D01*
X1720269Y1145466D01*
X1720211Y1145408D01*
X1720153Y1145378D01*
X1720065Y1145349D01*
X1720036D01*
X1719978Y1145320D01*
X1719861D01*
X1719715Y1145291D01*
X1719686D01*
X1719569Y1145262D01*
X1719365Y1145233D01*
X1718928D01*
X1718753Y1145262D01*
X1718549Y1145291D01*
X1718520D01*
X1718403Y1145320D01*
X1718286D01*
X1718170Y1145349D01*
X1718141D01*
X1718082Y1145378D01*
X1718024Y1145408D01*
X1717966Y1145466D01*
Y1145495D01*
Y1145524D01*
X1717937Y1145670D01*
Y1162378D01*
Y1162407D01*
Y1162466D01*
X1717966Y1162553D01*
Y1162699D01*
X1718053Y1162932D01*
X1718141Y1163078D01*
X1718228Y1163166D01*
X1718286Y1163195D01*
X1718432Y1163311D01*
X1718636Y1163399D01*
X1718870Y1163428D01*
X1723098D01*
X1723477Y1163399D01*
D02*
G37*
G36*
X1664809Y1163661D02*
X1665129D01*
X1665450Y1163603D01*
X1665829Y1163545D01*
X1666208Y1163457D01*
X1666558Y1163341D01*
X1666587D01*
X1666733Y1163282D01*
X1666908Y1163195D01*
X1667112Y1163107D01*
X1667375Y1162991D01*
X1667637Y1162816D01*
X1667899Y1162641D01*
X1668162Y1162437D01*
X1668191Y1162407D01*
X1668278Y1162320D01*
X1668395Y1162203D01*
X1668512Y1162057D01*
X1668687Y1161853D01*
X1668832Y1161591D01*
X1668978Y1161329D01*
X1669124Y1161037D01*
X1669153Y1161008D01*
X1669182Y1160891D01*
X1669241Y1160716D01*
X1669299Y1160512D01*
X1669357Y1160250D01*
X1669386Y1159929D01*
X1669445Y1159579D01*
Y1159229D01*
Y1159200D01*
Y1159083D01*
Y1158938D01*
X1669416Y1158704D01*
X1669386Y1158471D01*
X1669357Y1158208D01*
X1669211Y1157654D01*
Y1157625D01*
X1669182Y1157538D01*
X1669124Y1157392D01*
X1669037Y1157217D01*
X1668832Y1156809D01*
X1668541Y1156342D01*
X1668512Y1156313D01*
X1668453Y1156255D01*
X1668366Y1156138D01*
X1668249Y1156022D01*
X1668074Y1155876D01*
X1667899Y1155701D01*
X1667462Y1155380D01*
X1667433Y1155351D01*
X1667345Y1155322D01*
X1667229Y1155234D01*
X1667054Y1155147D01*
X1666850Y1155059D01*
X1666616Y1154972D01*
X1666033Y1154826D01*
Y1154797D01*
X1666062D01*
X1666179Y1154768D01*
X1666383Y1154739D01*
X1666587Y1154709D01*
X1666850Y1154651D01*
X1667141Y1154564D01*
X1667753Y1154330D01*
X1667783Y1154301D01*
X1667899Y1154272D01*
X1668045Y1154184D01*
X1668220Y1154068D01*
X1668658Y1153776D01*
X1669095Y1153397D01*
X1669124Y1153368D01*
X1669182Y1153310D01*
X1669299Y1153193D01*
X1669416Y1153018D01*
X1669561Y1152843D01*
X1669707Y1152610D01*
X1669970Y1152085D01*
X1669999Y1152056D01*
X1670028Y1151968D01*
X1670086Y1151823D01*
X1670145Y1151618D01*
X1670203Y1151385D01*
X1670232Y1151094D01*
X1670290Y1150802D01*
Y1150481D01*
Y1150423D01*
Y1150277D01*
X1670261Y1150044D01*
X1670232Y1149752D01*
X1670174Y1149402D01*
X1670115Y1149023D01*
X1669999Y1148615D01*
X1669853Y1148236D01*
X1669824Y1148207D01*
X1669765Y1148061D01*
X1669678Y1147886D01*
X1669532Y1147653D01*
X1669357Y1147390D01*
X1669153Y1147099D01*
X1668891Y1146807D01*
X1668599Y1146516D01*
X1668570Y1146487D01*
X1668453Y1146399D01*
X1668278Y1146282D01*
X1668045Y1146107D01*
X1667753Y1145932D01*
X1667404Y1145758D01*
X1667025Y1145583D01*
X1666587Y1145437D01*
X1666529Y1145408D01*
X1666383Y1145378D01*
X1666150Y1145320D01*
X1665829Y1145262D01*
X1665421Y1145174D01*
X1664954Y1145116D01*
X1664458Y1145087D01*
X1663905Y1145058D01*
X1663584D01*
X1663351Y1145087D01*
X1663088D01*
X1662796Y1145116D01*
X1662213Y1145203D01*
X1662184D01*
X1662068Y1145233D01*
X1661922Y1145262D01*
X1661747Y1145291D01*
X1661280Y1145408D01*
X1660814Y1145524D01*
X1660784D01*
X1660726Y1145553D01*
X1660609Y1145612D01*
X1660464Y1145641D01*
X1660114Y1145787D01*
X1659793Y1145932D01*
X1659764D01*
X1659735Y1145962D01*
X1659589Y1146049D01*
X1659414Y1146166D01*
X1659268Y1146253D01*
Y1146282D01*
X1659210Y1146312D01*
X1659122Y1146457D01*
Y1146487D01*
X1659093Y1146545D01*
X1659006Y1146691D01*
Y1146720D01*
X1658977Y1146778D01*
Y1146895D01*
X1658947Y1147040D01*
Y1147070D01*
Y1147186D01*
Y1147332D01*
Y1147536D01*
Y1147565D01*
Y1147624D01*
Y1147799D01*
X1658977Y1148032D01*
X1659035Y1148236D01*
X1659064Y1148265D01*
X1659093Y1148353D01*
X1659210Y1148411D01*
X1659326Y1148440D01*
X1659356D01*
X1659443Y1148411D01*
X1659589Y1148353D01*
X1659822Y1148207D01*
X1659851D01*
X1659881Y1148178D01*
X1659968Y1148119D01*
X1660085Y1148061D01*
X1660376Y1147886D01*
X1660784Y1147711D01*
X1660814D01*
X1660901Y1147682D01*
X1661018Y1147624D01*
X1661193Y1147565D01*
X1661397Y1147507D01*
X1661630Y1147420D01*
X1662184Y1147245D01*
X1662213D01*
X1662330Y1147215D01*
X1662505Y1147186D01*
X1662709Y1147157D01*
X1662971Y1147099D01*
X1663292Y1147070D01*
X1663613Y1147040D01*
X1664313D01*
X1664546Y1147070D01*
X1664779Y1147099D01*
X1665071Y1147128D01*
X1665625Y1147274D01*
X1665654D01*
X1665742Y1147332D01*
X1665887Y1147361D01*
X1666062Y1147449D01*
X1666441Y1147653D01*
X1666850Y1147944D01*
X1666879Y1147974D01*
X1666937Y1148032D01*
X1667025Y1148119D01*
X1667141Y1148236D01*
X1667375Y1148557D01*
X1667579Y1148965D01*
Y1148994D01*
X1667608Y1149082D01*
X1667666Y1149198D01*
X1667724Y1149373D01*
X1667753Y1149548D01*
X1667812Y1149781D01*
X1667841Y1150277D01*
Y1150306D01*
Y1150394D01*
X1667812Y1150540D01*
Y1150744D01*
X1667695Y1151181D01*
X1667637Y1151414D01*
X1667520Y1151648D01*
Y1151677D01*
X1667462Y1151764D01*
X1667375Y1151852D01*
X1667287Y1151998D01*
X1666995Y1152347D01*
X1666587Y1152697D01*
X1666558Y1152727D01*
X1666470Y1152785D01*
X1666354Y1152872D01*
X1666179Y1152960D01*
X1665975Y1153076D01*
X1665742Y1153193D01*
X1665450Y1153310D01*
X1665129Y1153397D01*
X1665100D01*
X1664983Y1153426D01*
X1664809Y1153485D01*
X1664546Y1153543D01*
X1664254Y1153572D01*
X1663934Y1153631D01*
X1663555Y1153660D01*
X1661309D01*
X1661134Y1153689D01*
X1661105D01*
X1661076Y1153747D01*
X1660930Y1153864D01*
Y1153893D01*
X1660901Y1153951D01*
X1660872Y1154039D01*
X1660814Y1154155D01*
Y1154184D01*
Y1154272D01*
X1660784Y1154418D01*
Y1154622D01*
Y1154680D01*
Y1154768D01*
Y1154913D01*
X1660814Y1155059D01*
Y1155089D01*
X1660843Y1155147D01*
X1660872Y1155234D01*
X1660930Y1155322D01*
X1660959Y1155351D01*
X1660989Y1155380D01*
X1661105Y1155497D01*
X1661134D01*
X1661164Y1155526D01*
X1661339Y1155555D01*
X1663234D01*
X1663467Y1155584D01*
X1663700Y1155613D01*
X1663992Y1155642D01*
X1664546Y1155788D01*
X1664575D01*
X1664663Y1155847D01*
X1664809Y1155876D01*
X1664983Y1155963D01*
X1665392Y1156167D01*
X1665800Y1156459D01*
X1665829Y1156488D01*
X1665887Y1156546D01*
X1665975Y1156634D01*
X1666091Y1156780D01*
X1666354Y1157101D01*
X1666587Y1157538D01*
Y1157567D01*
X1666646Y1157654D01*
X1666675Y1157771D01*
X1666733Y1157946D01*
X1666791Y1158150D01*
X1666820Y1158383D01*
X1666879Y1158938D01*
Y1158967D01*
Y1159025D01*
Y1159142D01*
X1666850Y1159287D01*
X1666791Y1159608D01*
X1666675Y1159987D01*
Y1160016D01*
X1666646Y1160075D01*
X1666587Y1160162D01*
X1666529Y1160308D01*
X1666354Y1160600D01*
X1666121Y1160891D01*
X1666091Y1160920D01*
X1666062Y1160949D01*
X1665975Y1161037D01*
X1665887Y1161095D01*
X1665567Y1161299D01*
X1665188Y1161474D01*
X1665158D01*
X1665100Y1161504D01*
X1664983Y1161562D01*
X1664809Y1161591D01*
X1664633Y1161649D01*
X1664400Y1161678D01*
X1663905Y1161708D01*
X1663613D01*
X1663409Y1161678D01*
X1663176Y1161649D01*
X1662913Y1161591D01*
X1662388Y1161445D01*
X1662359D01*
X1662272Y1161416D01*
X1662155Y1161358D01*
X1661980Y1161299D01*
X1661601Y1161124D01*
X1661193Y1160920D01*
X1661164D01*
X1661105Y1160862D01*
X1661018Y1160804D01*
X1660901Y1160745D01*
X1660609Y1160570D01*
X1660318Y1160395D01*
X1660260Y1160366D01*
X1660114Y1160279D01*
X1659968Y1160191D01*
X1659822Y1160162D01*
X1659764D01*
X1659647Y1160191D01*
X1659589Y1160220D01*
X1659501Y1160308D01*
Y1160337D01*
X1659472Y1160395D01*
Y1160483D01*
X1659443Y1160600D01*
Y1160629D01*
Y1160745D01*
Y1160920D01*
Y1161124D01*
Y1161154D01*
Y1161241D01*
Y1161474D01*
Y1161504D01*
Y1161591D01*
X1659472Y1161766D01*
Y1161795D01*
X1659501Y1161824D01*
X1659589Y1161970D01*
Y1161999D01*
X1659647Y1162057D01*
X1659764Y1162203D01*
X1659793Y1162233D01*
X1659881Y1162320D01*
X1660056Y1162437D01*
X1660318Y1162582D01*
X1660347D01*
X1660405Y1162641D01*
X1660493Y1162670D01*
X1660609Y1162757D01*
X1660901Y1162903D01*
X1661309Y1163078D01*
X1661339D01*
X1661426Y1163136D01*
X1661543Y1163166D01*
X1661718Y1163224D01*
X1661922Y1163311D01*
X1662155Y1163370D01*
X1662680Y1163515D01*
X1662709D01*
X1662826Y1163545D01*
X1662971Y1163574D01*
X1663176Y1163603D01*
X1663438Y1163632D01*
X1663730Y1163661D01*
X1664371Y1163690D01*
X1664575D01*
X1664809Y1163661D01*
D02*
G37*
G36*
X1675947Y1148440D02*
X1676122D01*
X1676501Y1148324D01*
X1676676Y1148236D01*
X1676822Y1148119D01*
X1676851Y1148090D01*
X1676880Y1148061D01*
X1676939Y1147974D01*
X1676997Y1147828D01*
X1677055Y1147653D01*
X1677085Y1147449D01*
X1677143Y1147157D01*
Y1146836D01*
Y1146807D01*
Y1146691D01*
X1677114Y1146516D01*
Y1146312D01*
X1676997Y1145874D01*
X1676909Y1145670D01*
X1676793Y1145524D01*
X1676735Y1145466D01*
X1676647Y1145437D01*
X1676530Y1145378D01*
X1676355Y1145320D01*
X1676151Y1145262D01*
X1675889Y1145233D01*
X1675597Y1145203D01*
X1675452D01*
X1675335Y1145233D01*
X1675160D01*
X1674781Y1145349D01*
X1674606Y1145408D01*
X1674460Y1145524D01*
Y1145553D01*
X1674402Y1145583D01*
X1674373Y1145670D01*
X1674314Y1145816D01*
X1674256Y1145991D01*
X1674198Y1146195D01*
X1674169Y1146487D01*
X1674139Y1146807D01*
Y1146866D01*
Y1146982D01*
X1674169Y1147128D01*
Y1147332D01*
X1674285Y1147769D01*
X1674344Y1147974D01*
X1674460Y1148119D01*
X1674489Y1148149D01*
X1674518Y1148178D01*
X1674606Y1148236D01*
X1674723Y1148294D01*
X1674897Y1148353D01*
X1675102Y1148411D01*
X1675364Y1148469D01*
X1675802D01*
X1675947Y1148440D01*
D02*
G37*
G36*
X1548784Y1163486D02*
X1548959Y1163457D01*
X1548988D01*
X1549105Y1163428D01*
X1549221Y1163399D01*
X1549338Y1163370D01*
X1549367D01*
X1549426Y1163341D01*
X1549484Y1163311D01*
X1549542Y1163253D01*
X1549571Y1163195D01*
X1549601Y1163049D01*
Y1145670D01*
Y1145641D01*
Y1145612D01*
X1549542Y1145466D01*
X1549484Y1145408D01*
X1549426Y1145378D01*
X1549338Y1145349D01*
X1549309D01*
X1549250Y1145320D01*
X1549105D01*
X1548959Y1145291D01*
X1548930D01*
X1548813Y1145262D01*
X1548609Y1145233D01*
X1548172D01*
X1547997Y1145262D01*
X1547793Y1145291D01*
X1547763D01*
X1547647Y1145320D01*
X1547530D01*
X1547413Y1145349D01*
X1547384D01*
X1547326Y1145378D01*
X1547268Y1145408D01*
X1547209Y1145466D01*
Y1145495D01*
Y1145524D01*
X1547180Y1145670D01*
Y1163049D01*
Y1163078D01*
Y1163107D01*
X1547239Y1163253D01*
Y1163282D01*
X1547297Y1163311D01*
X1547355Y1163341D01*
X1547443Y1163370D01*
X1547472D01*
X1547559Y1163399D01*
X1547676Y1163428D01*
X1547822Y1163457D01*
X1547851D01*
X1547968Y1163486D01*
X1548143Y1163515D01*
X1548580D01*
X1548784Y1163486D01*
D02*
G37*
G36*
X1732646Y1189968D02*
X1732675D01*
X1732792Y1189939D01*
X1732879Y1189910D01*
X1732996Y1189852D01*
X1733025D01*
X1733083Y1189823D01*
X1733141Y1189764D01*
X1733200Y1189706D01*
X1733229Y1189677D01*
X1733258Y1189531D01*
Y1186557D01*
X1736553D01*
X1736670Y1186498D01*
X1736699D01*
X1736728Y1186469D01*
X1736815Y1186323D01*
X1736845Y1186294D01*
X1736874Y1186236D01*
X1736903Y1186149D01*
X1736932Y1186003D01*
Y1185974D01*
X1736961Y1185886D01*
Y1185740D01*
Y1185565D01*
Y1185536D01*
Y1185478D01*
X1736932Y1185303D01*
X1736903Y1185041D01*
X1736815Y1184836D01*
X1736786Y1184807D01*
X1736728Y1184749D01*
X1736641Y1184661D01*
X1736495Y1184632D01*
X1733258D01*
Y1177605D01*
Y1177546D01*
Y1177401D01*
X1733287Y1177168D01*
X1733316Y1176876D01*
X1733346Y1176555D01*
X1733433Y1176234D01*
X1733521Y1175943D01*
X1733637Y1175651D01*
X1733666Y1175622D01*
X1733725Y1175564D01*
X1733812Y1175447D01*
X1733958Y1175330D01*
X1734133Y1175214D01*
X1734366Y1175097D01*
X1734658Y1175039D01*
X1735008Y1175010D01*
X1735212D01*
X1735387Y1175039D01*
X1735591Y1175068D01*
X1735649D01*
X1735737Y1175097D01*
X1735882Y1175155D01*
X1736028Y1175185D01*
X1736057Y1175214D01*
X1736145Y1175243D01*
X1736378Y1175330D01*
X1736407D01*
X1736466Y1175360D01*
X1736611Y1175389D01*
X1736670D01*
X1736757Y1175360D01*
X1736786Y1175330D01*
X1736815Y1175301D01*
X1736845Y1175214D01*
Y1175185D01*
X1736874Y1175155D01*
X1736903Y1175068D01*
X1736932Y1174951D01*
Y1174922D01*
X1736961Y1174835D01*
Y1174718D01*
Y1174543D01*
Y1174514D01*
Y1174485D01*
Y1174310D01*
X1736932Y1174077D01*
X1736903Y1173873D01*
Y1173843D01*
X1736874Y1173756D01*
X1736815Y1173639D01*
X1736728Y1173523D01*
X1736699Y1173493D01*
X1736641Y1173464D01*
X1736524Y1173377D01*
X1736378Y1173318D01*
X1736349D01*
X1736232Y1173289D01*
X1736086Y1173260D01*
X1735882Y1173202D01*
X1735824D01*
X1735708Y1173143D01*
X1735503Y1173114D01*
X1735270Y1173085D01*
X1735212D01*
X1735066Y1173056D01*
X1734862Y1173027D01*
X1734279D01*
X1734045Y1173056D01*
X1733783Y1173085D01*
X1733491Y1173114D01*
X1732937Y1173260D01*
X1732908D01*
X1732821Y1173318D01*
X1732704Y1173377D01*
X1732529Y1173464D01*
X1732150Y1173698D01*
X1731771Y1174047D01*
X1731742Y1174077D01*
X1731713Y1174135D01*
X1731625Y1174252D01*
X1731538Y1174397D01*
X1731421Y1174602D01*
X1731304Y1174835D01*
X1731217Y1175068D01*
X1731129Y1175360D01*
Y1175389D01*
X1731100Y1175505D01*
X1731071Y1175680D01*
X1731042Y1175914D01*
X1731013Y1176176D01*
X1730984Y1176526D01*
X1730954Y1176876D01*
Y1177284D01*
Y1184632D01*
X1729147D01*
X1729059Y1184661D01*
X1728943Y1184720D01*
X1728855Y1184836D01*
X1728826Y1184895D01*
X1728797Y1185011D01*
X1728768Y1185245D01*
X1728738Y1185565D01*
Y1185624D01*
Y1185711D01*
Y1185857D01*
X1728768Y1186003D01*
Y1186032D01*
X1728797Y1186119D01*
X1728826Y1186236D01*
X1728855Y1186323D01*
Y1186353D01*
X1728884Y1186382D01*
X1729001Y1186498D01*
X1729030D01*
X1729059Y1186528D01*
X1729205Y1186557D01*
X1730954D01*
Y1189531D01*
Y1189560D01*
Y1189589D01*
X1730984Y1189706D01*
Y1189735D01*
X1731042Y1189764D01*
X1731159Y1189852D01*
X1731188Y1189881D01*
X1731246Y1189910D01*
X1731363Y1189939D01*
X1731509Y1189968D01*
X1731538D01*
X1731684Y1189997D01*
X1732471D01*
X1732646Y1189968D01*
D02*
G37*
G36*
X1646597D02*
X1646626D01*
X1646743Y1189939D01*
X1646830Y1189910D01*
X1646947Y1189852D01*
X1646976D01*
X1647034Y1189823D01*
X1647093Y1189764D01*
X1647151Y1189706D01*
X1647180Y1189677D01*
X1647209Y1189531D01*
Y1186557D01*
X1650504D01*
X1650621Y1186498D01*
X1650650D01*
X1650679Y1186469D01*
X1650767Y1186323D01*
X1650796Y1186294D01*
X1650825Y1186236D01*
X1650854Y1186149D01*
X1650883Y1186003D01*
Y1185974D01*
X1650912Y1185886D01*
Y1185740D01*
Y1185565D01*
Y1185536D01*
Y1185478D01*
X1650883Y1185303D01*
X1650854Y1185041D01*
X1650767Y1184836D01*
X1650738Y1184807D01*
X1650679Y1184749D01*
X1650592Y1184661D01*
X1650446Y1184632D01*
X1647209D01*
Y1177605D01*
Y1177546D01*
Y1177401D01*
X1647238Y1177168D01*
X1647268Y1176876D01*
X1647297Y1176555D01*
X1647384Y1176234D01*
X1647472Y1175943D01*
X1647588Y1175651D01*
X1647617Y1175622D01*
X1647676Y1175564D01*
X1647763Y1175447D01*
X1647909Y1175330D01*
X1648084Y1175214D01*
X1648317Y1175097D01*
X1648609Y1175039D01*
X1648959Y1175010D01*
X1649163D01*
X1649338Y1175039D01*
X1649542Y1175068D01*
X1649600D01*
X1649688Y1175097D01*
X1649834Y1175155D01*
X1649979Y1175185D01*
X1650009Y1175214D01*
X1650096Y1175243D01*
X1650329Y1175330D01*
X1650358D01*
X1650417Y1175360D01*
X1650563Y1175389D01*
X1650621D01*
X1650708Y1175360D01*
X1650738Y1175330D01*
X1650767Y1175301D01*
X1650796Y1175214D01*
Y1175185D01*
X1650825Y1175155D01*
X1650854Y1175068D01*
X1650883Y1174951D01*
Y1174922D01*
X1650912Y1174835D01*
Y1174718D01*
Y1174543D01*
Y1174514D01*
Y1174485D01*
Y1174310D01*
X1650883Y1174077D01*
X1650854Y1173873D01*
Y1173843D01*
X1650825Y1173756D01*
X1650767Y1173639D01*
X1650679Y1173523D01*
X1650650Y1173493D01*
X1650592Y1173464D01*
X1650475Y1173377D01*
X1650329Y1173318D01*
X1650300D01*
X1650184Y1173289D01*
X1650038Y1173260D01*
X1649834Y1173202D01*
X1649775D01*
X1649659Y1173143D01*
X1649455Y1173114D01*
X1649221Y1173085D01*
X1649163D01*
X1649017Y1173056D01*
X1648813Y1173027D01*
X1648230D01*
X1647997Y1173056D01*
X1647734Y1173085D01*
X1647443Y1173114D01*
X1646889Y1173260D01*
X1646859D01*
X1646772Y1173318D01*
X1646655Y1173377D01*
X1646480Y1173464D01*
X1646101Y1173698D01*
X1645722Y1174047D01*
X1645693Y1174077D01*
X1645664Y1174135D01*
X1645576Y1174252D01*
X1645489Y1174397D01*
X1645372Y1174602D01*
X1645256Y1174835D01*
X1645168Y1175068D01*
X1645081Y1175360D01*
Y1175389D01*
X1645052Y1175505D01*
X1645022Y1175680D01*
X1644993Y1175914D01*
X1644964Y1176176D01*
X1644935Y1176526D01*
X1644906Y1176876D01*
Y1177284D01*
Y1184632D01*
X1643098D01*
X1643010Y1184661D01*
X1642894Y1184720D01*
X1642806Y1184836D01*
X1642777Y1184895D01*
X1642748Y1185011D01*
X1642719Y1185245D01*
X1642690Y1185565D01*
Y1185624D01*
Y1185711D01*
Y1185857D01*
X1642719Y1186003D01*
Y1186032D01*
X1642748Y1186119D01*
X1642777Y1186236D01*
X1642806Y1186323D01*
Y1186353D01*
X1642835Y1186382D01*
X1642952Y1186498D01*
X1642981D01*
X1643010Y1186528D01*
X1643156Y1186557D01*
X1644906D01*
Y1189531D01*
Y1189560D01*
Y1189589D01*
X1644935Y1189706D01*
Y1189735D01*
X1644993Y1189764D01*
X1645110Y1189852D01*
X1645139Y1189881D01*
X1645197Y1189910D01*
X1645314Y1189939D01*
X1645460Y1189968D01*
X1645489D01*
X1645635Y1189997D01*
X1646422D01*
X1646597Y1189968D01*
D02*
G37*
G36*
X1683600Y1186819D02*
X1683950Y1186761D01*
X1683979D01*
X1684037Y1186732D01*
X1684125D01*
X1684271Y1186702D01*
X1684562Y1186615D01*
X1684883Y1186528D01*
X1684912D01*
X1684941Y1186498D01*
X1685116Y1186440D01*
X1685349Y1186382D01*
X1685554Y1186265D01*
X1685612Y1186236D01*
X1685729Y1186178D01*
X1685874Y1186090D01*
X1685991Y1186003D01*
X1686020D01*
X1686078Y1185944D01*
X1686137Y1185886D01*
X1686195Y1185828D01*
X1686224Y1185769D01*
X1686254Y1185624D01*
Y1185594D01*
X1686283Y1185565D01*
Y1185478D01*
X1686312Y1185361D01*
Y1185332D01*
X1686341Y1185274D01*
Y1185157D01*
Y1185011D01*
Y1184982D01*
Y1184865D01*
Y1184720D01*
X1686312Y1184574D01*
Y1184545D01*
X1686283Y1184486D01*
X1686224Y1184282D01*
X1686195Y1184224D01*
X1686108Y1184137D01*
X1686078D01*
X1685962Y1184107D01*
X1685933D01*
X1685874Y1184137D01*
X1685758Y1184166D01*
X1685583Y1184253D01*
X1685554Y1184282D01*
X1685408Y1184341D01*
X1685233Y1184457D01*
X1684971Y1184574D01*
X1684941D01*
X1684912Y1184603D01*
X1684737Y1184690D01*
X1684446Y1184778D01*
X1684096Y1184895D01*
X1684066D01*
X1684008Y1184924D01*
X1683892Y1184953D01*
X1683775Y1184982D01*
X1683600Y1185011D01*
X1683396Y1185041D01*
X1682929Y1185070D01*
X1682725D01*
X1682579Y1185041D01*
X1682229Y1185011D01*
X1681880Y1184924D01*
X1681850D01*
X1681821Y1184895D01*
X1681617Y1184807D01*
X1681384Y1184690D01*
X1681151Y1184516D01*
X1681122Y1184486D01*
X1681005Y1184370D01*
X1680859Y1184166D01*
X1680742Y1183932D01*
X1680713Y1183874D01*
X1680684Y1183728D01*
X1680626Y1183495D01*
X1680597Y1183233D01*
Y1183203D01*
Y1183145D01*
X1680626Y1183028D01*
Y1182912D01*
X1680713Y1182620D01*
X1680859Y1182299D01*
Y1182270D01*
X1680917Y1182241D01*
X1681063Y1182066D01*
X1681296Y1181862D01*
X1681588Y1181629D01*
X1681617D01*
X1681676Y1181600D01*
X1681763Y1181541D01*
X1681880Y1181483D01*
X1682200Y1181308D01*
X1682609Y1181133D01*
X1682638D01*
X1682696Y1181104D01*
X1682813Y1181046D01*
X1682988Y1181016D01*
X1683338Y1180871D01*
X1683775Y1180696D01*
X1683804D01*
X1683862Y1180667D01*
X1683979Y1180608D01*
X1684154Y1180550D01*
X1684504Y1180375D01*
X1684941Y1180142D01*
X1684971D01*
X1685029Y1180083D01*
X1685145Y1180025D01*
X1685291Y1179938D01*
X1685612Y1179734D01*
X1685962Y1179442D01*
X1685991Y1179413D01*
X1686049Y1179384D01*
X1686137Y1179267D01*
X1686224Y1179150D01*
X1686458Y1178829D01*
X1686691Y1178421D01*
Y1178392D01*
X1686749Y1178305D01*
X1686778Y1178188D01*
X1686837Y1178042D01*
X1686895Y1177838D01*
X1686924Y1177576D01*
X1686983Y1177313D01*
Y1177022D01*
Y1176992D01*
Y1176847D01*
X1686953Y1176672D01*
X1686924Y1176439D01*
X1686895Y1176176D01*
X1686837Y1175884D01*
X1686720Y1175593D01*
X1686603Y1175301D01*
X1686574Y1175272D01*
X1686545Y1175185D01*
X1686458Y1175039D01*
X1686341Y1174864D01*
X1686195Y1174660D01*
X1686020Y1174456D01*
X1685816Y1174222D01*
X1685583Y1174018D01*
X1685554Y1173989D01*
X1685466Y1173931D01*
X1685320Y1173843D01*
X1685145Y1173727D01*
X1684912Y1173610D01*
X1684650Y1173493D01*
X1684358Y1173377D01*
X1684008Y1173260D01*
X1683979D01*
X1683862Y1173231D01*
X1683658Y1173173D01*
X1683425Y1173143D01*
X1683133Y1173085D01*
X1682784Y1173027D01*
X1682434Y1172998D01*
X1681792D01*
X1681617Y1173027D01*
X1681209Y1173056D01*
X1680742Y1173114D01*
X1680713D01*
X1680626Y1173143D01*
X1680509Y1173173D01*
X1680363Y1173202D01*
X1680013Y1173260D01*
X1679634Y1173348D01*
X1679605D01*
X1679547Y1173377D01*
X1679459Y1173406D01*
X1679372Y1173435D01*
X1679080Y1173552D01*
X1678818Y1173668D01*
X1678760Y1173698D01*
X1678643Y1173785D01*
X1678468Y1173873D01*
X1678322Y1173989D01*
X1678293Y1174018D01*
X1678235Y1174106D01*
X1678176Y1174222D01*
X1678118Y1174368D01*
Y1174426D01*
X1678089Y1174543D01*
X1678060Y1174776D01*
Y1175068D01*
Y1175126D01*
Y1175214D01*
Y1175360D01*
Y1175505D01*
Y1175535D01*
X1678089Y1175622D01*
X1678118Y1175797D01*
Y1175826D01*
X1678147Y1175855D01*
X1678264Y1175972D01*
X1678293D01*
X1678322Y1176001D01*
X1678439Y1176030D01*
X1678468D01*
X1678555Y1176001D01*
X1678672Y1175943D01*
X1678876Y1175826D01*
X1678905D01*
X1678934Y1175797D01*
X1679080Y1175710D01*
X1679343Y1175593D01*
X1679634Y1175418D01*
X1679664D01*
X1679722Y1175389D01*
X1679809Y1175330D01*
X1679926Y1175272D01*
X1680276Y1175155D01*
X1680684Y1175010D01*
X1680713D01*
X1680801Y1174980D01*
X1680917Y1174951D01*
X1681092Y1174922D01*
X1681296Y1174893D01*
X1681530Y1174864D01*
X1682084Y1174835D01*
X1682288D01*
X1682434Y1174864D01*
X1682784Y1174893D01*
X1683133Y1174951D01*
X1683163D01*
X1683221Y1174980D01*
X1683308Y1175010D01*
X1683425Y1175039D01*
X1683687Y1175155D01*
X1683950Y1175301D01*
X1683979D01*
X1684008Y1175360D01*
X1684154Y1175476D01*
X1684358Y1175680D01*
X1684504Y1175943D01*
Y1175972D01*
X1684533Y1176001D01*
X1684562Y1176089D01*
X1684621Y1176205D01*
X1684679Y1176497D01*
X1684708Y1176847D01*
Y1176876D01*
Y1176934D01*
Y1177022D01*
X1684679Y1177168D01*
X1684591Y1177430D01*
X1684416Y1177721D01*
Y1177751D01*
X1684358Y1177780D01*
X1684241Y1177955D01*
X1684008Y1178159D01*
X1683687Y1178392D01*
X1683658D01*
X1683600Y1178450D01*
X1683513Y1178509D01*
X1683396Y1178567D01*
X1683075Y1178713D01*
X1682696Y1178888D01*
X1682667D01*
X1682609Y1178917D01*
X1682492Y1178975D01*
X1682346Y1179034D01*
X1681967Y1179150D01*
X1681530Y1179325D01*
X1681501D01*
X1681442Y1179384D01*
X1681326Y1179413D01*
X1681180Y1179500D01*
X1680801Y1179675D01*
X1680363Y1179879D01*
X1680334D01*
X1680276Y1179938D01*
X1680159Y1179996D01*
X1680043Y1180083D01*
X1679693Y1180317D01*
X1679343Y1180608D01*
X1679314Y1180637D01*
X1679284Y1180696D01*
X1679197Y1180783D01*
X1679080Y1180900D01*
X1678876Y1181221D01*
X1678643Y1181629D01*
Y1181658D01*
X1678614Y1181746D01*
X1678555Y1181862D01*
X1678526Y1182037D01*
X1678468Y1182241D01*
X1678410Y1182504D01*
X1678380Y1182795D01*
Y1183087D01*
Y1183116D01*
Y1183203D01*
X1678410Y1183349D01*
Y1183553D01*
X1678439Y1183757D01*
X1678497Y1184020D01*
X1678643Y1184516D01*
X1678672Y1184545D01*
X1678701Y1184632D01*
X1678760Y1184749D01*
X1678876Y1184924D01*
X1679139Y1185303D01*
X1679518Y1185682D01*
X1679547Y1185711D01*
X1679634Y1185769D01*
X1679751Y1185857D01*
X1679926Y1185974D01*
X1680130Y1186119D01*
X1680363Y1186265D01*
X1680655Y1186411D01*
X1680947Y1186528D01*
X1680976Y1186557D01*
X1681092Y1186586D01*
X1681296Y1186644D01*
X1681530Y1186702D01*
X1681821Y1186761D01*
X1682171Y1186790D01*
X1682550Y1186848D01*
X1683279D01*
X1683600Y1186819D01*
D02*
G37*
G36*
X1579006Y1191426D02*
X1579181Y1191397D01*
X1579210D01*
X1579327Y1191368D01*
X1579414Y1191339D01*
X1579531Y1191310D01*
X1579560D01*
X1579618Y1191281D01*
X1579677Y1191251D01*
X1579735Y1191193D01*
X1579764D01*
X1579793Y1191135D01*
X1579822Y1191076D01*
Y1190989D01*
Y1179938D01*
Y1179908D01*
Y1179850D01*
Y1179763D01*
Y1179646D01*
X1579793Y1179354D01*
X1579764Y1178946D01*
X1579706Y1178480D01*
X1579618Y1177984D01*
X1579502Y1177488D01*
X1579327Y1176992D01*
X1579297Y1176934D01*
X1579239Y1176788D01*
X1579123Y1176526D01*
X1578977Y1176234D01*
X1578773Y1175884D01*
X1578539Y1175535D01*
X1578248Y1175155D01*
X1577927Y1174806D01*
X1577898Y1174776D01*
X1577781Y1174660D01*
X1577577Y1174485D01*
X1577344Y1174310D01*
X1577023Y1174077D01*
X1576644Y1173843D01*
X1576236Y1173639D01*
X1575769Y1173435D01*
X1575711Y1173406D01*
X1575536Y1173377D01*
X1575274Y1173289D01*
X1574924Y1173231D01*
X1574486Y1173143D01*
X1573991Y1173056D01*
X1573436Y1173027D01*
X1572824Y1172998D01*
X1572562D01*
X1572299Y1173027D01*
X1571920Y1173056D01*
X1571512Y1173085D01*
X1571046Y1173173D01*
X1570579Y1173260D01*
X1570112Y1173406D01*
X1570054Y1173435D01*
X1569908Y1173493D01*
X1569675Y1173581D01*
X1569383Y1173727D01*
X1569063Y1173902D01*
X1568713Y1174135D01*
X1568334Y1174397D01*
X1567984Y1174689D01*
X1567955Y1174718D01*
X1567838Y1174835D01*
X1567692Y1175039D01*
X1567488Y1175272D01*
X1567284Y1175593D01*
X1567051Y1175943D01*
X1566846Y1176351D01*
X1566642Y1176818D01*
Y1176847D01*
X1566613Y1176876D01*
X1566584Y1177051D01*
X1566497Y1177313D01*
X1566409Y1177663D01*
X1566322Y1178101D01*
X1566263Y1178596D01*
X1566205Y1179150D01*
X1566176Y1179763D01*
Y1190989D01*
Y1191018D01*
Y1191047D01*
X1566205Y1191193D01*
Y1191222D01*
X1566263Y1191251D01*
X1566322Y1191281D01*
X1566409Y1191310D01*
X1566438D01*
X1566497Y1191339D01*
X1566613Y1191368D01*
X1566759Y1191397D01*
X1566788D01*
X1566934Y1191426D01*
X1567109Y1191456D01*
X1567576D01*
X1567751Y1191426D01*
X1567925Y1191397D01*
X1567984D01*
X1568071Y1191368D01*
X1568188Y1191339D01*
X1568304Y1191310D01*
X1568334D01*
X1568392Y1191281D01*
X1568450Y1191251D01*
X1568509Y1191193D01*
X1568538Y1191135D01*
X1568567Y1190989D01*
Y1180054D01*
Y1179996D01*
Y1179850D01*
X1568596Y1179617D01*
Y1179325D01*
X1568625Y1178975D01*
X1568684Y1178596D01*
X1568771Y1178217D01*
X1568858Y1177867D01*
X1568888Y1177838D01*
X1568917Y1177721D01*
X1569004Y1177546D01*
X1569092Y1177313D01*
X1569208Y1177080D01*
X1569354Y1176818D01*
X1569733Y1176293D01*
X1569763Y1176264D01*
X1569850Y1176205D01*
X1569967Y1176089D01*
X1570141Y1175943D01*
X1570346Y1175797D01*
X1570579Y1175651D01*
X1570841Y1175505D01*
X1571133Y1175360D01*
X1571162D01*
X1571279Y1175301D01*
X1571454Y1175272D01*
X1571687Y1175214D01*
X1571949Y1175155D01*
X1572270Y1175126D01*
X1572620Y1175068D01*
X1573174D01*
X1573378Y1175097D01*
X1573641D01*
X1573903Y1175126D01*
X1574224Y1175185D01*
X1574865Y1175360D01*
X1574895Y1175389D01*
X1575011Y1175418D01*
X1575157Y1175505D01*
X1575332Y1175593D01*
X1575798Y1175884D01*
X1576236Y1176293D01*
X1576265Y1176322D01*
X1576323Y1176409D01*
X1576440Y1176526D01*
X1576557Y1176701D01*
X1576702Y1176934D01*
X1576848Y1177197D01*
X1576994Y1177488D01*
X1577111Y1177809D01*
X1577140Y1177838D01*
X1577169Y1177984D01*
X1577227Y1178159D01*
X1577285Y1178421D01*
X1577344Y1178713D01*
X1577373Y1179092D01*
X1577431Y1179500D01*
Y1179938D01*
Y1190989D01*
Y1191018D01*
Y1191047D01*
X1577460Y1191193D01*
Y1191222D01*
X1577519Y1191251D01*
X1577577Y1191281D01*
X1577665Y1191310D01*
X1577694D01*
X1577781Y1191339D01*
X1577898Y1191368D01*
X1578044Y1191397D01*
X1578073D01*
X1578219Y1191426D01*
X1578394Y1191456D01*
X1578831D01*
X1579006Y1191426D01*
D02*
G37*
G36*
X1623911Y1191339D02*
X1624057Y1191281D01*
X1624086D01*
X1624173Y1191222D01*
X1624290Y1191164D01*
X1624407Y1191076D01*
X1624436Y1191047D01*
X1624494Y1190989D01*
X1624582Y1190901D01*
X1624640Y1190756D01*
X1624669Y1190726D01*
X1624698Y1190610D01*
X1624728Y1190464D01*
Y1190260D01*
Y1173610D01*
Y1173581D01*
Y1173552D01*
X1624669Y1173406D01*
X1624611Y1173348D01*
X1624553Y1173318D01*
X1624465Y1173289D01*
X1624436D01*
X1624378Y1173260D01*
X1624232D01*
X1624086Y1173231D01*
X1624057D01*
X1623940Y1173202D01*
X1623736Y1173173D01*
X1623299D01*
X1623124Y1173202D01*
X1622920Y1173231D01*
X1622890D01*
X1622774Y1173260D01*
X1622657D01*
X1622541Y1173289D01*
X1622511D01*
X1622453Y1173318D01*
X1622395Y1173348D01*
X1622336Y1173406D01*
Y1173435D01*
Y1173464D01*
X1622307Y1173610D01*
Y1189385D01*
X1622278D01*
X1615892Y1173523D01*
X1615863Y1173464D01*
X1615776Y1173348D01*
X1615717Y1173318D01*
X1615659Y1173289D01*
X1615572Y1173260D01*
X1615542D01*
X1615484Y1173231D01*
X1615367D01*
X1615222Y1173202D01*
X1615076D01*
X1614930Y1173173D01*
X1614405D01*
X1614230Y1173202D01*
X1614201D01*
X1614114Y1173231D01*
X1613880Y1173260D01*
X1613851D01*
X1613793Y1173289D01*
X1613647Y1173377D01*
Y1173406D01*
X1613618Y1173435D01*
X1613560Y1173523D01*
X1607465Y1189385D01*
Y1173610D01*
Y1173581D01*
Y1173552D01*
X1607407Y1173406D01*
X1607349Y1173348D01*
X1607290Y1173318D01*
X1607203Y1173289D01*
X1607174D01*
X1607115Y1173260D01*
X1606970D01*
X1606824Y1173231D01*
X1606795D01*
X1606649Y1173202D01*
X1606474Y1173173D01*
X1606007D01*
X1605832Y1173202D01*
X1605628Y1173231D01*
X1605599D01*
X1605482Y1173260D01*
X1605366D01*
X1605249Y1173289D01*
X1605220D01*
X1605191Y1173318D01*
X1605074Y1173406D01*
Y1173435D01*
Y1173464D01*
X1605045Y1173610D01*
Y1190260D01*
Y1190289D01*
Y1190347D01*
X1605074Y1190464D01*
Y1190581D01*
X1605162Y1190872D01*
X1605249Y1190989D01*
X1605337Y1191106D01*
X1605366D01*
X1605395Y1191135D01*
X1605541Y1191251D01*
X1605774Y1191339D01*
X1606037Y1191368D01*
X1607786D01*
X1608049Y1191339D01*
X1608311Y1191281D01*
X1608340D01*
X1608369Y1191251D01*
X1608515Y1191222D01*
X1608719Y1191135D01*
X1608923Y1190989D01*
X1608982Y1190960D01*
X1609069Y1190872D01*
X1609215Y1190726D01*
X1609332Y1190522D01*
X1609361Y1190464D01*
X1609448Y1190347D01*
X1609536Y1190143D01*
X1609652Y1189881D01*
X1614813Y1176759D01*
X1614872D01*
X1620237Y1189852D01*
Y1189881D01*
X1620266Y1189910D01*
X1620354Y1190085D01*
X1620470Y1190318D01*
X1620587Y1190552D01*
X1620616Y1190610D01*
X1620704Y1190726D01*
X1620849Y1190872D01*
X1620995Y1191018D01*
X1621024Y1191047D01*
X1621141Y1191106D01*
X1621316Y1191193D01*
X1621491Y1191281D01*
X1621549Y1191310D01*
X1621666Y1191339D01*
X1621870Y1191368D01*
X1623795D01*
X1623911Y1191339D01*
D02*
G37*
G36*
X1595656Y1191310D02*
X1595685D01*
X1595714Y1191251D01*
X1595743Y1191193D01*
X1595802Y1191106D01*
X1595831Y1191076D01*
X1595860Y1191018D01*
X1595889Y1190931D01*
X1595918Y1190785D01*
Y1190756D01*
X1595947Y1190639D01*
Y1190493D01*
Y1190318D01*
Y1190289D01*
Y1190173D01*
Y1189997D01*
X1595918Y1189852D01*
Y1189823D01*
X1595889Y1189735D01*
X1595860Y1189618D01*
X1595802Y1189531D01*
Y1189502D01*
X1595773Y1189473D01*
X1595656Y1189356D01*
X1595598D01*
X1595452Y1189327D01*
X1590378D01*
Y1173610D01*
Y1173581D01*
Y1173552D01*
X1590320Y1173406D01*
X1590261Y1173348D01*
X1590203Y1173318D01*
X1590116Y1173289D01*
X1590086D01*
X1590028Y1173260D01*
X1589882D01*
X1589736Y1173231D01*
X1589707D01*
X1589591Y1173202D01*
X1589387Y1173173D01*
X1588949D01*
X1588774Y1173202D01*
X1588570Y1173231D01*
X1588541D01*
X1588424Y1173260D01*
X1588308D01*
X1588191Y1173289D01*
X1588162D01*
X1588104Y1173318D01*
X1588045Y1173348D01*
X1587987Y1173406D01*
Y1173435D01*
Y1173464D01*
X1587958Y1173610D01*
Y1189327D01*
X1582797D01*
X1582651Y1189356D01*
X1582592Y1189414D01*
X1582505Y1189531D01*
Y1189560D01*
X1582476Y1189618D01*
X1582447Y1189706D01*
X1582418Y1189852D01*
Y1189881D01*
Y1189997D01*
X1582388Y1190143D01*
Y1190318D01*
Y1190377D01*
Y1190464D01*
Y1190639D01*
X1582418Y1190785D01*
Y1190814D01*
X1582447Y1190901D01*
X1582476Y1191018D01*
X1582505Y1191106D01*
Y1191135D01*
X1582534Y1191193D01*
X1582592Y1191251D01*
X1582651Y1191310D01*
X1582680D01*
X1582709Y1191339D01*
X1582855Y1191368D01*
X1595510D01*
X1595656Y1191310D01*
D02*
G37*
G36*
X1674969Y1186819D02*
X1674998D01*
X1675115Y1186790D01*
X1675260Y1186761D01*
X1675435Y1186732D01*
X1675494D01*
X1675581Y1186702D01*
X1675756Y1186644D01*
X1675902Y1186586D01*
X1675931D01*
X1676019Y1186557D01*
X1676106Y1186528D01*
X1676194Y1186469D01*
X1676223D01*
X1676252Y1186440D01*
X1676310Y1186323D01*
X1676339Y1186294D01*
Y1186178D01*
Y1186149D01*
X1676369Y1186119D01*
Y1186032D01*
Y1185886D01*
Y1185857D01*
X1676398Y1185769D01*
Y1185594D01*
Y1185390D01*
Y1185332D01*
Y1185215D01*
Y1185041D01*
X1676369Y1184865D01*
Y1184836D01*
Y1184749D01*
X1676310Y1184516D01*
Y1184486D01*
X1676281Y1184457D01*
X1676194Y1184341D01*
X1676164Y1184312D01*
X1676048Y1184282D01*
X1675960D01*
X1675873Y1184312D01*
X1675756Y1184341D01*
X1675727D01*
X1675669Y1184370D01*
X1675552Y1184428D01*
X1675406Y1184457D01*
X1675377Y1184486D01*
X1675260Y1184516D01*
X1675115Y1184545D01*
X1674940Y1184603D01*
X1674910D01*
X1674794Y1184632D01*
X1674619Y1184661D01*
X1674327D01*
X1674182Y1184632D01*
X1673948Y1184603D01*
X1673686Y1184516D01*
X1673627Y1184486D01*
X1673482Y1184399D01*
X1673248Y1184253D01*
X1672986Y1184049D01*
X1672957D01*
X1672928Y1183991D01*
X1672753Y1183816D01*
X1672520Y1183553D01*
X1672228Y1183174D01*
X1672199Y1183145D01*
X1672170Y1183087D01*
X1672082Y1182970D01*
X1671965Y1182824D01*
X1671849Y1182620D01*
X1671674Y1182416D01*
X1671353Y1181891D01*
Y1173581D01*
Y1173523D01*
X1671295Y1173406D01*
X1671237Y1173348D01*
X1671178Y1173318D01*
X1671091Y1173260D01*
X1671062D01*
X1671003Y1173231D01*
X1670887D01*
X1670741Y1173202D01*
X1670595D01*
X1670420Y1173173D01*
X1669808D01*
X1669604Y1173202D01*
X1669574D01*
X1669487Y1173231D01*
X1669254Y1173260D01*
X1669225D01*
X1669195Y1173289D01*
X1669079Y1173406D01*
Y1173435D01*
Y1173464D01*
X1669050Y1173581D01*
Y1186207D01*
Y1186236D01*
Y1186265D01*
X1669079Y1186382D01*
Y1186411D01*
X1669108Y1186440D01*
X1669166Y1186469D01*
X1669225Y1186528D01*
X1669254D01*
X1669312Y1186557D01*
X1669429Y1186586D01*
X1669545Y1186615D01*
X1669574D01*
X1669691Y1186644D01*
X1670420D01*
X1670595Y1186615D01*
X1670624D01*
X1670712Y1186586D01*
X1670799Y1186557D01*
X1670887Y1186528D01*
X1670916D01*
X1670945Y1186498D01*
X1671062Y1186382D01*
X1671091Y1186323D01*
X1671120Y1186207D01*
Y1184370D01*
X1671149Y1184399D01*
X1671207Y1184486D01*
X1671324Y1184632D01*
X1671441Y1184807D01*
X1671761Y1185215D01*
X1672082Y1185594D01*
X1672111Y1185624D01*
X1672170Y1185682D01*
X1672257Y1185769D01*
X1672374Y1185857D01*
X1672636Y1186090D01*
X1672957Y1186323D01*
X1672986D01*
X1673015Y1186382D01*
X1673219Y1186498D01*
X1673453Y1186615D01*
X1673744Y1186732D01*
X1673773D01*
X1673802Y1186761D01*
X1674007Y1186790D01*
X1674269Y1186819D01*
X1674561Y1186848D01*
X1674794D01*
X1674969Y1186819D01*
D02*
G37*
G36*
X1660039D02*
X1660389Y1186790D01*
X1660827Y1186732D01*
X1661264Y1186644D01*
X1661731Y1186528D01*
X1662168Y1186382D01*
X1662226Y1186353D01*
X1662372Y1186294D01*
X1662576Y1186178D01*
X1662839Y1186032D01*
X1663159Y1185857D01*
X1663480Y1185594D01*
X1663801Y1185332D01*
X1664093Y1185011D01*
X1664122Y1184982D01*
X1664209Y1184865D01*
X1664355Y1184661D01*
X1664530Y1184428D01*
X1664734Y1184107D01*
X1664909Y1183757D01*
X1665113Y1183349D01*
X1665259Y1182883D01*
X1665288Y1182824D01*
X1665317Y1182649D01*
X1665376Y1182416D01*
X1665463Y1182066D01*
X1665550Y1181629D01*
X1665609Y1181162D01*
X1665638Y1180637D01*
X1665667Y1180054D01*
Y1180025D01*
Y1179996D01*
Y1179908D01*
Y1179792D01*
X1665638Y1179500D01*
X1665609Y1179121D01*
X1665580Y1178684D01*
X1665492Y1178188D01*
X1665405Y1177692D01*
X1665259Y1177197D01*
X1665230Y1177138D01*
X1665171Y1176992D01*
X1665084Y1176730D01*
X1664967Y1176439D01*
X1664792Y1176089D01*
X1664559Y1175710D01*
X1664326Y1175330D01*
X1664034Y1174980D01*
X1664005Y1174951D01*
X1663888Y1174835D01*
X1663713Y1174660D01*
X1663480Y1174456D01*
X1663188Y1174222D01*
X1662839Y1173960D01*
X1662430Y1173727D01*
X1661993Y1173523D01*
X1661935Y1173493D01*
X1661789Y1173435D01*
X1661526Y1173348D01*
X1661206Y1173260D01*
X1660797Y1173173D01*
X1660331Y1173085D01*
X1659806Y1173027D01*
X1659223Y1172998D01*
X1658961D01*
X1658669Y1173027D01*
X1658290Y1173056D01*
X1657852Y1173114D01*
X1657415Y1173173D01*
X1656949Y1173289D01*
X1656482Y1173435D01*
X1656424Y1173464D01*
X1656307Y1173523D01*
X1656074Y1173639D01*
X1655811Y1173785D01*
X1655520Y1173960D01*
X1655199Y1174193D01*
X1654878Y1174456D01*
X1654557Y1174776D01*
X1654528Y1174806D01*
X1654441Y1174951D01*
X1654295Y1175126D01*
X1654120Y1175389D01*
X1653945Y1175710D01*
X1653770Y1176059D01*
X1653566Y1176497D01*
X1653420Y1176934D01*
Y1176963D01*
Y1176992D01*
X1653362Y1177168D01*
X1653304Y1177430D01*
X1653245Y1177751D01*
X1653187Y1178188D01*
X1653129Y1178684D01*
X1653100Y1179209D01*
X1653070Y1179792D01*
Y1179821D01*
Y1179850D01*
Y1179938D01*
Y1180054D01*
X1653100Y1180346D01*
X1653129Y1180725D01*
X1653158Y1181162D01*
X1653245Y1181629D01*
X1653333Y1182124D01*
X1653449Y1182620D01*
Y1182649D01*
X1653479Y1182679D01*
X1653537Y1182853D01*
X1653624Y1183087D01*
X1653741Y1183408D01*
X1653916Y1183757D01*
X1654120Y1184137D01*
X1654382Y1184516D01*
X1654645Y1184865D01*
X1654674Y1184895D01*
X1654791Y1185011D01*
X1654966Y1185186D01*
X1655199Y1185390D01*
X1655491Y1185624D01*
X1655840Y1185886D01*
X1656219Y1186119D01*
X1656657Y1186323D01*
X1656715Y1186353D01*
X1656861Y1186411D01*
X1657123Y1186498D01*
X1657473Y1186586D01*
X1657882Y1186673D01*
X1658377Y1186761D01*
X1658902Y1186819D01*
X1659485Y1186848D01*
X1659748D01*
X1660039Y1186819D01*
D02*
G37*
G36*
X1635341D02*
X1635691Y1186790D01*
X1636129Y1186732D01*
X1636566Y1186644D01*
X1637033Y1186528D01*
X1637470Y1186382D01*
X1637528Y1186353D01*
X1637674Y1186294D01*
X1637878Y1186178D01*
X1638141Y1186032D01*
X1638461Y1185857D01*
X1638782Y1185594D01*
X1639103Y1185332D01*
X1639395Y1185011D01*
X1639424Y1184982D01*
X1639511Y1184865D01*
X1639657Y1184661D01*
X1639832Y1184428D01*
X1640036Y1184107D01*
X1640211Y1183757D01*
X1640415Y1183349D01*
X1640561Y1182883D01*
X1640590Y1182824D01*
X1640619Y1182649D01*
X1640678Y1182416D01*
X1640765Y1182066D01*
X1640853Y1181629D01*
X1640911Y1181162D01*
X1640940Y1180637D01*
X1640969Y1180054D01*
Y1180025D01*
Y1179996D01*
Y1179908D01*
Y1179792D01*
X1640940Y1179500D01*
X1640911Y1179121D01*
X1640882Y1178684D01*
X1640794Y1178188D01*
X1640707Y1177692D01*
X1640561Y1177197D01*
X1640532Y1177138D01*
X1640473Y1176992D01*
X1640386Y1176730D01*
X1640269Y1176439D01*
X1640094Y1176089D01*
X1639861Y1175710D01*
X1639628Y1175330D01*
X1639336Y1174980D01*
X1639307Y1174951D01*
X1639191Y1174835D01*
X1639016Y1174660D01*
X1638782Y1174456D01*
X1638491Y1174222D01*
X1638141Y1173960D01*
X1637733Y1173727D01*
X1637295Y1173523D01*
X1637237Y1173493D01*
X1637091Y1173435D01*
X1636829Y1173348D01*
X1636508Y1173260D01*
X1636100Y1173173D01*
X1635633Y1173085D01*
X1635108Y1173027D01*
X1634525Y1172998D01*
X1634263D01*
X1633971Y1173027D01*
X1633592Y1173056D01*
X1633155Y1173114D01*
X1632717Y1173173D01*
X1632251Y1173289D01*
X1631784Y1173435D01*
X1631726Y1173464D01*
X1631609Y1173523D01*
X1631376Y1173639D01*
X1631113Y1173785D01*
X1630822Y1173960D01*
X1630501Y1174193D01*
X1630180Y1174456D01*
X1629860Y1174776D01*
X1629830Y1174806D01*
X1629743Y1174951D01*
X1629597Y1175126D01*
X1629422Y1175389D01*
X1629247Y1175710D01*
X1629072Y1176059D01*
X1628868Y1176497D01*
X1628722Y1176934D01*
Y1176963D01*
Y1176992D01*
X1628664Y1177168D01*
X1628606Y1177430D01*
X1628547Y1177751D01*
X1628489Y1178188D01*
X1628431Y1178684D01*
X1628402Y1179209D01*
X1628372Y1179792D01*
Y1179821D01*
Y1179850D01*
Y1179938D01*
Y1180054D01*
X1628402Y1180346D01*
X1628431Y1180725D01*
X1628460Y1181162D01*
X1628547Y1181629D01*
X1628635Y1182124D01*
X1628752Y1182620D01*
Y1182649D01*
X1628781Y1182679D01*
X1628839Y1182853D01*
X1628927Y1183087D01*
X1629043Y1183408D01*
X1629218Y1183757D01*
X1629422Y1184137D01*
X1629685Y1184516D01*
X1629947Y1184865D01*
X1629976Y1184895D01*
X1630093Y1185011D01*
X1630268Y1185186D01*
X1630501Y1185390D01*
X1630793Y1185624D01*
X1631143Y1185886D01*
X1631522Y1186119D01*
X1631959Y1186323D01*
X1632017Y1186353D01*
X1632163Y1186411D01*
X1632426Y1186498D01*
X1632776Y1186586D01*
X1633184Y1186673D01*
X1633679Y1186761D01*
X1634204Y1186819D01*
X1634787Y1186848D01*
X1635050D01*
X1635341Y1186819D01*
D02*
G37*
G36*
X1554658Y1191601D02*
X1554862D01*
X1555329Y1191543D01*
X1555853Y1191485D01*
X1556437Y1191368D01*
X1557020Y1191222D01*
X1557574Y1191018D01*
X1557603D01*
X1557632Y1190989D01*
X1557836Y1190901D01*
X1558099Y1190756D01*
X1558449Y1190581D01*
X1558828Y1190318D01*
X1559236Y1189997D01*
X1559673Y1189648D01*
X1560052Y1189239D01*
X1560111Y1189181D01*
X1560227Y1189035D01*
X1560402Y1188802D01*
X1560636Y1188452D01*
X1560869Y1188044D01*
X1561131Y1187577D01*
X1561365Y1187023D01*
X1561569Y1186411D01*
Y1186382D01*
X1561598Y1186323D01*
X1561627Y1186236D01*
X1561656Y1186119D01*
X1561685Y1185944D01*
X1561744Y1185769D01*
X1561831Y1185303D01*
X1561919Y1184720D01*
X1562006Y1184049D01*
X1562064Y1183320D01*
X1562094Y1182533D01*
Y1182474D01*
Y1182329D01*
Y1182124D01*
X1562064Y1181833D01*
Y1181512D01*
X1562035Y1181133D01*
X1561948Y1180346D01*
Y1180287D01*
X1561919Y1180171D01*
X1561889Y1179967D01*
X1561831Y1179734D01*
X1561773Y1179413D01*
X1561714Y1179092D01*
X1561510Y1178392D01*
Y1178363D01*
X1561452Y1178246D01*
X1561394Y1178042D01*
X1561335Y1177838D01*
X1561219Y1177576D01*
X1561102Y1177284D01*
X1560811Y1176672D01*
X1560781Y1176643D01*
X1560723Y1176555D01*
X1560636Y1176409D01*
X1560519Y1176205D01*
X1560373Y1176001D01*
X1560198Y1175768D01*
X1559790Y1175272D01*
X1559848Y1175243D01*
X1559965Y1175126D01*
X1560140Y1174980D01*
X1560402Y1174806D01*
X1560665Y1174572D01*
X1560986Y1174368D01*
X1561277Y1174164D01*
X1561569Y1173960D01*
X1561598Y1173931D01*
X1561685Y1173873D01*
X1561831Y1173814D01*
X1562006Y1173698D01*
X1562414Y1173464D01*
X1562823Y1173260D01*
X1562852D01*
X1562910Y1173231D01*
X1562997Y1173202D01*
X1563114Y1173143D01*
X1563377Y1173027D01*
X1563610Y1172939D01*
X1563668Y1172910D01*
X1563785Y1172881D01*
X1563931Y1172794D01*
X1564047Y1172706D01*
X1564076Y1172677D01*
X1564135Y1172619D01*
X1564193Y1172473D01*
X1564251Y1172327D01*
Y1172298D01*
X1564281Y1172152D01*
X1564310Y1171948D01*
Y1171685D01*
Y1171627D01*
Y1171481D01*
X1564281Y1171307D01*
X1564251Y1171132D01*
Y1171102D01*
X1564222Y1171015D01*
X1564193Y1170898D01*
X1564135Y1170811D01*
Y1170782D01*
X1564106Y1170723D01*
X1564047Y1170665D01*
X1563989Y1170636D01*
X1563960Y1170607D01*
X1563843Y1170577D01*
X1563727D01*
X1563610Y1170607D01*
X1563493Y1170636D01*
X1563318Y1170665D01*
X1563143Y1170723D01*
X1562910Y1170811D01*
X1562881D01*
X1562793Y1170869D01*
X1562677Y1170898D01*
X1562502Y1170986D01*
X1562298Y1171073D01*
X1562064Y1171219D01*
X1561481Y1171511D01*
X1561452Y1171540D01*
X1561335Y1171598D01*
X1561190Y1171685D01*
X1560986Y1171802D01*
X1560723Y1171977D01*
X1560432Y1172152D01*
X1559761Y1172589D01*
X1559732Y1172619D01*
X1559615Y1172706D01*
X1559440Y1172823D01*
X1559207Y1172998D01*
X1558944Y1173202D01*
X1558624Y1173464D01*
X1557982Y1174018D01*
X1557953Y1173989D01*
X1557865Y1173960D01*
X1557720Y1173873D01*
X1557516Y1173785D01*
X1557253Y1173668D01*
X1556962Y1173552D01*
X1556612Y1173406D01*
X1556233Y1173289D01*
X1556174D01*
X1556058Y1173231D01*
X1555824Y1173202D01*
X1555562Y1173143D01*
X1555183Y1173085D01*
X1554775Y1173056D01*
X1554308Y1172998D01*
X1553463D01*
X1553288Y1173027D01*
X1553083D01*
X1552617Y1173085D01*
X1552063Y1173143D01*
X1551451Y1173231D01*
X1550867Y1173377D01*
X1550284Y1173581D01*
X1550255D01*
X1550226Y1173610D01*
X1550051Y1173698D01*
X1549759Y1173843D01*
X1549409Y1174018D01*
X1549030Y1174281D01*
X1548622Y1174572D01*
X1548185Y1174922D01*
X1547806Y1175330D01*
X1547776Y1175389D01*
X1547660Y1175535D01*
X1547485Y1175797D01*
X1547281Y1176118D01*
X1547047Y1176555D01*
X1546785Y1177051D01*
X1546581Y1177605D01*
X1546377Y1178217D01*
Y1178246D01*
X1546348Y1178305D01*
Y1178392D01*
X1546319Y1178538D01*
X1546260Y1178684D01*
X1546231Y1178888D01*
X1546202Y1179121D01*
X1546143Y1179384D01*
X1546056Y1179967D01*
X1545998Y1180637D01*
X1545939Y1181396D01*
X1545910Y1182212D01*
Y1182241D01*
Y1182299D01*
Y1182416D01*
Y1182591D01*
X1545939Y1182766D01*
Y1182999D01*
X1545969Y1183495D01*
X1546027Y1184107D01*
X1546114Y1184749D01*
X1546231Y1185419D01*
X1546406Y1186090D01*
Y1186119D01*
X1546435Y1186178D01*
X1546464Y1186265D01*
X1546493Y1186382D01*
X1546639Y1186702D01*
X1546785Y1187111D01*
X1547018Y1187577D01*
X1547281Y1188073D01*
X1547601Y1188598D01*
X1547951Y1189064D01*
X1548010Y1189123D01*
X1548126Y1189268D01*
X1548360Y1189502D01*
X1548680Y1189764D01*
X1549059Y1190056D01*
X1549497Y1190377D01*
X1549993Y1190697D01*
X1550547Y1190960D01*
X1550576D01*
X1550605Y1190989D01*
X1550692Y1191018D01*
X1550809Y1191076D01*
X1550955Y1191106D01*
X1551159Y1191164D01*
X1551567Y1191310D01*
X1552121Y1191426D01*
X1552733Y1191514D01*
X1553404Y1191601D01*
X1554162Y1191630D01*
X1554483D01*
X1554658Y1191601D01*
D02*
G37*
G36*
X1726318Y1186819D02*
X1726347D01*
X1726464Y1186790D01*
X1726610Y1186761D01*
X1726785Y1186732D01*
X1726843D01*
X1726931Y1186702D01*
X1727106Y1186644D01*
X1727251Y1186586D01*
X1727280D01*
X1727368Y1186557D01*
X1727455Y1186528D01*
X1727543Y1186469D01*
X1727572D01*
X1727601Y1186440D01*
X1727659Y1186323D01*
X1727689Y1186294D01*
Y1186178D01*
Y1186149D01*
X1727718Y1186119D01*
Y1186032D01*
Y1185886D01*
Y1185857D01*
X1727747Y1185769D01*
Y1185594D01*
Y1185390D01*
Y1185332D01*
Y1185215D01*
Y1185041D01*
X1727718Y1184865D01*
Y1184836D01*
Y1184749D01*
X1727659Y1184516D01*
Y1184486D01*
X1727630Y1184457D01*
X1727543Y1184341D01*
X1727514Y1184312D01*
X1727397Y1184282D01*
X1727310D01*
X1727222Y1184312D01*
X1727106Y1184341D01*
X1727076D01*
X1727018Y1184370D01*
X1726901Y1184428D01*
X1726756Y1184457D01*
X1726726Y1184486D01*
X1726610Y1184516D01*
X1726464Y1184545D01*
X1726289Y1184603D01*
X1726260D01*
X1726143Y1184632D01*
X1725968Y1184661D01*
X1725677D01*
X1725531Y1184632D01*
X1725298Y1184603D01*
X1725035Y1184516D01*
X1724977Y1184486D01*
X1724831Y1184399D01*
X1724598Y1184253D01*
X1724335Y1184049D01*
X1724306D01*
X1724277Y1183991D01*
X1724102Y1183816D01*
X1723869Y1183553D01*
X1723577Y1183174D01*
X1723548Y1183145D01*
X1723519Y1183087D01*
X1723432Y1182970D01*
X1723315Y1182824D01*
X1723198Y1182620D01*
X1723023Y1182416D01*
X1722702Y1181891D01*
Y1173581D01*
Y1173523D01*
X1722644Y1173406D01*
X1722586Y1173348D01*
X1722527Y1173318D01*
X1722440Y1173260D01*
X1722411D01*
X1722353Y1173231D01*
X1722236D01*
X1722090Y1173202D01*
X1721944D01*
X1721769Y1173173D01*
X1721157D01*
X1720953Y1173202D01*
X1720924D01*
X1720836Y1173231D01*
X1720603Y1173260D01*
X1720574D01*
X1720545Y1173289D01*
X1720428Y1173406D01*
Y1173435D01*
Y1173464D01*
X1720399Y1173581D01*
Y1186207D01*
Y1186236D01*
Y1186265D01*
X1720428Y1186382D01*
Y1186411D01*
X1720457Y1186440D01*
X1720515Y1186469D01*
X1720574Y1186528D01*
X1720603D01*
X1720661Y1186557D01*
X1720778Y1186586D01*
X1720895Y1186615D01*
X1720924D01*
X1721040Y1186644D01*
X1721769D01*
X1721944Y1186615D01*
X1721974D01*
X1722061Y1186586D01*
X1722148Y1186557D01*
X1722236Y1186528D01*
X1722265D01*
X1722294Y1186498D01*
X1722411Y1186382D01*
X1722440Y1186323D01*
X1722469Y1186207D01*
Y1184370D01*
X1722498Y1184399D01*
X1722557Y1184486D01*
X1722673Y1184632D01*
X1722790Y1184807D01*
X1723111Y1185215D01*
X1723432Y1185594D01*
X1723461Y1185624D01*
X1723519Y1185682D01*
X1723606Y1185769D01*
X1723723Y1185857D01*
X1723985Y1186090D01*
X1724306Y1186323D01*
X1724335D01*
X1724364Y1186382D01*
X1724569Y1186498D01*
X1724802Y1186615D01*
X1725094Y1186732D01*
X1725123D01*
X1725152Y1186761D01*
X1725356Y1186790D01*
X1725618Y1186819D01*
X1725910Y1186848D01*
X1726143D01*
X1726318Y1186819D01*
D02*
G37*
G36*
X1697217D02*
X1697538Y1186790D01*
X1697888Y1186702D01*
X1698296Y1186615D01*
X1698675Y1186469D01*
X1699054Y1186294D01*
X1699113Y1186265D01*
X1699229Y1186207D01*
X1699404Y1186090D01*
X1699637Y1185915D01*
X1699871Y1185711D01*
X1700133Y1185449D01*
X1700396Y1185157D01*
X1700629Y1184836D01*
X1700658Y1184807D01*
X1700716Y1184690D01*
X1700833Y1184486D01*
X1700979Y1184224D01*
X1701125Y1183932D01*
X1701270Y1183553D01*
X1701416Y1183145D01*
X1701533Y1182708D01*
Y1182649D01*
X1701591Y1182504D01*
X1701620Y1182241D01*
X1701679Y1181920D01*
X1701737Y1181541D01*
X1701766Y1181075D01*
X1701824Y1180608D01*
Y1180083D01*
Y1180054D01*
Y1180025D01*
Y1179938D01*
Y1179821D01*
X1701795Y1179500D01*
X1701766Y1179092D01*
X1701737Y1178655D01*
X1701679Y1178159D01*
X1701562Y1177634D01*
X1701445Y1177138D01*
X1701416Y1177080D01*
X1701387Y1176934D01*
X1701300Y1176672D01*
X1701183Y1176380D01*
X1701037Y1176001D01*
X1700862Y1175651D01*
X1700629Y1175272D01*
X1700396Y1174893D01*
X1700367Y1174864D01*
X1700279Y1174747D01*
X1700133Y1174572D01*
X1699929Y1174368D01*
X1699696Y1174164D01*
X1699404Y1173931D01*
X1699084Y1173698D01*
X1698705Y1173493D01*
X1698646Y1173464D01*
X1698530Y1173406D01*
X1698325Y1173348D01*
X1698034Y1173260D01*
X1697684Y1173143D01*
X1697276Y1173085D01*
X1696838Y1173027D01*
X1696343Y1172998D01*
X1696138D01*
X1696022Y1173027D01*
X1695672Y1173056D01*
X1695322Y1173114D01*
X1695293D01*
X1695235Y1173143D01*
X1695147Y1173173D01*
X1695030Y1173202D01*
X1694739Y1173318D01*
X1694389Y1173464D01*
X1694360D01*
X1694301Y1173493D01*
X1694214Y1173552D01*
X1694097Y1173639D01*
X1693806Y1173814D01*
X1693485Y1174047D01*
X1693456Y1174077D01*
X1693398Y1174106D01*
X1693310Y1174193D01*
X1693193Y1174281D01*
X1692902Y1174543D01*
X1692552Y1174893D01*
Y1168624D01*
Y1168595D01*
Y1168566D01*
X1692493Y1168420D01*
X1692435Y1168361D01*
X1692377Y1168332D01*
X1692289Y1168274D01*
X1692260D01*
X1692202Y1168245D01*
X1692085Y1168216D01*
X1691940Y1168186D01*
X1691794D01*
X1691619Y1168157D01*
X1691006D01*
X1690802Y1168186D01*
X1690773D01*
X1690686Y1168216D01*
X1690452Y1168274D01*
X1690423D01*
X1690394Y1168303D01*
X1690277Y1168420D01*
Y1168449D01*
Y1168478D01*
X1690248Y1168624D01*
Y1186207D01*
Y1186236D01*
Y1186265D01*
X1690277Y1186382D01*
Y1186411D01*
X1690307Y1186440D01*
X1690365Y1186469D01*
X1690423Y1186528D01*
X1690452D01*
X1690511Y1186557D01*
X1690627Y1186586D01*
X1690744Y1186615D01*
X1690773D01*
X1690890Y1186644D01*
X1691560D01*
X1691706Y1186615D01*
X1691735D01*
X1691823Y1186586D01*
X1691940Y1186557D01*
X1692027Y1186528D01*
X1692056D01*
X1692115Y1186498D01*
X1692173Y1186440D01*
X1692202Y1186382D01*
X1692231Y1186353D01*
X1692260Y1186207D01*
Y1184516D01*
X1692289Y1184545D01*
X1692348Y1184603D01*
X1692464Y1184720D01*
X1692610Y1184865D01*
X1692989Y1185186D01*
X1693368Y1185536D01*
X1693398Y1185565D01*
X1693456Y1185624D01*
X1693572Y1185682D01*
X1693689Y1185799D01*
X1694039Y1186003D01*
X1694418Y1186236D01*
X1694447D01*
X1694505Y1186294D01*
X1694622Y1186323D01*
X1694768Y1186411D01*
X1695118Y1186557D01*
X1695526Y1186673D01*
X1695555D01*
X1695614Y1186702D01*
X1695730Y1186732D01*
X1695905Y1186761D01*
X1696284Y1186819D01*
X1696722Y1186848D01*
X1696955D01*
X1697217Y1186819D01*
D02*
G37*
G36*
X1711389D02*
X1711739Y1186790D01*
X1712176Y1186732D01*
X1712613Y1186644D01*
X1713080Y1186528D01*
X1713517Y1186382D01*
X1713576Y1186353D01*
X1713721Y1186294D01*
X1713926Y1186178D01*
X1714188Y1186032D01*
X1714509Y1185857D01*
X1714830Y1185594D01*
X1715150Y1185332D01*
X1715442Y1185011D01*
X1715471Y1184982D01*
X1715558Y1184865D01*
X1715704Y1184661D01*
X1715879Y1184428D01*
X1716083Y1184107D01*
X1716258Y1183757D01*
X1716462Y1183349D01*
X1716608Y1182883D01*
X1716637Y1182824D01*
X1716667Y1182649D01*
X1716725Y1182416D01*
X1716812Y1182066D01*
X1716900Y1181629D01*
X1716958Y1181162D01*
X1716987Y1180637D01*
X1717016Y1180054D01*
Y1180025D01*
Y1179996D01*
Y1179908D01*
Y1179792D01*
X1716987Y1179500D01*
X1716958Y1179121D01*
X1716929Y1178684D01*
X1716841Y1178188D01*
X1716754Y1177692D01*
X1716608Y1177197D01*
X1716579Y1177138D01*
X1716521Y1176992D01*
X1716433Y1176730D01*
X1716317Y1176439D01*
X1716142Y1176089D01*
X1715908Y1175710D01*
X1715675Y1175330D01*
X1715383Y1174980D01*
X1715354Y1174951D01*
X1715238Y1174835D01*
X1715063Y1174660D01*
X1714830Y1174456D01*
X1714538Y1174222D01*
X1714188Y1173960D01*
X1713780Y1173727D01*
X1713342Y1173523D01*
X1713284Y1173493D01*
X1713138Y1173435D01*
X1712876Y1173348D01*
X1712555Y1173260D01*
X1712147Y1173173D01*
X1711680Y1173085D01*
X1711155Y1173027D01*
X1710572Y1172998D01*
X1710310D01*
X1710018Y1173027D01*
X1709639Y1173056D01*
X1709202Y1173114D01*
X1708764Y1173173D01*
X1708298Y1173289D01*
X1707831Y1173435D01*
X1707773Y1173464D01*
X1707656Y1173523D01*
X1707423Y1173639D01*
X1707161Y1173785D01*
X1706869Y1173960D01*
X1706548Y1174193D01*
X1706228Y1174456D01*
X1705907Y1174776D01*
X1705878Y1174806D01*
X1705790Y1174951D01*
X1705644Y1175126D01*
X1705469Y1175389D01*
X1705294Y1175710D01*
X1705119Y1176059D01*
X1704915Y1176497D01*
X1704770Y1176934D01*
Y1176963D01*
Y1176992D01*
X1704711Y1177168D01*
X1704653Y1177430D01*
X1704595Y1177751D01*
X1704536Y1178188D01*
X1704478Y1178684D01*
X1704449Y1179209D01*
X1704420Y1179792D01*
Y1179821D01*
Y1179850D01*
Y1179938D01*
Y1180054D01*
X1704449Y1180346D01*
X1704478Y1180725D01*
X1704507Y1181162D01*
X1704595Y1181629D01*
X1704682Y1182124D01*
X1704799Y1182620D01*
Y1182649D01*
X1704828Y1182679D01*
X1704886Y1182853D01*
X1704974Y1183087D01*
X1705090Y1183408D01*
X1705265Y1183757D01*
X1705469Y1184137D01*
X1705732Y1184516D01*
X1705994Y1184865D01*
X1706023Y1184895D01*
X1706140Y1185011D01*
X1706315Y1185186D01*
X1706548Y1185390D01*
X1706840Y1185624D01*
X1707190Y1185886D01*
X1707569Y1186119D01*
X1708006Y1186323D01*
X1708065Y1186353D01*
X1708210Y1186411D01*
X1708473Y1186498D01*
X1708823Y1186586D01*
X1709231Y1186673D01*
X1709727Y1186761D01*
X1710251Y1186819D01*
X1710835Y1186848D01*
X1711097D01*
X1711389Y1186819D01*
D02*
G37*
%LPC*%
G36*
X1696284Y1184865D02*
X1696109D01*
X1696022Y1184836D01*
X1695730Y1184807D01*
X1695410Y1184720D01*
X1695380D01*
X1695322Y1184690D01*
X1695235Y1184661D01*
X1695147Y1184603D01*
X1694855Y1184486D01*
X1694505Y1184282D01*
X1694476D01*
X1694418Y1184224D01*
X1694331Y1184166D01*
X1694214Y1184078D01*
X1693922Y1183845D01*
X1693572Y1183524D01*
X1693543Y1183495D01*
X1693485Y1183437D01*
X1693398Y1183349D01*
X1693252Y1183203D01*
X1693106Y1183028D01*
X1692931Y1182853D01*
X1692552Y1182387D01*
Y1177372D01*
X1692581Y1177313D01*
X1692698Y1177168D01*
X1692902Y1176963D01*
X1693135Y1176701D01*
X1693398Y1176439D01*
X1693689Y1176118D01*
X1694010Y1175855D01*
X1694331Y1175593D01*
X1694360Y1175564D01*
X1694476Y1175505D01*
X1694651Y1175389D01*
X1694885Y1175301D01*
X1695176Y1175185D01*
X1695468Y1175068D01*
X1695818Y1175010D01*
X1696168Y1174980D01*
X1696313D01*
X1696459Y1175010D01*
X1696663Y1175039D01*
X1697130Y1175155D01*
X1697392Y1175243D01*
X1697626Y1175389D01*
X1697655Y1175418D01*
X1697742Y1175476D01*
X1697859Y1175564D01*
X1698005Y1175680D01*
X1698150Y1175826D01*
X1698325Y1176030D01*
X1698500Y1176264D01*
X1698646Y1176497D01*
X1698675Y1176526D01*
X1698705Y1176613D01*
X1698792Y1176759D01*
X1698879Y1176963D01*
X1698967Y1177197D01*
X1699054Y1177459D01*
X1699229Y1178071D01*
Y1178101D01*
X1699259Y1178217D01*
X1699288Y1178392D01*
X1699346Y1178625D01*
X1699375Y1178888D01*
X1699404Y1179180D01*
X1699433Y1179821D01*
Y1179879D01*
Y1179996D01*
Y1180171D01*
X1699404Y1180433D01*
Y1180725D01*
X1699375Y1181046D01*
X1699259Y1181716D01*
Y1181746D01*
X1699229Y1181862D01*
X1699200Y1182037D01*
X1699142Y1182270D01*
X1699084Y1182504D01*
X1698996Y1182766D01*
X1698763Y1183320D01*
X1698734Y1183349D01*
X1698705Y1183437D01*
X1698617Y1183553D01*
X1698500Y1183728D01*
X1698209Y1184078D01*
X1697800Y1184428D01*
X1697771Y1184457D01*
X1697684Y1184486D01*
X1697567Y1184574D01*
X1697392Y1184661D01*
X1697159Y1184720D01*
X1696897Y1184807D01*
X1696605Y1184836D01*
X1696284Y1184865D01*
D02*
G37*
G36*
X1554017Y1189560D02*
X1553754D01*
X1553463Y1189531D01*
X1553113Y1189502D01*
X1552704Y1189414D01*
X1552267Y1189327D01*
X1551830Y1189181D01*
X1551392Y1188977D01*
X1551334Y1188948D01*
X1551217Y1188860D01*
X1551013Y1188744D01*
X1550780Y1188569D01*
X1550517Y1188335D01*
X1550226Y1188073D01*
X1549934Y1187752D01*
X1549672Y1187402D01*
X1549643Y1187344D01*
X1549555Y1187227D01*
X1549438Y1187023D01*
X1549293Y1186732D01*
X1549147Y1186411D01*
X1548972Y1186003D01*
X1548826Y1185565D01*
X1548710Y1185099D01*
Y1185041D01*
X1548680Y1184865D01*
X1548622Y1184603D01*
X1548593Y1184282D01*
X1548535Y1183874D01*
X1548476Y1183408D01*
X1548447Y1182883D01*
Y1182358D01*
Y1182329D01*
Y1182299D01*
Y1182212D01*
Y1182095D01*
X1548476Y1181804D01*
Y1181396D01*
X1548505Y1180958D01*
X1548564Y1180462D01*
X1548710Y1179442D01*
Y1179384D01*
X1548768Y1179209D01*
X1548826Y1178975D01*
X1548914Y1178655D01*
X1549030Y1178276D01*
X1549176Y1177896D01*
X1549380Y1177488D01*
X1549584Y1177109D01*
X1549613Y1177080D01*
X1549701Y1176963D01*
X1549847Y1176788D01*
X1550051Y1176555D01*
X1550284Y1176322D01*
X1550576Y1176089D01*
X1550896Y1175826D01*
X1551275Y1175622D01*
X1551334Y1175593D01*
X1551480Y1175535D01*
X1551684Y1175447D01*
X1552005Y1175360D01*
X1552384Y1175272D01*
X1552850Y1175185D01*
X1553346Y1175126D01*
X1553929Y1175097D01*
X1554191D01*
X1554483Y1175126D01*
X1554862Y1175185D01*
X1555270Y1175243D01*
X1555708Y1175330D01*
X1556145Y1175476D01*
X1556582Y1175680D01*
X1556641Y1175710D01*
X1556758Y1175797D01*
X1556962Y1175914D01*
X1557195Y1176089D01*
X1557486Y1176322D01*
X1557778Y1176584D01*
X1558040Y1176905D01*
X1558303Y1177255D01*
X1558332Y1177313D01*
X1558419Y1177430D01*
X1558536Y1177634D01*
X1558682Y1177926D01*
X1558828Y1178246D01*
X1559003Y1178655D01*
X1559149Y1179092D01*
X1559265Y1179558D01*
Y1179588D01*
Y1179617D01*
X1559323Y1179792D01*
X1559353Y1180054D01*
X1559411Y1180404D01*
X1559469Y1180842D01*
X1559498Y1181308D01*
X1559557Y1181833D01*
Y1182358D01*
Y1182387D01*
Y1182416D01*
Y1182504D01*
Y1182620D01*
Y1182912D01*
X1559528Y1183291D01*
X1559498Y1183728D01*
X1559440Y1184224D01*
X1559265Y1185215D01*
Y1185245D01*
Y1185274D01*
X1559207Y1185449D01*
X1559149Y1185682D01*
X1559061Y1186003D01*
X1558944Y1186353D01*
X1558770Y1186732D01*
X1558595Y1187111D01*
X1558361Y1187490D01*
X1558332Y1187519D01*
X1558245Y1187636D01*
X1558099Y1187811D01*
X1557895Y1188044D01*
X1557661Y1188277D01*
X1557370Y1188540D01*
X1557020Y1188773D01*
X1556641Y1189006D01*
X1556582Y1189035D01*
X1556466Y1189094D01*
X1556233Y1189181D01*
X1555912Y1189298D01*
X1555533Y1189385D01*
X1555095Y1189473D01*
X1554570Y1189531D01*
X1554017Y1189560D01*
D02*
G37*
G36*
X1621040Y1157101D02*
X1620895D01*
X1620749Y1157071D01*
X1620545D01*
X1620311Y1157013D01*
X1620049Y1156955D01*
X1619816Y1156867D01*
X1619553Y1156750D01*
X1619524D01*
X1619437Y1156692D01*
X1619320Y1156634D01*
X1619174Y1156517D01*
X1618824Y1156255D01*
X1618474Y1155905D01*
X1618445Y1155876D01*
X1618416Y1155817D01*
X1618329Y1155701D01*
X1618212Y1155555D01*
X1618125Y1155380D01*
X1618008Y1155147D01*
X1617775Y1154651D01*
Y1154622D01*
X1617746Y1154534D01*
X1617716Y1154389D01*
X1617658Y1154214D01*
X1617629Y1153980D01*
X1617571Y1153747D01*
X1617541Y1153193D01*
X1624394D01*
Y1153222D01*
Y1153281D01*
Y1153368D01*
Y1153485D01*
X1624365Y1153835D01*
X1624306Y1154243D01*
X1624219Y1154680D01*
X1624073Y1155176D01*
X1623869Y1155613D01*
X1623577Y1156051D01*
X1623548Y1156109D01*
X1623432Y1156226D01*
X1623227Y1156372D01*
X1622936Y1156576D01*
X1622586Y1156780D01*
X1622148Y1156926D01*
X1621624Y1157042D01*
X1621040Y1157101D01*
D02*
G37*
G36*
X1587187D02*
X1587041D01*
X1586895Y1157071D01*
X1586691D01*
X1586458Y1157013D01*
X1586195Y1156955D01*
X1585962Y1156867D01*
X1585699Y1156750D01*
X1585670D01*
X1585583Y1156692D01*
X1585466Y1156634D01*
X1585320Y1156517D01*
X1584971Y1156255D01*
X1584621Y1155905D01*
X1584592Y1155876D01*
X1584562Y1155817D01*
X1584475Y1155701D01*
X1584358Y1155555D01*
X1584271Y1155380D01*
X1584154Y1155147D01*
X1583921Y1154651D01*
Y1154622D01*
X1583892Y1154534D01*
X1583862Y1154389D01*
X1583804Y1154214D01*
X1583775Y1153980D01*
X1583717Y1153747D01*
X1583688Y1153193D01*
X1590540D01*
Y1153222D01*
Y1153281D01*
Y1153368D01*
Y1153485D01*
X1590511Y1153835D01*
X1590453Y1154243D01*
X1590365Y1154680D01*
X1590219Y1155176D01*
X1590015Y1155613D01*
X1589724Y1156051D01*
X1589694Y1156109D01*
X1589578Y1156226D01*
X1589374Y1156372D01*
X1589082Y1156576D01*
X1588732Y1156780D01*
X1588295Y1156926D01*
X1587770Y1157042D01*
X1587187Y1157101D01*
D02*
G37*
G36*
X1722573Y1161445D02*
X1720357D01*
Y1154184D01*
X1722690D01*
X1722894Y1154214D01*
X1723156D01*
X1723418Y1154243D01*
X1723739Y1154301D01*
X1724031Y1154360D01*
X1724322Y1154447D01*
X1724352D01*
X1724439Y1154505D01*
X1724585Y1154564D01*
X1724760Y1154651D01*
X1725139Y1154913D01*
X1725518Y1155234D01*
X1725547Y1155263D01*
X1725605Y1155322D01*
X1725693Y1155438D01*
X1725809Y1155555D01*
X1725926Y1155730D01*
X1726043Y1155934D01*
X1726276Y1156401D01*
Y1156430D01*
X1726305Y1156517D01*
X1726364Y1156663D01*
X1726422Y1156867D01*
X1726451Y1157071D01*
X1726509Y1157334D01*
X1726539Y1157917D01*
Y1157975D01*
Y1158092D01*
X1726509Y1158296D01*
X1726480Y1158558D01*
X1726422Y1158850D01*
X1726364Y1159171D01*
X1726247Y1159462D01*
X1726101Y1159754D01*
X1726072Y1159783D01*
X1726043Y1159871D01*
X1725926Y1160016D01*
X1725809Y1160191D01*
X1725489Y1160541D01*
X1725314Y1160716D01*
X1725081Y1160862D01*
X1725051Y1160891D01*
X1724964Y1160920D01*
X1724847Y1160979D01*
X1724702Y1161066D01*
X1724497Y1161154D01*
X1724293Y1161212D01*
X1723827Y1161329D01*
X1723797D01*
X1723710Y1161358D01*
X1723593D01*
X1723418Y1161387D01*
X1723039Y1161416D01*
X1722573Y1161445D01*
D02*
G37*
G36*
X1773135Y1157101D02*
X1772989D01*
X1772843Y1157071D01*
X1772639D01*
X1772406Y1157013D01*
X1772144Y1156955D01*
X1771910Y1156867D01*
X1771648Y1156750D01*
X1771619D01*
X1771531Y1156692D01*
X1771414Y1156634D01*
X1771269Y1156517D01*
X1770919Y1156255D01*
X1770569Y1155905D01*
X1770540Y1155876D01*
X1770511Y1155817D01*
X1770423Y1155701D01*
X1770306Y1155555D01*
X1770219Y1155380D01*
X1770102Y1155147D01*
X1769869Y1154651D01*
Y1154622D01*
X1769840Y1154534D01*
X1769811Y1154389D01*
X1769752Y1154214D01*
X1769723Y1153980D01*
X1769665Y1153747D01*
X1769636Y1153193D01*
X1776488D01*
Y1153222D01*
Y1153281D01*
Y1153368D01*
Y1153485D01*
X1776459Y1153835D01*
X1776401Y1154243D01*
X1776313Y1154680D01*
X1776167Y1155176D01*
X1775963Y1155613D01*
X1775672Y1156051D01*
X1775643Y1156109D01*
X1775526Y1156226D01*
X1775322Y1156372D01*
X1775030Y1156576D01*
X1774680Y1156780D01*
X1774243Y1156926D01*
X1773718Y1157042D01*
X1773135Y1157101D01*
D02*
G37*
G36*
X1710747Y1184924D02*
X1710572D01*
X1710368Y1184895D01*
X1710135Y1184865D01*
X1709843Y1184836D01*
X1709552Y1184778D01*
X1709231Y1184661D01*
X1708939Y1184545D01*
X1708910Y1184516D01*
X1708823Y1184486D01*
X1708677Y1184399D01*
X1708531Y1184282D01*
X1708327Y1184137D01*
X1708123Y1183962D01*
X1707919Y1183757D01*
X1707744Y1183524D01*
X1707715Y1183495D01*
X1707656Y1183408D01*
X1707598Y1183262D01*
X1707481Y1183087D01*
X1707365Y1182824D01*
X1707248Y1182562D01*
X1707132Y1182270D01*
X1707044Y1181920D01*
Y1181891D01*
X1707015Y1181775D01*
X1706986Y1181571D01*
X1706927Y1181337D01*
X1706898Y1181046D01*
X1706840Y1180696D01*
X1706811Y1180346D01*
Y1179938D01*
Y1179879D01*
Y1179763D01*
Y1179558D01*
X1706840Y1179325D01*
Y1179005D01*
X1706898Y1178684D01*
X1706986Y1177984D01*
Y1177955D01*
X1707015Y1177838D01*
X1707073Y1177663D01*
X1707132Y1177459D01*
X1707219Y1177197D01*
X1707336Y1176934D01*
X1707627Y1176409D01*
X1707656Y1176380D01*
X1707715Y1176293D01*
X1707802Y1176176D01*
X1707948Y1176030D01*
X1708094Y1175855D01*
X1708298Y1175680D01*
X1708531Y1175505D01*
X1708793Y1175330D01*
X1708823Y1175301D01*
X1708939Y1175272D01*
X1709085Y1175214D01*
X1709318Y1175155D01*
X1709581Y1175068D01*
X1709902Y1175010D01*
X1710281Y1174980D01*
X1710689Y1174951D01*
X1710864D01*
X1711039Y1174980D01*
X1711301Y1175010D01*
X1711564Y1175039D01*
X1711855Y1175097D01*
X1712147Y1175185D01*
X1712438Y1175301D01*
X1712468Y1175330D01*
X1712555Y1175360D01*
X1712701Y1175447D01*
X1712876Y1175564D01*
X1713080Y1175710D01*
X1713284Y1175884D01*
X1713488Y1176089D01*
X1713663Y1176322D01*
X1713692Y1176351D01*
X1713751Y1176439D01*
X1713838Y1176584D01*
X1713955Y1176759D01*
X1714071Y1176992D01*
X1714188Y1177284D01*
X1714305Y1177576D01*
X1714392Y1177896D01*
Y1177926D01*
X1714421Y1178042D01*
X1714480Y1178246D01*
X1714509Y1178480D01*
X1714567Y1178800D01*
X1714596Y1179121D01*
X1714625Y1179500D01*
Y1179908D01*
Y1179967D01*
Y1180083D01*
Y1180287D01*
X1714596Y1180521D01*
X1714567Y1180842D01*
X1714538Y1181162D01*
X1714421Y1181833D01*
Y1181862D01*
X1714392Y1181979D01*
X1714334Y1182154D01*
X1714276Y1182358D01*
X1714188Y1182620D01*
X1714071Y1182883D01*
X1713780Y1183408D01*
X1713751Y1183437D01*
X1713692Y1183524D01*
X1713605Y1183641D01*
X1713459Y1183816D01*
X1713284Y1183991D01*
X1713080Y1184166D01*
X1712847Y1184341D01*
X1712584Y1184516D01*
X1712555Y1184545D01*
X1712468Y1184574D01*
X1712293Y1184632D01*
X1712088Y1184720D01*
X1711826Y1184807D01*
X1711505Y1184865D01*
X1711155Y1184895D01*
X1710747Y1184924D01*
D02*
G37*
G36*
X1737911Y1156984D02*
X1737736D01*
X1737531Y1156955D01*
X1737298Y1156926D01*
X1737007Y1156896D01*
X1736715Y1156838D01*
X1736394Y1156721D01*
X1736103Y1156605D01*
X1736073Y1156576D01*
X1735986Y1156546D01*
X1735840Y1156459D01*
X1735694Y1156342D01*
X1735490Y1156197D01*
X1735286Y1156022D01*
X1735082Y1155817D01*
X1734907Y1155584D01*
X1734878Y1155555D01*
X1734820Y1155468D01*
X1734761Y1155322D01*
X1734645Y1155147D01*
X1734528Y1154884D01*
X1734411Y1154622D01*
X1734295Y1154330D01*
X1734207Y1153980D01*
Y1153951D01*
X1734178Y1153835D01*
X1734149Y1153631D01*
X1734091Y1153397D01*
X1734062Y1153106D01*
X1734003Y1152756D01*
X1733974Y1152406D01*
Y1151998D01*
Y1151939D01*
Y1151823D01*
Y1151618D01*
X1734003Y1151385D01*
Y1151065D01*
X1734062Y1150744D01*
X1734149Y1150044D01*
Y1150015D01*
X1734178Y1149898D01*
X1734236Y1149723D01*
X1734295Y1149519D01*
X1734382Y1149257D01*
X1734499Y1148994D01*
X1734790Y1148469D01*
X1734820Y1148440D01*
X1734878Y1148353D01*
X1734966Y1148236D01*
X1735111Y1148090D01*
X1735257Y1147915D01*
X1735461Y1147740D01*
X1735694Y1147565D01*
X1735957Y1147390D01*
X1735986Y1147361D01*
X1736103Y1147332D01*
X1736248Y1147274D01*
X1736482Y1147215D01*
X1736744Y1147128D01*
X1737065Y1147070D01*
X1737444Y1147040D01*
X1737852Y1147011D01*
X1738027D01*
X1738202Y1147040D01*
X1738465Y1147070D01*
X1738727Y1147099D01*
X1739019Y1147157D01*
X1739310Y1147245D01*
X1739602Y1147361D01*
X1739631Y1147390D01*
X1739718Y1147420D01*
X1739864Y1147507D01*
X1740039Y1147624D01*
X1740243Y1147769D01*
X1740447Y1147944D01*
X1740652Y1148149D01*
X1740827Y1148382D01*
X1740856Y1148411D01*
X1740914Y1148499D01*
X1741001Y1148644D01*
X1741118Y1148819D01*
X1741235Y1149053D01*
X1741351Y1149344D01*
X1741468Y1149636D01*
X1741555Y1149957D01*
Y1149986D01*
X1741585Y1150102D01*
X1741643Y1150306D01*
X1741672Y1150540D01*
X1741730Y1150860D01*
X1741760Y1151181D01*
X1741789Y1151560D01*
Y1151968D01*
Y1152027D01*
Y1152143D01*
Y1152347D01*
X1741760Y1152581D01*
X1741730Y1152902D01*
X1741701Y1153222D01*
X1741585Y1153893D01*
Y1153922D01*
X1741555Y1154039D01*
X1741497Y1154214D01*
X1741439Y1154418D01*
X1741351Y1154680D01*
X1741235Y1154943D01*
X1740943Y1155468D01*
X1740914Y1155497D01*
X1740856Y1155584D01*
X1740768Y1155701D01*
X1740622Y1155876D01*
X1740447Y1156051D01*
X1740243Y1156226D01*
X1740010Y1156401D01*
X1739748Y1156576D01*
X1739718Y1156605D01*
X1739631Y1156634D01*
X1739456Y1156692D01*
X1739252Y1156780D01*
X1738990Y1156867D01*
X1738669Y1156926D01*
X1738319Y1156955D01*
X1737911Y1156984D01*
D02*
G37*
G36*
X1634700Y1184924D02*
X1634525D01*
X1634321Y1184895D01*
X1634088Y1184865D01*
X1633796Y1184836D01*
X1633504Y1184778D01*
X1633184Y1184661D01*
X1632892Y1184545D01*
X1632863Y1184516D01*
X1632776Y1184486D01*
X1632630Y1184399D01*
X1632484Y1184282D01*
X1632280Y1184137D01*
X1632076Y1183962D01*
X1631872Y1183757D01*
X1631697Y1183524D01*
X1631667Y1183495D01*
X1631609Y1183408D01*
X1631551Y1183262D01*
X1631434Y1183087D01*
X1631317Y1182824D01*
X1631201Y1182562D01*
X1631084Y1182270D01*
X1630997Y1181920D01*
Y1181891D01*
X1630968Y1181775D01*
X1630939Y1181571D01*
X1630880Y1181337D01*
X1630851Y1181046D01*
X1630793Y1180696D01*
X1630764Y1180346D01*
Y1179938D01*
Y1179879D01*
Y1179763D01*
Y1179558D01*
X1630793Y1179325D01*
Y1179005D01*
X1630851Y1178684D01*
X1630939Y1177984D01*
Y1177955D01*
X1630968Y1177838D01*
X1631026Y1177663D01*
X1631084Y1177459D01*
X1631172Y1177197D01*
X1631288Y1176934D01*
X1631580Y1176409D01*
X1631609Y1176380D01*
X1631667Y1176293D01*
X1631755Y1176176D01*
X1631901Y1176030D01*
X1632047Y1175855D01*
X1632251Y1175680D01*
X1632484Y1175505D01*
X1632746Y1175330D01*
X1632776Y1175301D01*
X1632892Y1175272D01*
X1633038Y1175214D01*
X1633271Y1175155D01*
X1633534Y1175068D01*
X1633854Y1175010D01*
X1634234Y1174980D01*
X1634642Y1174951D01*
X1634817D01*
X1634992Y1174980D01*
X1635254Y1175010D01*
X1635517Y1175039D01*
X1635808Y1175097D01*
X1636100Y1175185D01*
X1636391Y1175301D01*
X1636420Y1175330D01*
X1636508Y1175360D01*
X1636654Y1175447D01*
X1636829Y1175564D01*
X1637033Y1175710D01*
X1637237Y1175884D01*
X1637441Y1176089D01*
X1637616Y1176322D01*
X1637645Y1176351D01*
X1637703Y1176439D01*
X1637791Y1176584D01*
X1637908Y1176759D01*
X1638024Y1176992D01*
X1638141Y1177284D01*
X1638257Y1177576D01*
X1638345Y1177896D01*
Y1177926D01*
X1638374Y1178042D01*
X1638432Y1178246D01*
X1638461Y1178480D01*
X1638520Y1178800D01*
X1638549Y1179121D01*
X1638578Y1179500D01*
Y1179908D01*
Y1179967D01*
Y1180083D01*
Y1180287D01*
X1638549Y1180521D01*
X1638520Y1180842D01*
X1638491Y1181162D01*
X1638374Y1181833D01*
Y1181862D01*
X1638345Y1181979D01*
X1638287Y1182154D01*
X1638228Y1182358D01*
X1638141Y1182620D01*
X1638024Y1182883D01*
X1637733Y1183408D01*
X1637703Y1183437D01*
X1637645Y1183524D01*
X1637558Y1183641D01*
X1637412Y1183816D01*
X1637237Y1183991D01*
X1637033Y1184166D01*
X1636799Y1184341D01*
X1636537Y1184516D01*
X1636508Y1184545D01*
X1636420Y1184574D01*
X1636245Y1184632D01*
X1636041Y1184720D01*
X1635779Y1184807D01*
X1635458Y1184865D01*
X1635108Y1184895D01*
X1634700Y1184924D01*
D02*
G37*
G36*
X1659398D02*
X1659223D01*
X1659019Y1184895D01*
X1658786Y1184865D01*
X1658494Y1184836D01*
X1658202Y1184778D01*
X1657882Y1184661D01*
X1657590Y1184545D01*
X1657561Y1184516D01*
X1657473Y1184486D01*
X1657328Y1184399D01*
X1657182Y1184282D01*
X1656978Y1184137D01*
X1656774Y1183962D01*
X1656569Y1183757D01*
X1656395Y1183524D01*
X1656365Y1183495D01*
X1656307Y1183408D01*
X1656249Y1183262D01*
X1656132Y1183087D01*
X1656015Y1182824D01*
X1655899Y1182562D01*
X1655782Y1182270D01*
X1655695Y1181920D01*
Y1181891D01*
X1655665Y1181775D01*
X1655636Y1181571D01*
X1655578Y1181337D01*
X1655549Y1181046D01*
X1655491Y1180696D01*
X1655461Y1180346D01*
Y1179938D01*
Y1179879D01*
Y1179763D01*
Y1179558D01*
X1655491Y1179325D01*
Y1179005D01*
X1655549Y1178684D01*
X1655636Y1177984D01*
Y1177955D01*
X1655665Y1177838D01*
X1655724Y1177663D01*
X1655782Y1177459D01*
X1655870Y1177197D01*
X1655986Y1176934D01*
X1656278Y1176409D01*
X1656307Y1176380D01*
X1656365Y1176293D01*
X1656453Y1176176D01*
X1656599Y1176030D01*
X1656744Y1175855D01*
X1656949Y1175680D01*
X1657182Y1175505D01*
X1657444Y1175330D01*
X1657473Y1175301D01*
X1657590Y1175272D01*
X1657736Y1175214D01*
X1657969Y1175155D01*
X1658232Y1175068D01*
X1658552Y1175010D01*
X1658931Y1174980D01*
X1659339Y1174951D01*
X1659514D01*
X1659689Y1174980D01*
X1659952Y1175010D01*
X1660214Y1175039D01*
X1660506Y1175097D01*
X1660797Y1175185D01*
X1661089Y1175301D01*
X1661118Y1175330D01*
X1661206Y1175360D01*
X1661351Y1175447D01*
X1661526Y1175564D01*
X1661731Y1175710D01*
X1661935Y1175884D01*
X1662139Y1176089D01*
X1662314Y1176322D01*
X1662343Y1176351D01*
X1662401Y1176439D01*
X1662489Y1176584D01*
X1662605Y1176759D01*
X1662722Y1176992D01*
X1662839Y1177284D01*
X1662955Y1177576D01*
X1663043Y1177896D01*
Y1177926D01*
X1663072Y1178042D01*
X1663130Y1178246D01*
X1663159Y1178480D01*
X1663218Y1178800D01*
X1663247Y1179121D01*
X1663276Y1179500D01*
Y1179908D01*
Y1179967D01*
Y1180083D01*
Y1180287D01*
X1663247Y1180521D01*
X1663218Y1180842D01*
X1663188Y1181162D01*
X1663072Y1181833D01*
Y1181862D01*
X1663043Y1181979D01*
X1662984Y1182154D01*
X1662926Y1182358D01*
X1662839Y1182620D01*
X1662722Y1182883D01*
X1662430Y1183408D01*
X1662401Y1183437D01*
X1662343Y1183524D01*
X1662256Y1183641D01*
X1662110Y1183816D01*
X1661935Y1183991D01*
X1661731Y1184166D01*
X1661497Y1184341D01*
X1661235Y1184516D01*
X1661206Y1184545D01*
X1661118Y1184574D01*
X1660943Y1184632D01*
X1660739Y1184720D01*
X1660477Y1184807D01*
X1660156Y1184865D01*
X1659806Y1184895D01*
X1659398Y1184924D01*
D02*
G37*
%LPD*%
D13*
X114600Y478000D02*
X114700Y478100D01*
X1743563Y52600D02*
X1758800D01*
X1743563D02*
Y59130D01*
X1744289Y61307D01*
X1745014Y62032D01*
X1746465Y62758D01*
X1747917D01*
X1749368Y62032D01*
X1750093Y61307D01*
X1750819Y59130D01*
Y52600D01*
Y57679D02*
X1758800Y62758D01*
X1746465Y66168D02*
X1745740Y67619D01*
X1743563Y69796D01*
X1758800D01*
X1745740Y86048D02*
X1744289Y85323D01*
X1743563Y83146D01*
Y81695D01*
X1744289Y79518D01*
X1746465Y78067D01*
X1750093Y77342D01*
X1753721D01*
X1756623Y78067D01*
X1758074Y79518D01*
X1758800Y81695D01*
Y82421D01*
X1758074Y84597D01*
X1756623Y86048D01*
X1754447Y86774D01*
X1753721D01*
X1751544Y86048D01*
X1750093Y84597D01*
X1749368Y82421D01*
Y81695D01*
X1750093Y79518D01*
X1751544Y78067D01*
X1753721Y77342D01*
X1708163Y53100D02*
X1723400D01*
X1708163D02*
Y59630D01*
X1708889Y61807D01*
X1709614Y62532D01*
X1711066Y63258D01*
X1712517D01*
X1713968Y62532D01*
X1714693Y61807D01*
X1715419Y59630D01*
Y53100D01*
Y58179D02*
X1723400Y63258D01*
X1711066Y66668D02*
X1710340Y68119D01*
X1708163Y70296D01*
X1723400D01*
X1708163Y86548D02*
Y79293D01*
X1714693Y78567D01*
X1713968Y79293D01*
X1713242Y81469D01*
Y83646D01*
X1713968Y85823D01*
X1715419Y87274D01*
X1717596Y87999D01*
X1719047D01*
X1721223Y87274D01*
X1722675Y85823D01*
X1723400Y83646D01*
Y81469D01*
X1722675Y79293D01*
X1721949Y78567D01*
X1720498Y77842D01*
X1554900Y223737D02*
Y208500D01*
Y223737D02*
X1559979D01*
X1562156Y223011D01*
X1563607Y221560D01*
X1564332Y220109D01*
X1565058Y217932D01*
Y214304D01*
X1564332Y212128D01*
X1563607Y210677D01*
X1562156Y209226D01*
X1559979Y208500D01*
X1554900D01*
X1568468Y220835D02*
X1569919Y221560D01*
X1572096Y223737D01*
Y208500D01*
X1617600Y205137D02*
Y189900D01*
X1626307D01*
X1629427Y205137D02*
X1630152Y204411D01*
X1630878Y205137D01*
X1630152Y205862D01*
X1629427Y205137D01*
X1630152Y200058D02*
Y189900D01*
X1633562Y200058D02*
X1637916Y189900D01*
X1642269Y200058D02*
X1637916Y189900D01*
X1644736Y195704D02*
X1653443D01*
Y197156D01*
X1652717Y198607D01*
X1651991Y199332D01*
X1650540Y200058D01*
X1648364D01*
X1646913Y199332D01*
X1645461Y197881D01*
X1644736Y195704D01*
Y194253D01*
X1645461Y192077D01*
X1646913Y190626D01*
X1648364Y189900D01*
X1650540D01*
X1651991Y190626D01*
X1653443Y192077D01*
X1668679Y205137D02*
Y189900D01*
Y205137D02*
X1675209D01*
X1677386Y204411D01*
X1678112Y203686D01*
X1678837Y202234D01*
Y200783D01*
X1678112Y199332D01*
X1677386Y198607D01*
X1675209Y197881D01*
X1668679D02*
X1675209D01*
X1677386Y197156D01*
X1678112Y196430D01*
X1678837Y194979D01*
Y192802D01*
X1678112Y191351D01*
X1677386Y190626D01*
X1675209Y189900D01*
X1668679D01*
X1682247Y200058D02*
Y192802D01*
X1682973Y190626D01*
X1684424Y189900D01*
X1686601D01*
X1688052Y190626D01*
X1690228Y192802D01*
Y200058D02*
Y189900D01*
X1702200Y197881D02*
X1701475Y199332D01*
X1699298Y200058D01*
X1697121D01*
X1694945Y199332D01*
X1694219Y197881D01*
X1694945Y196430D01*
X1696396Y195704D01*
X1700023Y194979D01*
X1701475Y194253D01*
X1702200Y192802D01*
Y192077D01*
X1701475Y190626D01*
X1699298Y189900D01*
X1697121D01*
X1694945Y190626D01*
X1694219Y192077D01*
X1535100Y132937D02*
Y117700D01*
Y132937D02*
X1541630D01*
X1543807Y132211D01*
X1544532Y131486D01*
X1545258Y130035D01*
Y128583D01*
X1544532Y127132D01*
X1543807Y126407D01*
X1541630Y125681D01*
X1535100D01*
X1540179D02*
X1545258Y117700D01*
X1548668Y130035D02*
X1550119Y130760D01*
X1552296Y132937D01*
Y117700D01*
X1567097Y132937D02*
X1559842Y122779D01*
X1570725D01*
X1567097Y132937D02*
Y117700D01*
X1535100Y160237D02*
Y145000D01*
Y160237D02*
X1541630D01*
X1543807Y159511D01*
X1544532Y158786D01*
X1545258Y157334D01*
Y155883D01*
X1544532Y154432D01*
X1543807Y153707D01*
X1541630Y152981D01*
X1535100D01*
X1540179D02*
X1545258Y145000D01*
X1548668Y157334D02*
X1550119Y158060D01*
X1552296Y160237D01*
Y145000D01*
X1561293Y160237D02*
X1569274D01*
X1564921Y154432D01*
X1567097D01*
X1568548Y153707D01*
X1569274Y152981D01*
X1569999Y150804D01*
Y149353D01*
X1569274Y147177D01*
X1567823Y145725D01*
X1565646Y145000D01*
X1563469D01*
X1561293Y145725D01*
X1560567Y146451D01*
X1559842Y147902D01*
X1580400Y271537D02*
Y256300D01*
Y271537D02*
X1585479D01*
X1587656Y270811D01*
X1589107Y269360D01*
X1589832Y267909D01*
X1590558Y265732D01*
Y262104D01*
X1589832Y259928D01*
X1589107Y258477D01*
X1587656Y257026D01*
X1585479Y256300D01*
X1580400D01*
X1604851Y267909D02*
X1604126Y269360D01*
X1602675Y270811D01*
X1601223Y271537D01*
X1598321D01*
X1596870Y270811D01*
X1595419Y269360D01*
X1594693Y267909D01*
X1593968Y265732D01*
Y262104D01*
X1594693Y259928D01*
X1595419Y258477D01*
X1596870Y257026D01*
X1598321Y256300D01*
X1601223D01*
X1602675Y257026D01*
X1604126Y258477D01*
X1604851Y259928D01*
X1621104Y271537D02*
Y256300D01*
X1629811D01*
X1632930Y271537D02*
X1633656Y270811D01*
X1634382Y271537D01*
X1633656Y272262D01*
X1632930Y271537D01*
X1633656Y266458D02*
Y256300D01*
X1637066Y266458D02*
Y256300D01*
Y263556D02*
X1639243Y265732D01*
X1640694Y266458D01*
X1642871D01*
X1644322Y265732D01*
X1645047Y263556D01*
Y256300D01*
X1649038Y271537D02*
Y256300D01*
X1656293Y266458D02*
X1649038Y259202D01*
X1651940Y262104D02*
X1657019Y256300D01*
X1682269Y267909D02*
X1681543Y269360D01*
X1680092Y270811D01*
X1678641Y271537D01*
X1675739D01*
X1674287Y270811D01*
X1672836Y269360D01*
X1672111Y267909D01*
X1671385Y265732D01*
Y262104D01*
X1672111Y259928D01*
X1672836Y258477D01*
X1674287Y257026D01*
X1675739Y256300D01*
X1678641D01*
X1680092Y257026D01*
X1681543Y258477D01*
X1682269Y259928D01*
X1686549Y266458D02*
Y259202D01*
X1687275Y257026D01*
X1688726Y256300D01*
X1690903D01*
X1692354Y257026D01*
X1694530Y259202D01*
Y266458D02*
Y256300D01*
X1698521Y266458D02*
Y256300D01*
Y262104D02*
X1699247Y264281D01*
X1700698Y265732D01*
X1702149Y266458D01*
X1704326D01*
X1705704D02*
Y256300D01*
Y262104D02*
X1706430Y264281D01*
X1707881Y265732D01*
X1709332Y266458D01*
X1711508D01*
X1712887Y262104D02*
X1721594D01*
Y263556D01*
X1720868Y265007D01*
X1720143Y265732D01*
X1718692Y266458D01*
X1716515D01*
X1715064Y265732D01*
X1713613Y264281D01*
X1712887Y262104D01*
Y260653D01*
X1713613Y258477D01*
X1715064Y257026D01*
X1716515Y256300D01*
X1718692D01*
X1720143Y257026D01*
X1721594Y258477D01*
X1724859Y266458D02*
Y256300D01*
Y263556D02*
X1727036Y265732D01*
X1728487Y266458D01*
X1730663D01*
X1732114Y265732D01*
X1732840Y263556D01*
Y256300D01*
X1739007Y271537D02*
Y259202D01*
X1739733Y257026D01*
X1741184Y256300D01*
X1742635D01*
X1736831Y266458D02*
X1741909D01*
X1714856Y307037D02*
Y295428D01*
X1714130Y293251D01*
X1713404Y292526D01*
X1711953Y291800D01*
X1710502D01*
X1709051Y292526D01*
X1708326Y293251D01*
X1707600Y295428D01*
Y296879D01*
X1718774Y304135D02*
X1720225Y304860D01*
X1722401Y307037D01*
Y291800D01*
X1738654Y304860D02*
X1737928Y306311D01*
X1735752Y307037D01*
X1734301D01*
X1732124Y306311D01*
X1730673Y304135D01*
X1729947Y300507D01*
Y296879D01*
X1730673Y293977D01*
X1732124Y292526D01*
X1734301Y291800D01*
X1735026D01*
X1737203Y292526D01*
X1738654Y293977D01*
X1739379Y296153D01*
Y296879D01*
X1738654Y299056D01*
X1737203Y300507D01*
X1735026Y301232D01*
X1734301D01*
X1732124Y300507D01*
X1730673Y299056D01*
X1729947Y296879D01*
X90156Y837437D02*
Y825828D01*
X89430Y823651D01*
X88705Y822926D01*
X87253Y822200D01*
X85802D01*
X84351Y822926D01*
X83626Y823651D01*
X82900Y825828D01*
Y827279D01*
X94074Y834535D02*
X95525Y835260D01*
X97701Y837437D01*
Y822200D01*
X112503Y837437D02*
X105247Y827279D01*
X116131D01*
X112503Y837437D02*
Y822200D01*
X90156Y442137D02*
Y430528D01*
X89430Y428351D01*
X88705Y427626D01*
X87253Y426900D01*
X85802D01*
X84351Y427626D01*
X83626Y428351D01*
X82900Y430528D01*
Y431979D01*
X94074Y439235D02*
X95525Y439960D01*
X97701Y442137D01*
Y426900D01*
X106698Y442137D02*
X114679D01*
X110326Y436332D01*
X112503D01*
X113954Y435607D01*
X114679Y434881D01*
X115405Y432705D01*
Y431253D01*
X114679Y429077D01*
X113228Y427626D01*
X111052Y426900D01*
X108875D01*
X106698Y427626D01*
X105973Y428351D01*
X105247Y429802D01*
X90156Y44437D02*
Y32828D01*
X89430Y30651D01*
X88705Y29925D01*
X87253Y29200D01*
X85802D01*
X84351Y29925D01*
X83626Y30651D01*
X82900Y32828D01*
Y34279D01*
X94074Y41535D02*
X95525Y42260D01*
X97701Y44437D01*
Y29200D01*
X105973Y40809D02*
Y41535D01*
X106698Y42986D01*
X107424Y43711D01*
X108875Y44437D01*
X111777D01*
X113228Y43711D01*
X113954Y42986D01*
X114679Y41535D01*
Y40083D01*
X113954Y38632D01*
X112503Y36456D01*
X105247Y29200D01*
X115405D01*
X825463Y581500D02*
X840700D01*
X825463Y591658D02*
X840700D01*
X832719Y581500D02*
Y591658D01*
X825463Y595866D02*
X840700Y601670D01*
X825463Y607475D02*
X840700Y601670D01*
X833444Y621406D02*
Y627936D01*
X832719Y630112D01*
X831993Y630838D01*
X830542Y631564D01*
X828365D01*
X826914Y630838D01*
X826189Y630112D01*
X825463Y627936D01*
Y621406D01*
X840700D01*
X830542Y638601D02*
X831268Y637150D01*
X832719Y635699D01*
X834895Y634974D01*
X836347D01*
X838523Y635699D01*
X839974Y637150D01*
X840700Y638601D01*
Y640778D01*
X839974Y642229D01*
X838523Y643680D01*
X836347Y644406D01*
X834895D01*
X832719Y643680D01*
X831268Y642229D01*
X830542Y640778D01*
Y638601D01*
Y647744D02*
X840700Y650646D01*
X830542Y653548D02*
X840700Y650646D01*
X830542Y653548D02*
X840700Y656450D01*
X830542Y659352D02*
X840700Y656450D01*
X834895Y662908D02*
Y671614D01*
X833444D01*
X831993Y670889D01*
X831268Y670163D01*
X830542Y668712D01*
Y666535D01*
X831268Y665084D01*
X832719Y663633D01*
X834895Y662908D01*
X836347D01*
X838523Y663633D01*
X839974Y665084D01*
X840700Y666535D01*
Y668712D01*
X839974Y670163D01*
X838523Y671614D01*
X830542Y674879D02*
X840700D01*
X834895D02*
X832719Y675605D01*
X831268Y677056D01*
X830542Y678507D01*
Y680684D01*
X342856Y793137D02*
Y781528D01*
X342130Y779351D01*
X341404Y778625D01*
X339953Y777900D01*
X338502D01*
X337051Y778625D01*
X336325Y779351D01*
X335600Y781528D01*
Y782979D01*
X350401Y793137D02*
X348225Y792411D01*
X347499Y790960D01*
Y789509D01*
X348225Y788058D01*
X349676Y787332D01*
X352578Y786607D01*
X354755Y785881D01*
X356206Y784430D01*
X356931Y782979D01*
Y780802D01*
X356206Y779351D01*
X355480Y778625D01*
X353304Y777900D01*
X350401D01*
X348225Y778625D01*
X347499Y779351D01*
X346774Y780802D01*
Y782979D01*
X347499Y784430D01*
X348950Y785881D01*
X351127Y786607D01*
X354029Y787332D01*
X355480Y788058D01*
X356206Y789509D01*
Y790960D01*
X355480Y792411D01*
X353304Y793137D01*
X350401D01*
X1597483Y325509D02*
X1596758Y326960D01*
X1595307Y328411D01*
X1593856Y329137D01*
X1590953D01*
X1589502Y328411D01*
X1588051Y326960D01*
X1587326Y325509D01*
X1586600Y323332D01*
Y319704D01*
X1587326Y317528D01*
X1588051Y316077D01*
X1589502Y314626D01*
X1590953Y313900D01*
X1593856D01*
X1595307Y314626D01*
X1596758Y316077D01*
X1597483Y317528D01*
X1605392Y329137D02*
X1603215Y328411D01*
X1602490Y326960D01*
Y325509D01*
X1603215Y324058D01*
X1604666Y323332D01*
X1607569Y322607D01*
X1609745Y321881D01*
X1611196Y320430D01*
X1611922Y318979D01*
Y316802D01*
X1611196Y315351D01*
X1610471Y314626D01*
X1608294Y313900D01*
X1605392D01*
X1603215Y314626D01*
X1602490Y315351D01*
X1601764Y316802D01*
Y318979D01*
X1602490Y320430D01*
X1603941Y321881D01*
X1606118Y322607D01*
X1609020Y323332D01*
X1610471Y324058D01*
X1611196Y325509D01*
Y326960D01*
X1610471Y328411D01*
X1608294Y329137D01*
X1605392D01*
X1624039D02*
X1616783D01*
X1616058Y322607D01*
X1616783Y323332D01*
X1618960Y324058D01*
X1621137D01*
X1623313Y323332D01*
X1624764Y321881D01*
X1625490Y319704D01*
Y318253D01*
X1624764Y316077D01*
X1623313Y314626D01*
X1621137Y313900D01*
X1618960D01*
X1616783Y314626D01*
X1616058Y315351D01*
X1615332Y316802D01*
X1541191Y351983D02*
X1539740Y351258D01*
X1538289Y349807D01*
X1537563Y348356D01*
Y345453D01*
X1538289Y344002D01*
X1539740Y342551D01*
X1541191Y341826D01*
X1543368Y341100D01*
X1546996D01*
X1549172Y341826D01*
X1550623Y342551D01*
X1552074Y344002D01*
X1552800Y345453D01*
Y348356D01*
X1552074Y349807D01*
X1550623Y351258D01*
X1549172Y351983D01*
X1539740Y366422D02*
X1538289Y364971D01*
X1537563Y362794D01*
Y359892D01*
X1538289Y357715D01*
X1539740Y356264D01*
X1541191D01*
X1542642Y356990D01*
X1543368Y357715D01*
X1544093Y359166D01*
X1545544Y363520D01*
X1546270Y364971D01*
X1546996Y365696D01*
X1548447Y366422D01*
X1550623D01*
X1552074Y364971D01*
X1552800Y362794D01*
Y359892D01*
X1552074Y357715D01*
X1550623Y356264D01*
X1537563Y371283D02*
Y379264D01*
X1543368Y374911D01*
Y377088D01*
X1544093Y378539D01*
X1544819Y379264D01*
X1546996Y379990D01*
X1548447D01*
X1550623Y379264D01*
X1552074Y377813D01*
X1552800Y375637D01*
Y373460D01*
X1552074Y371283D01*
X1551349Y370558D01*
X1549898Y369832D01*
X1776656Y377337D02*
Y365728D01*
X1775930Y363551D01*
X1775204Y362826D01*
X1773753Y362100D01*
X1772302D01*
X1770851Y362826D01*
X1770125Y363551D01*
X1769400Y365728D01*
Y367179D01*
X1780574Y374435D02*
X1782025Y375160D01*
X1784201Y377337D01*
Y362100D01*
X1796101Y377337D02*
X1793924Y376611D01*
X1792473Y374435D01*
X1791747Y370807D01*
Y368630D01*
X1792473Y365002D01*
X1793924Y362826D01*
X1796101Y362100D01*
X1797552D01*
X1799728Y362826D01*
X1801180Y365002D01*
X1801905Y368630D01*
Y370807D01*
X1801180Y374435D01*
X1799728Y376611D01*
X1797552Y377337D01*
X1796101D01*
X1775356Y781137D02*
Y769528D01*
X1774630Y767351D01*
X1773905Y766626D01*
X1772453Y765900D01*
X1771002D01*
X1769551Y766626D01*
X1768826Y767351D01*
X1768100Y769528D01*
Y770979D01*
X1779274Y778234D02*
X1780725Y778960D01*
X1782901Y781137D01*
Y765900D01*
X1790447Y778234D02*
X1791898Y778960D01*
X1794075Y781137D01*
Y765900D01*
X126183Y97409D02*
X125458Y98860D01*
X124007Y100311D01*
X122556Y101037D01*
X119653D01*
X118202Y100311D01*
X116751Y98860D01*
X116025Y97409D01*
X115300Y95232D01*
Y91604D01*
X116025Y89428D01*
X116751Y87977D01*
X118202Y86526D01*
X119653Y85800D01*
X122556D01*
X124007Y86526D01*
X125458Y87977D01*
X126183Y89428D01*
X140622Y98860D02*
X139171Y100311D01*
X136994Y101037D01*
X134092D01*
X131915Y100311D01*
X130464Y98860D01*
Y97409D01*
X131190Y95958D01*
X131915Y95232D01*
X133366Y94507D01*
X137720Y93056D01*
X139171Y92330D01*
X139896Y91604D01*
X140622Y90153D01*
Y87977D01*
X139171Y86526D01*
X136994Y85800D01*
X134092D01*
X131915Y86526D01*
X130464Y87977D01*
X144032Y98134D02*
X145483Y98860D01*
X147660Y101037D01*
Y85800D01*
X125883Y722909D02*
X125158Y724360D01*
X123707Y725811D01*
X122256Y726537D01*
X119353D01*
X117902Y725811D01*
X116451Y724360D01*
X115725Y722909D01*
X115000Y720732D01*
Y717104D01*
X115725Y714928D01*
X116451Y713477D01*
X117902Y712026D01*
X119353Y711300D01*
X122256D01*
X123707Y712026D01*
X125158Y713477D01*
X125883Y714928D01*
X140322Y724360D02*
X138871Y725811D01*
X136694Y726537D01*
X133792D01*
X131615Y725811D01*
X130164Y724360D01*
Y722909D01*
X130890Y721458D01*
X131615Y720732D01*
X133066Y720007D01*
X137420Y718556D01*
X138871Y717830D01*
X139596Y717104D01*
X140322Y715653D01*
Y713477D01*
X138871Y712026D01*
X136694Y711300D01*
X133792D01*
X131615Y712026D01*
X130164Y713477D01*
X144458Y722909D02*
Y723634D01*
X145183Y725086D01*
X145909Y725811D01*
X147360Y726537D01*
X150262D01*
X151713Y725811D01*
X152439Y725086D01*
X153164Y723634D01*
Y722183D01*
X152439Y720732D01*
X150988Y718556D01*
X143732Y711300D01*
X153890D01*
X256983Y433709D02*
X256258Y435160D01*
X254807Y436611D01*
X253356Y437337D01*
X250453D01*
X249002Y436611D01*
X247551Y435160D01*
X246826Y433709D01*
X246100Y431532D01*
Y427905D01*
X246826Y425728D01*
X247551Y424277D01*
X249002Y422826D01*
X250453Y422100D01*
X253356D01*
X254807Y422826D01*
X256258Y424277D01*
X256983Y425728D01*
X264892Y437337D02*
X262715Y436611D01*
X261990Y435160D01*
Y433709D01*
X262715Y432258D01*
X264166Y431532D01*
X267069Y430807D01*
X269245Y430081D01*
X270696Y428630D01*
X271422Y427179D01*
Y425002D01*
X270696Y423551D01*
X269971Y422826D01*
X267794Y422100D01*
X264892D01*
X262715Y422826D01*
X261990Y423551D01*
X261264Y425002D01*
Y427179D01*
X261990Y428630D01*
X263441Y430081D01*
X265618Y430807D01*
X268520Y431532D01*
X269971Y432258D01*
X270696Y433709D01*
Y435160D01*
X269971Y436611D01*
X267794Y437337D01*
X264892D01*
X274832Y434435D02*
X276283Y435160D01*
X278460Y437337D01*
Y422100D01*
X1068884Y954509D02*
X1068158Y955960D01*
X1066707Y957411D01*
X1065256Y958137D01*
X1062354D01*
X1060902Y957411D01*
X1059451Y955960D01*
X1058726Y954509D01*
X1058000Y952332D01*
Y948705D01*
X1058726Y946528D01*
X1059451Y945077D01*
X1060902Y943625D01*
X1062354Y942900D01*
X1065256D01*
X1066707Y943625D01*
X1068158Y945077D01*
X1068884Y946528D01*
X1073164Y955235D02*
X1074615Y955960D01*
X1076792Y958137D01*
Y942900D01*
X1085789Y958137D02*
X1093770D01*
X1089417Y952332D01*
X1091593D01*
X1093045Y951607D01*
X1093770Y950881D01*
X1094496Y948705D01*
Y947253D01*
X1093770Y945077D01*
X1092319Y943625D01*
X1090142Y942900D01*
X1087966D01*
X1085789Y943625D01*
X1085063Y944351D01*
X1084338Y945802D01*
X1211084Y953609D02*
X1210358Y955060D01*
X1208907Y956511D01*
X1207456Y957237D01*
X1204554D01*
X1203102Y956511D01*
X1201651Y955060D01*
X1200926Y953609D01*
X1200200Y951432D01*
Y947804D01*
X1200926Y945628D01*
X1201651Y944177D01*
X1203102Y942726D01*
X1204554Y942000D01*
X1207456D01*
X1208907Y942726D01*
X1210358Y944177D01*
X1211084Y945628D01*
X1215364Y954334D02*
X1216815Y955060D01*
X1218992Y957237D01*
Y942000D01*
X1233793Y957237D02*
X1226538Y947079D01*
X1237421D01*
X1233793Y957237D02*
Y942000D01*
X1492984Y953109D02*
X1492258Y954560D01*
X1490807Y956011D01*
X1489356Y956737D01*
X1486454D01*
X1485002Y956011D01*
X1483551Y954560D01*
X1482826Y953109D01*
X1482100Y950932D01*
Y947305D01*
X1482826Y945128D01*
X1483551Y943677D01*
X1485002Y942225D01*
X1486454Y941500D01*
X1489356D01*
X1490807Y942225D01*
X1492258Y943677D01*
X1492984Y945128D01*
X1497264Y953835D02*
X1498715Y954560D01*
X1500892Y956737D01*
Y941500D01*
X1517145Y954560D02*
X1516419Y956011D01*
X1514242Y956737D01*
X1512791D01*
X1510615Y956011D01*
X1509164Y953835D01*
X1508438Y950207D01*
Y946579D01*
X1509164Y943677D01*
X1510615Y942225D01*
X1512791Y941500D01*
X1513517D01*
X1515694Y942225D01*
X1517145Y943677D01*
X1517870Y945853D01*
Y946579D01*
X1517145Y948756D01*
X1515694Y950207D01*
X1513517Y950932D01*
X1512791D01*
X1510615Y950207D01*
X1509164Y948756D01*
X1508438Y946579D01*
X1352083Y954009D02*
X1351358Y955460D01*
X1349907Y956911D01*
X1348456Y957637D01*
X1345553D01*
X1344102Y956911D01*
X1342651Y955460D01*
X1341926Y954009D01*
X1341200Y951832D01*
Y948204D01*
X1341926Y946028D01*
X1342651Y944577D01*
X1344102Y943126D01*
X1345553Y942400D01*
X1348456D01*
X1349907Y943126D01*
X1351358Y944577D01*
X1352083Y946028D01*
X1356364Y954734D02*
X1357815Y955460D01*
X1359992Y957637D01*
Y942400D01*
X1376245Y957637D02*
X1368989D01*
X1368264Y951107D01*
X1368989Y951832D01*
X1371166Y952558D01*
X1373342D01*
X1375519Y951832D01*
X1376970Y950381D01*
X1377696Y948204D01*
Y946753D01*
X1376970Y944577D01*
X1375519Y943126D01*
X1373342Y942400D01*
X1371166D01*
X1368989Y943126D01*
X1368264Y943851D01*
X1367538Y945302D01*
X1081713Y684529D02*
X1080988Y685980D01*
X1079537Y687431D01*
X1078086Y688157D01*
X1075183D01*
X1073732Y687431D01*
X1072281Y685980D01*
X1071556Y684529D01*
X1070830Y682352D01*
Y678724D01*
X1071556Y676548D01*
X1072281Y675097D01*
X1073732Y673645D01*
X1075183Y672920D01*
X1078086D01*
X1079537Y673645D01*
X1080988Y675097D01*
X1081713Y676548D01*
X1095427Y683078D02*
X1094701Y680901D01*
X1093250Y679450D01*
X1091073Y678724D01*
X1090348D01*
X1088171Y679450D01*
X1086720Y680901D01*
X1085994Y683078D01*
Y683803D01*
X1086720Y685980D01*
X1088171Y687431D01*
X1090348Y688157D01*
X1091073D01*
X1093250Y687431D01*
X1094701Y685980D01*
X1095427Y683078D01*
Y679450D01*
X1094701Y675822D01*
X1093250Y673645D01*
X1091073Y672920D01*
X1089622D01*
X1087445Y673645D01*
X1086720Y675097D01*
X1211183Y684809D02*
X1210458Y686260D01*
X1209007Y687711D01*
X1207556Y688437D01*
X1204653D01*
X1203202Y687711D01*
X1201751Y686260D01*
X1201026Y684809D01*
X1200300Y682632D01*
Y679005D01*
X1201026Y676828D01*
X1201751Y675377D01*
X1203202Y673926D01*
X1204653Y673200D01*
X1207556D01*
X1209007Y673926D01*
X1210458Y675377D01*
X1211183Y676828D01*
X1215464Y685535D02*
X1216915Y686260D01*
X1219092Y688437D01*
Y673200D01*
X1230991Y688437D02*
X1228815Y687711D01*
X1227364Y685535D01*
X1226638Y681907D01*
Y679730D01*
X1227364Y676102D01*
X1228815Y673926D01*
X1230991Y673200D01*
X1232442D01*
X1234619Y673926D01*
X1236070Y676102D01*
X1236796Y679730D01*
Y681907D01*
X1236070Y685535D01*
X1234619Y687711D01*
X1232442Y688437D01*
X1230991D01*
X1492984Y684509D02*
X1492258Y685960D01*
X1490807Y687411D01*
X1489356Y688137D01*
X1486454D01*
X1485002Y687411D01*
X1483551Y685960D01*
X1482826Y684509D01*
X1482100Y682332D01*
Y678705D01*
X1482826Y676528D01*
X1483551Y675077D01*
X1485002Y673626D01*
X1486454Y672900D01*
X1489356D01*
X1490807Y673626D01*
X1492258Y675077D01*
X1492984Y676528D01*
X1497264Y685235D02*
X1498715Y685960D01*
X1500892Y688137D01*
Y672900D01*
X1509164Y684509D02*
Y685235D01*
X1509889Y686686D01*
X1510615Y687411D01*
X1512066Y688137D01*
X1514968D01*
X1516419Y687411D01*
X1517145Y686686D01*
X1517870Y685235D01*
Y683783D01*
X1517145Y682332D01*
X1515694Y680156D01*
X1508438Y672900D01*
X1518596D01*
X1357583Y685809D02*
X1356858Y687260D01*
X1355407Y688711D01*
X1353956Y689437D01*
X1351053D01*
X1349602Y688711D01*
X1348151Y687260D01*
X1347426Y685809D01*
X1346700Y683632D01*
Y680005D01*
X1347426Y677828D01*
X1348151Y676377D01*
X1349602Y674926D01*
X1351053Y674200D01*
X1353956D01*
X1355407Y674926D01*
X1356858Y676377D01*
X1357583Y677828D01*
X1361864Y686535D02*
X1363315Y687260D01*
X1365492Y689437D01*
Y674200D01*
X1373038Y686535D02*
X1374489Y687260D01*
X1376666Y689437D01*
Y674200D01*
X1081713Y414629D02*
X1080988Y416080D01*
X1079537Y417531D01*
X1078086Y418257D01*
X1075183D01*
X1073732Y417531D01*
X1072281Y416080D01*
X1071556Y414629D01*
X1070830Y412452D01*
Y408824D01*
X1071556Y406648D01*
X1072281Y405197D01*
X1073732Y403745D01*
X1075183Y403020D01*
X1078086D01*
X1079537Y403745D01*
X1080988Y405197D01*
X1081713Y406648D01*
X1094701Y418257D02*
X1087445D01*
X1086720Y411727D01*
X1087445Y412452D01*
X1089622Y413178D01*
X1091799D01*
X1093975Y412452D01*
X1095427Y411001D01*
X1096152Y408824D01*
Y407373D01*
X1095427Y405197D01*
X1093975Y403745D01*
X1091799Y403020D01*
X1089622D01*
X1087445Y403745D01*
X1086720Y404471D01*
X1085994Y405922D01*
X1222214Y414029D02*
X1221488Y415480D01*
X1220037Y416931D01*
X1218586Y417657D01*
X1215684D01*
X1214232Y416931D01*
X1212781Y415480D01*
X1212056Y414029D01*
X1211330Y411852D01*
Y408224D01*
X1212056Y406048D01*
X1212781Y404597D01*
X1214232Y403145D01*
X1215684Y402420D01*
X1218586D01*
X1220037Y403145D01*
X1221488Y404597D01*
X1222214Y406048D01*
X1235201Y415480D02*
X1234475Y416931D01*
X1232299Y417657D01*
X1230848D01*
X1228671Y416931D01*
X1227220Y414754D01*
X1226494Y411127D01*
Y407499D01*
X1227220Y404597D01*
X1228671Y403145D01*
X1230848Y402420D01*
X1231573D01*
X1233750Y403145D01*
X1235201Y404597D01*
X1235927Y406773D01*
Y407499D01*
X1235201Y409676D01*
X1233750Y411127D01*
X1231573Y411852D01*
X1230848D01*
X1228671Y411127D01*
X1227220Y409676D01*
X1226494Y407499D01*
X1504114Y414029D02*
X1503388Y415480D01*
X1501937Y416931D01*
X1500486Y417657D01*
X1497583D01*
X1496132Y416931D01*
X1494681Y415480D01*
X1493956Y414029D01*
X1493230Y411852D01*
Y408224D01*
X1493956Y406048D01*
X1494681Y404597D01*
X1496132Y403145D01*
X1497583Y402420D01*
X1500486D01*
X1501937Y403145D01*
X1503388Y404597D01*
X1504114Y406048D01*
X1512022Y417657D02*
X1509845Y416931D01*
X1509120Y415480D01*
Y414029D01*
X1509845Y412578D01*
X1511297Y411852D01*
X1514199Y411127D01*
X1516375Y410401D01*
X1517827Y408950D01*
X1518552Y407499D01*
Y405322D01*
X1517827Y403871D01*
X1517101Y403145D01*
X1514924Y402420D01*
X1512022D01*
X1509845Y403145D01*
X1509120Y403871D01*
X1508394Y405322D01*
Y407499D01*
X1509120Y408950D01*
X1510571Y410401D01*
X1512748Y411127D01*
X1515650Y411852D01*
X1517101Y412578D01*
X1517827Y414029D01*
Y415480D01*
X1517101Y416931D01*
X1514924Y417657D01*
X1512022D01*
X1363613Y414629D02*
X1362888Y416080D01*
X1361437Y417531D01*
X1359986Y418257D01*
X1357083D01*
X1355632Y417531D01*
X1354181Y416080D01*
X1353456Y414629D01*
X1352730Y412452D01*
Y408824D01*
X1353456Y406648D01*
X1354181Y405197D01*
X1355632Y403745D01*
X1357083Y403020D01*
X1359986D01*
X1361437Y403745D01*
X1362888Y405197D01*
X1363613Y406648D01*
X1378052Y418257D02*
X1370797Y403020D01*
X1367894Y418257D02*
X1378052D01*
X1081713Y144129D02*
X1080988Y145580D01*
X1079537Y147031D01*
X1078086Y147757D01*
X1075183D01*
X1073732Y147031D01*
X1072281Y145580D01*
X1071556Y144129D01*
X1070830Y141952D01*
Y138324D01*
X1071556Y136148D01*
X1072281Y134697D01*
X1073732Y133245D01*
X1075183Y132520D01*
X1078086D01*
X1079537Y133245D01*
X1080988Y134697D01*
X1081713Y136148D01*
X1085994Y144854D02*
X1087445Y145580D01*
X1089622Y147757D01*
Y132520D01*
X1222214Y143529D02*
X1221488Y144980D01*
X1220037Y146431D01*
X1218586Y147157D01*
X1215684D01*
X1214232Y146431D01*
X1212781Y144980D01*
X1212056Y143529D01*
X1211330Y141352D01*
Y137724D01*
X1212056Y135548D01*
X1212781Y134097D01*
X1214232Y132646D01*
X1215684Y131920D01*
X1218586D01*
X1220037Y132646D01*
X1221488Y134097D01*
X1222214Y135548D01*
X1227220Y143529D02*
Y144255D01*
X1227945Y145706D01*
X1228671Y146431D01*
X1230122Y147157D01*
X1233024D01*
X1234475Y146431D01*
X1235201Y145706D01*
X1235927Y144255D01*
Y142803D01*
X1235201Y141352D01*
X1233750Y139176D01*
X1226494Y131920D01*
X1236652D01*
X1504114Y143529D02*
X1503388Y144980D01*
X1501937Y146431D01*
X1500486Y147157D01*
X1497583D01*
X1496132Y146431D01*
X1494681Y144980D01*
X1493956Y143529D01*
X1493230Y141352D01*
Y137724D01*
X1493956Y135548D01*
X1494681Y134097D01*
X1496132Y132646D01*
X1497583Y131920D01*
X1500486D01*
X1501937Y132646D01*
X1503388Y134097D01*
X1504114Y135548D01*
X1515650Y147157D02*
X1508394Y136999D01*
X1519278D01*
X1515650Y147157D02*
Y131920D01*
X1363613Y144129D02*
X1362888Y145580D01*
X1361437Y147031D01*
X1359986Y147757D01*
X1357083D01*
X1355632Y147031D01*
X1354181Y145580D01*
X1353456Y144129D01*
X1352730Y141952D01*
Y138324D01*
X1353456Y136148D01*
X1354181Y134697D01*
X1355632Y133245D01*
X1357083Y132520D01*
X1359986D01*
X1361437Y133245D01*
X1362888Y134697D01*
X1363613Y136148D01*
X1369345Y147757D02*
X1377327D01*
X1372973Y141952D01*
X1375150D01*
X1376601Y141227D01*
X1377327Y140501D01*
X1378052Y138324D01*
Y136873D01*
X1377327Y134697D01*
X1375876Y133245D01*
X1373699Y132520D01*
X1371522D01*
X1369345Y133245D01*
X1368620Y133971D01*
X1367894Y135422D01*
X614683Y211109D02*
X613958Y212560D01*
X612507Y214011D01*
X611056Y214737D01*
X608153D01*
X606702Y214011D01*
X605251Y212560D01*
X604526Y211109D01*
X603800Y208932D01*
Y205304D01*
X604526Y203128D01*
X605251Y201677D01*
X606702Y200226D01*
X608153Y199500D01*
X611056D01*
X612507Y200226D01*
X613958Y201677D01*
X614683Y203128D01*
X619690Y211109D02*
Y211835D01*
X620415Y213286D01*
X621141Y214011D01*
X622592Y214737D01*
X625494D01*
X626945Y214011D01*
X627671Y213286D01*
X628397Y211835D01*
Y210383D01*
X627671Y208932D01*
X626220Y206756D01*
X618964Y199500D01*
X629122D01*
X636886Y214737D02*
X634709Y214011D01*
X633258Y211835D01*
X632532Y208207D01*
Y206030D01*
X633258Y202402D01*
X634709Y200226D01*
X636886Y199500D01*
X638337D01*
X640513Y200226D01*
X641964Y202402D01*
X642690Y206030D01*
Y208207D01*
X641964Y211835D01*
X640513Y214011D01*
X638337Y214737D01*
X636886D01*
X741283Y210009D02*
X740558Y211460D01*
X739107Y212911D01*
X737656Y213637D01*
X734753D01*
X733302Y212911D01*
X731851Y211460D01*
X731126Y210009D01*
X730400Y207832D01*
Y204205D01*
X731126Y202028D01*
X731851Y200577D01*
X733302Y199126D01*
X734753Y198400D01*
X737656D01*
X739107Y199126D01*
X740558Y200577D01*
X741283Y202028D01*
X746290Y210009D02*
Y210735D01*
X747015Y212186D01*
X747741Y212911D01*
X749192Y213637D01*
X752094D01*
X753546Y212911D01*
X754271Y212186D01*
X754997Y210735D01*
Y209283D01*
X754271Y207832D01*
X752820Y205656D01*
X745564Y198400D01*
X755722D01*
X759132Y210735D02*
X760583Y211460D01*
X762760Y213637D01*
Y198400D01*
X614300Y78737D02*
Y63500D01*
Y78737D02*
X620830D01*
X623007Y78011D01*
X623732Y77286D01*
X624458Y75834D01*
Y74383D01*
X623732Y72932D01*
X623007Y72207D01*
X620830Y71481D01*
X614300D01*
X619379D02*
X624458Y63500D01*
X627868Y75834D02*
X629319Y76560D01*
X631496Y78737D01*
Y63500D01*
X643395Y78737D02*
X641218Y78011D01*
X639767Y75834D01*
X639041Y72207D01*
Y70030D01*
X639767Y66402D01*
X641218Y64226D01*
X643395Y63500D01*
X644846D01*
X647023Y64226D01*
X648474Y66402D01*
X649199Y70030D01*
Y72207D01*
X648474Y75834D01*
X647023Y78011D01*
X644846Y78737D01*
X643395D01*
X736900Y76037D02*
Y60800D01*
Y76037D02*
X743430D01*
X745607Y75311D01*
X746332Y74586D01*
X747058Y73134D01*
Y71683D01*
X746332Y70232D01*
X745607Y69507D01*
X743430Y68781D01*
X736900D01*
X741979D02*
X747058Y60800D01*
X750468Y73134D02*
X751919Y73860D01*
X754096Y76037D01*
Y60800D01*
X762367Y72409D02*
Y73134D01*
X763093Y74586D01*
X763818Y75311D01*
X765269Y76037D01*
X768172D01*
X769623Y75311D01*
X770348Y74586D01*
X771074Y73134D01*
Y71683D01*
X770348Y70232D01*
X768897Y68056D01*
X761642Y60800D01*
X771799D01*
X704100Y253037D02*
Y237800D01*
Y253037D02*
X710630D01*
X712807Y252311D01*
X713532Y251586D01*
X714258Y250135D01*
Y248683D01*
X713532Y247232D01*
X712807Y246507D01*
X710630Y245781D01*
X704100D01*
X709179D02*
X714258Y237800D01*
X717668Y250135D02*
X719119Y250860D01*
X721296Y253037D01*
Y237800D01*
X728842Y250135D02*
X730293Y250860D01*
X732469Y253037D01*
Y237800D01*
X665400Y252737D02*
Y237500D01*
Y252737D02*
X671930D01*
X674107Y252011D01*
X674832Y251286D01*
X675558Y249834D01*
Y248383D01*
X674832Y246932D01*
X674107Y246207D01*
X671930Y245481D01*
X665400D01*
X670479D02*
X675558Y237500D01*
X688400Y247658D02*
X687675Y245481D01*
X686224Y244030D01*
X684047Y243305D01*
X683321D01*
X681145Y244030D01*
X679694Y245481D01*
X678968Y247658D01*
Y248383D01*
X679694Y250560D01*
X681145Y252011D01*
X683321Y252737D01*
X684047D01*
X686224Y252011D01*
X687675Y250560D01*
X688400Y247658D01*
Y244030D01*
X687675Y240402D01*
X686224Y238226D01*
X684047Y237500D01*
X682596D01*
X680419Y238226D01*
X679694Y239677D01*
X738300Y469837D02*
Y454600D01*
Y469837D02*
X744830D01*
X747007Y469111D01*
X747732Y468386D01*
X748458Y466935D01*
Y465483D01*
X747732Y464032D01*
X747007Y463307D01*
X744830Y462581D01*
X738300D01*
X743379D02*
X748458Y454600D01*
X755496Y469837D02*
X753319Y469111D01*
X752594Y467660D01*
Y466209D01*
X753319Y464758D01*
X754770Y464032D01*
X757672Y463307D01*
X759849Y462581D01*
X761300Y461130D01*
X762026Y459679D01*
Y457502D01*
X761300Y456051D01*
X760575Y455326D01*
X758398Y454600D01*
X755496D01*
X753319Y455326D01*
X752594Y456051D01*
X751868Y457502D01*
Y459679D01*
X752594Y461130D01*
X754045Y462581D01*
X756221Y463307D01*
X759124Y464032D01*
X760575Y464758D01*
X761300Y466209D01*
Y467660D01*
X760575Y469111D01*
X758398Y469837D01*
X755496D01*
X624200Y475137D02*
Y459900D01*
Y475137D02*
X630730D01*
X632907Y474411D01*
X633632Y473686D01*
X634358Y472234D01*
Y470783D01*
X633632Y469332D01*
X632907Y468607D01*
X630730Y467881D01*
X624200D01*
X629279D02*
X634358Y459900D01*
X646475Y472960D02*
X645749Y474411D01*
X643572Y475137D01*
X642121D01*
X639945Y474411D01*
X638493Y472234D01*
X637768Y468607D01*
Y464979D01*
X638493Y462077D01*
X639945Y460625D01*
X642121Y459900D01*
X642847D01*
X645023Y460625D01*
X646475Y462077D01*
X647200Y464253D01*
Y464979D01*
X646475Y467156D01*
X645023Y468607D01*
X642847Y469332D01*
X642121D01*
X639945Y468607D01*
X638493Y467156D01*
X637768Y464979D01*
X704500Y651237D02*
Y636000D01*
Y651237D02*
X711030D01*
X713207Y650511D01*
X713932Y649786D01*
X714658Y648335D01*
Y646883D01*
X713932Y645432D01*
X713207Y644707D01*
X711030Y643981D01*
X704500D01*
X709579D02*
X714658Y636000D01*
X728226Y651237D02*
X720970Y636000D01*
X718068Y651237D02*
X728226D01*
X665800Y650937D02*
Y635700D01*
Y650937D02*
X672330D01*
X674507Y650211D01*
X675232Y649486D01*
X675958Y648035D01*
Y646583D01*
X675232Y645132D01*
X674507Y644407D01*
X672330Y643681D01*
X665800D01*
X670879D02*
X675958Y635700D01*
X688075Y650937D02*
X680819D01*
X680094Y644407D01*
X680819Y645132D01*
X682996Y645858D01*
X685173D01*
X687349Y645132D01*
X688800Y643681D01*
X689526Y641505D01*
Y640053D01*
X688800Y637877D01*
X687349Y636426D01*
X685173Y635700D01*
X682996D01*
X680819Y636426D01*
X680094Y637151D01*
X679368Y638602D01*
X741600Y868337D02*
Y853100D01*
Y868337D02*
X748130D01*
X750307Y867611D01*
X751032Y866886D01*
X751758Y865434D01*
Y863983D01*
X751032Y862532D01*
X750307Y861807D01*
X748130Y861081D01*
X741600D01*
X746679D02*
X751758Y853100D01*
X762423Y868337D02*
X755168Y858179D01*
X766051D01*
X762423Y868337D02*
Y853100D01*
X622400Y872737D02*
Y857500D01*
Y872737D02*
X628930D01*
X631107Y872011D01*
X631832Y871286D01*
X632558Y869835D01*
Y868383D01*
X631832Y866932D01*
X631107Y866207D01*
X628930Y865481D01*
X622400D01*
X627479D02*
X632558Y857500D01*
X636693Y869109D02*
Y869835D01*
X637419Y871286D01*
X638145Y872011D01*
X639596Y872737D01*
X642498D01*
X643949Y872011D01*
X644675Y871286D01*
X645400Y869835D01*
Y868383D01*
X644675Y866932D01*
X643223Y864756D01*
X635968Y857500D01*
X646126D01*
X704800Y1049437D02*
Y1034200D01*
Y1049437D02*
X711330D01*
X713507Y1048711D01*
X714232Y1047986D01*
X714958Y1046535D01*
Y1045083D01*
X714232Y1043632D01*
X713507Y1042907D01*
X711330Y1042181D01*
X704800D01*
X709879D02*
X714958Y1034200D01*
X719819Y1049437D02*
X727800D01*
X723447Y1043632D01*
X725624D01*
X727075Y1042907D01*
X727800Y1042181D01*
X728526Y1040004D01*
Y1038553D01*
X727800Y1036377D01*
X726349Y1034926D01*
X724173Y1034200D01*
X721996D01*
X719819Y1034926D01*
X719094Y1035651D01*
X718368Y1037102D01*
X666100Y1049137D02*
Y1033900D01*
Y1049137D02*
X672630D01*
X674807Y1048411D01*
X675532Y1047686D01*
X676258Y1046235D01*
Y1044783D01*
X675532Y1043332D01*
X674807Y1042607D01*
X672630Y1041881D01*
X666100D01*
X671179D02*
X676258Y1033900D01*
X679668Y1046235D02*
X681119Y1046960D01*
X683296Y1049137D01*
Y1033900D01*
X614983Y613109D02*
X614258Y614560D01*
X612807Y616011D01*
X611356Y616737D01*
X608453D01*
X607002Y616011D01*
X605551Y614560D01*
X604826Y613109D01*
X604100Y610932D01*
Y607304D01*
X604826Y605128D01*
X605551Y603677D01*
X607002Y602225D01*
X608453Y601500D01*
X611356D01*
X612807Y602225D01*
X614258Y603677D01*
X614983Y605128D01*
X619990Y613109D02*
Y613834D01*
X620715Y615286D01*
X621441Y616011D01*
X622892Y616737D01*
X625794D01*
X627245Y616011D01*
X627971Y615286D01*
X628697Y613834D01*
Y612383D01*
X627971Y610932D01*
X626520Y608756D01*
X619264Y601500D01*
X629422D01*
X633558Y613109D02*
Y613834D01*
X634283Y615286D01*
X635009Y616011D01*
X636460Y616737D01*
X639362D01*
X640813Y616011D01*
X641539Y615286D01*
X642264Y613834D01*
Y612383D01*
X641539Y610932D01*
X640088Y608756D01*
X632832Y601500D01*
X642990D01*
X741583Y612009D02*
X740858Y613460D01*
X739407Y614911D01*
X737956Y615637D01*
X735053D01*
X733602Y614911D01*
X732151Y613460D01*
X731426Y612009D01*
X730700Y609832D01*
Y606204D01*
X731426Y604028D01*
X732151Y602577D01*
X733602Y601126D01*
X735053Y600400D01*
X737956D01*
X739407Y601126D01*
X740858Y602577D01*
X741583Y604028D01*
X746590Y612009D02*
Y612734D01*
X747315Y614186D01*
X748041Y614911D01*
X749492Y615637D01*
X752394D01*
X753846Y614911D01*
X754571Y614186D01*
X755297Y612734D01*
Y611283D01*
X754571Y609832D01*
X753120Y607656D01*
X745864Y600400D01*
X756022D01*
X760883Y615637D02*
X768865D01*
X764511Y609832D01*
X766688D01*
X768139Y609107D01*
X768865Y608381D01*
X769590Y606204D01*
Y604753D01*
X768865Y602577D01*
X767413Y601126D01*
X765237Y600400D01*
X763060D01*
X760883Y601126D01*
X760158Y601851D01*
X759432Y603302D01*
X614683Y1010609D02*
X613958Y1012060D01*
X612507Y1013511D01*
X611056Y1014237D01*
X608153D01*
X606702Y1013511D01*
X605251Y1012060D01*
X604526Y1010609D01*
X603800Y1008432D01*
Y1004804D01*
X604526Y1002628D01*
X605251Y1001177D01*
X606702Y999725D01*
X608153Y999000D01*
X611056D01*
X612507Y999725D01*
X613958Y1001177D01*
X614683Y1002628D01*
X619690Y1010609D02*
Y1011335D01*
X620415Y1012786D01*
X621141Y1013511D01*
X622592Y1014237D01*
X625494D01*
X626945Y1013511D01*
X627671Y1012786D01*
X628397Y1011335D01*
Y1009883D01*
X627671Y1008432D01*
X626220Y1006256D01*
X618964Y999000D01*
X629122D01*
X639788Y1014237D02*
X632532Y1004079D01*
X643416D01*
X639788Y1014237D02*
Y999000D01*
X741283Y1009509D02*
X740558Y1010960D01*
X739107Y1012411D01*
X737656Y1013137D01*
X734753D01*
X733302Y1012411D01*
X731851Y1010960D01*
X731126Y1009509D01*
X730400Y1007332D01*
Y1003705D01*
X731126Y1001528D01*
X731851Y1000077D01*
X733302Y998626D01*
X734753Y997900D01*
X737656D01*
X739107Y998626D01*
X740558Y1000077D01*
X741283Y1001528D01*
X746290Y1009509D02*
Y1010235D01*
X747015Y1011686D01*
X747741Y1012411D01*
X749192Y1013137D01*
X752094D01*
X753546Y1012411D01*
X754271Y1011686D01*
X754997Y1010235D01*
Y1008783D01*
X754271Y1007332D01*
X752820Y1005156D01*
X745564Y997900D01*
X755722D01*
X767839Y1013137D02*
X760583D01*
X759858Y1006607D01*
X760583Y1007332D01*
X762760Y1008058D01*
X764937D01*
X767113Y1007332D01*
X768565Y1005881D01*
X769290Y1003705D01*
Y1002253D01*
X768565Y1000077D01*
X767113Y998626D01*
X764937Y997900D01*
X762760D01*
X760583Y998626D01*
X759858Y999351D01*
X759132Y1000802D01*
X343284Y488125D02*
Y476516D01*
X342558Y474339D01*
X341833Y473614D01*
X340382Y472888D01*
X338931D01*
X337479Y473614D01*
X336754Y474339D01*
X336028Y476516D01*
Y477967D01*
X357360Y488125D02*
X350104Y472888D01*
X347202Y488125D02*
X357360D01*
X263484Y387409D02*
X262758Y388860D01*
X261307Y390311D01*
X259856Y391037D01*
X256954D01*
X255502Y390311D01*
X254051Y388860D01*
X253326Y387409D01*
X252600Y385232D01*
Y381604D01*
X253326Y379428D01*
X254051Y377977D01*
X255502Y376526D01*
X256954Y375800D01*
X259856D01*
X261307Y376526D01*
X262758Y377977D01*
X263484Y379428D01*
X271392Y391037D02*
X269215Y390311D01*
X268490Y388860D01*
Y387409D01*
X269215Y385958D01*
X270667Y385232D01*
X273569Y384507D01*
X275745Y383781D01*
X277197Y382330D01*
X277922Y380879D01*
Y378702D01*
X277197Y377251D01*
X276471Y376526D01*
X274294Y375800D01*
X271392D01*
X269215Y376526D01*
X268490Y377251D01*
X267764Y378702D01*
Y380879D01*
X268490Y382330D01*
X269941Y383781D01*
X272118Y384507D01*
X275020Y385232D01*
X276471Y385958D01*
X277197Y387409D01*
Y388860D01*
X276471Y390311D01*
X274294Y391037D01*
X271392D01*
X282058Y387409D02*
Y388134D01*
X282783Y389586D01*
X283509Y390311D01*
X284960Y391037D01*
X287862D01*
X289313Y390311D01*
X290039Y389586D01*
X290765Y388134D01*
Y386683D01*
X290039Y385232D01*
X288588Y383056D01*
X281332Y375800D01*
X291490D01*
X690256Y834937D02*
Y823328D01*
X689530Y821151D01*
X688804Y820426D01*
X687353Y819700D01*
X685902D01*
X684451Y820426D01*
X683726Y821151D01*
X683000Y823328D01*
Y824779D01*
X702880Y834937D02*
X695625D01*
X694899Y828407D01*
X695625Y829132D01*
X697801Y829858D01*
X699978D01*
X702155Y829132D01*
X703606Y827681D01*
X704331Y825505D01*
Y824053D01*
X703606Y821877D01*
X702155Y820426D01*
X699978Y819700D01*
X697801D01*
X695625Y820426D01*
X694899Y821151D01*
X694174Y822602D01*
X690456Y791037D02*
Y779428D01*
X689730Y777251D01*
X689005Y776525D01*
X687553Y775800D01*
X686102D01*
X684651Y776525D01*
X683926Y777251D01*
X683200Y779428D01*
Y780879D01*
X701629Y791037D02*
X694374Y780879D01*
X705257D01*
X701629Y791037D02*
Y775800D01*
X689556Y436537D02*
Y424928D01*
X688830Y422751D01*
X688104Y422025D01*
X686653Y421300D01*
X685202D01*
X683751Y422025D01*
X683026Y422751D01*
X682300Y424928D01*
Y426379D01*
X694925Y436537D02*
X702906D01*
X698552Y430732D01*
X700729D01*
X702180Y430007D01*
X702906Y429281D01*
X703631Y427104D01*
Y425653D01*
X702906Y423477D01*
X701455Y422025D01*
X699278Y421300D01*
X697101D01*
X694925Y422025D01*
X694199Y422751D01*
X693474Y424202D01*
X687456Y392837D02*
Y381228D01*
X686730Y379051D01*
X686004Y378326D01*
X684553Y377600D01*
X683102D01*
X681651Y378326D01*
X680926Y379051D01*
X680200Y381228D01*
Y382679D01*
X692099Y389209D02*
Y389935D01*
X692825Y391386D01*
X693550Y392111D01*
X695001Y392837D01*
X697904D01*
X699355Y392111D01*
X700080Y391386D01*
X700806Y389935D01*
Y388483D01*
X700080Y387032D01*
X698629Y384856D01*
X691374Y377600D01*
X701531D01*
X692656Y41637D02*
Y30028D01*
X691930Y27851D01*
X691205Y27125D01*
X689753Y26400D01*
X688302D01*
X686851Y27125D01*
X686126Y27851D01*
X685400Y30028D01*
Y31479D01*
X696574Y38735D02*
X698025Y39460D01*
X700201Y41637D01*
Y26400D01*
X690256Y1188837D02*
Y1177228D01*
X689530Y1175051D01*
X688804Y1174325D01*
X687353Y1173600D01*
X685902D01*
X684451Y1174325D01*
X683726Y1175051D01*
X683000Y1177228D01*
Y1178679D01*
X702880Y1186660D02*
X702155Y1188111D01*
X699978Y1188837D01*
X698527D01*
X696350Y1188111D01*
X694899Y1185935D01*
X694174Y1182307D01*
Y1178679D01*
X694899Y1175777D01*
X696350Y1174325D01*
X698527Y1173600D01*
X699252D01*
X701429Y1174325D01*
X702880Y1175777D01*
X703606Y1177953D01*
Y1178679D01*
X702880Y1180856D01*
X701429Y1182307D01*
X699252Y1183032D01*
X698527D01*
X696350Y1182307D01*
X694899Y1180856D01*
X694174Y1178679D01*
X803256Y574237D02*
Y562628D01*
X802530Y560451D01*
X801805Y559726D01*
X800353Y559000D01*
X798902D01*
X797451Y559726D01*
X796726Y560451D01*
X796000Y562628D01*
Y564079D01*
X816606Y569158D02*
X815880Y566981D01*
X814429Y565530D01*
X812253Y564804D01*
X811527D01*
X809350Y565530D01*
X807899Y566981D01*
X807174Y569158D01*
Y569883D01*
X807899Y572060D01*
X809350Y573511D01*
X811527Y574237D01*
X812253D01*
X814429Y573511D01*
X815880Y572060D01*
X816606Y569158D01*
Y565530D01*
X815880Y561902D01*
X814429Y559726D01*
X812253Y559000D01*
X810801D01*
X808625Y559726D01*
X807899Y561177D01*
X371691Y368783D02*
X370240Y368058D01*
X368789Y366607D01*
X368063Y365156D01*
Y362253D01*
X368789Y360802D01*
X370240Y359351D01*
X371691Y358625D01*
X373868Y357900D01*
X377495D01*
X379672Y358625D01*
X381123Y359351D01*
X382574Y360802D01*
X383300Y362253D01*
Y365156D01*
X382574Y366607D01*
X381123Y368058D01*
X379672Y368783D01*
X373142Y373064D02*
X380398D01*
X382574Y373790D01*
X383300Y375241D01*
Y377417D01*
X382574Y378869D01*
X380398Y381045D01*
X373142D02*
X383300D01*
X373142Y385036D02*
X383300D01*
X377495D02*
X375319Y385761D01*
X373868Y387213D01*
X373142Y388664D01*
Y390840D01*
Y392219D02*
X383300D01*
X377495D02*
X375319Y392944D01*
X373868Y394396D01*
X373142Y395847D01*
Y398023D01*
X377495Y399402D02*
Y408109D01*
X376044D01*
X374593Y407383D01*
X373868Y406658D01*
X373142Y405206D01*
Y403030D01*
X373868Y401579D01*
X375319Y400127D01*
X377495Y399402D01*
X378947D01*
X381123Y400127D01*
X382574Y401579D01*
X383300Y403030D01*
Y405206D01*
X382574Y406658D01*
X381123Y408109D01*
X373142Y411374D02*
X383300D01*
X376044D02*
X373868Y413550D01*
X373142Y415001D01*
Y417178D01*
X373868Y418629D01*
X376044Y419355D01*
X383300D01*
X368063Y425522D02*
X380398D01*
X382574Y426248D01*
X383300Y427699D01*
Y429150D01*
X373142Y423345D02*
Y428424D01*
X370240Y453456D02*
X368789Y452005D01*
X368063Y449828D01*
Y446926D01*
X368789Y444749D01*
X370240Y443298D01*
X371691D01*
X373142Y444024D01*
X373868Y444749D01*
X374593Y446201D01*
X376044Y450554D01*
X376770Y452005D01*
X377495Y452731D01*
X378947Y453456D01*
X381123D01*
X382574Y452005D01*
X383300Y449828D01*
Y446926D01*
X382574Y444749D01*
X381123Y443298D01*
X377495Y456866D02*
Y465573D01*
X376044D01*
X374593Y464847D01*
X373868Y464122D01*
X373142Y462671D01*
Y460494D01*
X373868Y459043D01*
X375319Y457592D01*
X377495Y456866D01*
X378947D01*
X381123Y457592D01*
X382574Y459043D01*
X383300Y460494D01*
Y462671D01*
X382574Y464122D01*
X381123Y465573D01*
X373142Y468838D02*
X383300D01*
X376044D02*
X373868Y471015D01*
X373142Y472466D01*
Y474642D01*
X373868Y476094D01*
X376044Y476819D01*
X383300D01*
X375319Y488791D02*
X373868Y488065D01*
X373142Y485889D01*
Y483712D01*
X373868Y481535D01*
X375319Y480810D01*
X376770Y481535D01*
X377495Y482986D01*
X378221Y486614D01*
X378947Y488065D01*
X380398Y488791D01*
X381123D01*
X382574Y488065D01*
X383300Y485889D01*
Y483712D01*
X382574Y481535D01*
X381123Y480810D01*
X377495Y491983D02*
Y500690D01*
X376044D01*
X374593Y499964D01*
X373868Y499239D01*
X373142Y497788D01*
Y495611D01*
X373868Y494160D01*
X375319Y492709D01*
X377495Y491983D01*
X378947D01*
X381123Y492709D01*
X382574Y494160D01*
X383300Y495611D01*
Y497788D01*
X382574Y499239D01*
X381123Y500690D01*
X376044Y787000D02*
Y793530D01*
X375319Y795707D01*
X374593Y796432D01*
X373142Y797158D01*
X370965D01*
X369514Y796432D01*
X368789Y795707D01*
X368063Y793530D01*
Y787000D01*
X383300D01*
X368063Y800568D02*
X383300D01*
X373142Y812467D02*
X383300D01*
X375319D02*
X373868Y811016D01*
X373142Y809565D01*
Y807388D01*
X373868Y805937D01*
X375319Y804486D01*
X377495Y803760D01*
X378947D01*
X381123Y804486D01*
X382574Y805937D01*
X383300Y807388D01*
Y809565D01*
X382574Y811016D01*
X381123Y812467D01*
X368063Y818707D02*
X380398D01*
X382574Y819432D01*
X383300Y820884D01*
Y822335D01*
X373142Y816530D02*
Y821609D01*
X377495Y824511D02*
Y833218D01*
X376044D01*
X374593Y832493D01*
X373868Y831767D01*
X373142Y830316D01*
Y828139D01*
X373868Y826688D01*
X375319Y825237D01*
X377495Y824511D01*
X378947D01*
X381123Y825237D01*
X382574Y826688D01*
X383300Y828139D01*
Y830316D01*
X382574Y831767D01*
X381123Y833218D01*
X368063Y853534D02*
X383300D01*
X368063Y848455D02*
Y858613D01*
X377495Y860426D02*
Y869133D01*
X376044D01*
X374593Y868408D01*
X373868Y867682D01*
X373142Y866231D01*
Y864054D01*
X373868Y862603D01*
X375319Y861152D01*
X377495Y860426D01*
X378947D01*
X381123Y861152D01*
X382574Y862603D01*
X383300Y864054D01*
Y866231D01*
X382574Y867682D01*
X381123Y869133D01*
X373142Y872398D02*
X383300D01*
X376044D02*
X373868Y874575D01*
X373142Y876026D01*
Y878203D01*
X373868Y879654D01*
X376044Y880379D01*
X383300D01*
X376044D02*
X373868Y882556D01*
X373142Y884007D01*
Y886184D01*
X373868Y887635D01*
X376044Y888361D01*
X383300D01*
X373142Y893149D02*
X388379D01*
X375319D02*
X373868Y894600D01*
X373142Y896051D01*
Y898228D01*
X373868Y899679D01*
X375319Y901130D01*
X377495Y901856D01*
X378947D01*
X381123Y901130D01*
X382574Y899679D01*
X383300Y898228D01*
Y896051D01*
X382574Y894600D01*
X381123Y893149D01*
X0Y1207700D02*
X1879800D01*
Y0D02*
Y1207700D01*
X0Y0D02*
X1879800D01*
X0D02*
Y1207700D01*
D18*
X1592900Y197500D02*
X1596900D01*
X1594900Y195500D02*
Y199500D01*
D33*
X1750200Y201100D02*
Y218886D01*
Y116300D02*
Y136800D01*
X1757820Y137500D02*
Y201100D01*
X1742580Y137500D02*
X1757820D01*
X1742580D02*
Y201100D01*
X1757820D01*
X1714900Y201600D02*
Y219386D01*
Y115600D02*
Y137200D01*
X1722520Y137500D02*
Y201600D01*
X1707280Y137500D02*
X1722520D01*
X1707280D02*
Y201600D01*
X1722520D01*
X1577900Y205000D02*
Y224000D01*
X1611900Y205000D02*
Y224000D01*
X1577900D02*
X1611900D01*
X1581900Y168000D02*
X1607900D01*
X1577900Y173000D02*
Y190000D01*
X1607900Y168000D02*
X1611900Y173000D01*
X1577900Y173000D02*
X1581900Y168000D01*
X1611900Y173000D02*
Y190000D01*
X1663000Y126300D02*
X1680786D01*
X1593700D02*
X1609700D01*
Y118680D02*
X1663000D01*
X1609700D02*
Y133920D01*
X1663000D01*
Y118680D02*
Y133920D01*
X1662800Y152800D02*
X1680586D01*
X1593500D02*
X1609500D01*
Y145180D02*
X1662800D01*
X1609500D02*
Y160420D01*
X1662800D01*
Y145180D02*
Y160420D01*
X1625800Y277700D02*
X1702000D01*
Y303100D01*
X1625800D02*
X1702000D01*
X1625800Y277700D02*
Y303100D01*
X334400Y798700D02*
Y849500D01*
Y798700D02*
X359800D01*
Y849500D01*
X334400D02*
X359800D01*
X1648500Y317600D02*
Y330600D01*
X1556400Y340300D02*
Y603310D01*
Y340300D02*
X1761600D01*
Y603310D01*
X1556400D02*
X1761600D01*
X681700Y1066500D02*
X707100D01*
X681700D02*
Y1168100D01*
X707100Y1066500D02*
Y1168100D01*
X681700D02*
X707100D01*
X681700Y841600D02*
X707100D01*
X681700D02*
Y943200D01*
X707100Y841600D02*
Y943200D01*
X681700D02*
X707100D01*
X681700Y668100D02*
X707100D01*
X681700D02*
Y769700D01*
X707100Y668100D02*
Y769700D01*
X681700D02*
X707100D01*
X681700Y443400D02*
X707100D01*
X681700D02*
Y545000D01*
X707100Y443400D02*
Y545000D01*
X681700D02*
X707100D01*
X681700Y270000D02*
X707100D01*
X681700D02*
Y371600D01*
X707100Y270000D02*
Y371600D01*
X681700D02*
X707100D01*
X681700Y46200D02*
X707100D01*
X681700D02*
Y147800D01*
X707100Y46200D02*
Y147800D01*
X681700D02*
X707100D01*
X725400Y182200D02*
Y198200D01*
X694400Y182200D02*
Y198200D01*
X681100Y182200D02*
Y198200D01*
X650100Y182200D02*
Y198200D01*
X219500Y419700D02*
Y432700D01*
X1309550Y387510D02*
X1384750D01*
Y127510D02*
Y387510D01*
X1309550Y127510D02*
X1384750D01*
X1259750Y192510D02*
Y322510D01*
Y127510D02*
Y192510D01*
Y322510D02*
Y387510D01*
Y127510D02*
X1309550D01*
X1259750Y387510D02*
X1309550D01*
X1450050Y386910D02*
X1525250D01*
Y126910D02*
Y386910D01*
X1450050Y126910D02*
X1525250D01*
X1400250Y191910D02*
Y321910D01*
Y126910D02*
Y191910D01*
Y321910D02*
Y386910D01*
Y126910D02*
X1450050D01*
X1400250Y386910D02*
X1450050D01*
X1168150D02*
X1243350D01*
Y126910D02*
Y386910D01*
X1168150Y126910D02*
X1243350D01*
X1118350Y191910D02*
Y321910D01*
Y126910D02*
Y191910D01*
Y321910D02*
Y386910D01*
Y126910D02*
X1168150D01*
X1118350Y386910D02*
X1168150D01*
X1027650Y387510D02*
X1102850D01*
Y127510D02*
Y387510D01*
X1027650Y127510D02*
X1102850D01*
X977850Y192510D02*
Y322510D01*
Y127510D02*
Y192510D01*
Y322510D02*
Y387510D01*
Y127510D02*
X1027650D01*
X977850Y387510D02*
X1027650D01*
X1309550Y658010D02*
X1384750D01*
Y398010D02*
Y658010D01*
X1309550Y398010D02*
X1384750D01*
X1259750Y463010D02*
Y593010D01*
Y398010D02*
Y463010D01*
Y593010D02*
Y658010D01*
Y398010D02*
X1309550D01*
X1259750Y658010D02*
X1309550D01*
X1450050Y657410D02*
X1525250D01*
Y397410D02*
Y657410D01*
X1450050Y397410D02*
X1525250D01*
X1400250Y462410D02*
Y592410D01*
Y397410D02*
Y462410D01*
Y592410D02*
Y657410D01*
Y397410D02*
X1450050D01*
X1400250Y657410D02*
X1450050D01*
X1168150D02*
X1243350D01*
Y397410D02*
Y657410D01*
X1168150Y397410D02*
X1243350D01*
X1118350Y462410D02*
Y592410D01*
Y397410D02*
Y462410D01*
Y592410D02*
Y657410D01*
Y397410D02*
X1168150D01*
X1118350Y657410D02*
X1168150D01*
X1027650Y658010D02*
X1102850D01*
Y398010D02*
Y658010D01*
X1027650Y398010D02*
X1102850D01*
X977850Y463010D02*
Y593010D01*
Y398010D02*
Y463010D01*
Y593010D02*
Y658010D01*
Y398010D02*
X1027650D01*
X977850Y658010D02*
X1027650D01*
X1309550Y927910D02*
X1384750D01*
Y667910D02*
Y927910D01*
X1309550Y667910D02*
X1384750D01*
X1259750Y732910D02*
Y862910D01*
Y667910D02*
Y732910D01*
Y862910D02*
Y927910D01*
Y667910D02*
X1309550D01*
X1259750Y927910D02*
X1309550D01*
X1450050Y927310D02*
X1525250D01*
Y667310D02*
Y927310D01*
X1450050Y667310D02*
X1525250D01*
X1400250Y732310D02*
Y862310D01*
Y667310D02*
Y732310D01*
Y862310D02*
Y927310D01*
Y667310D02*
X1450050D01*
X1400250Y927310D02*
X1450050D01*
X1168150D02*
X1243350D01*
Y667310D02*
Y927310D01*
X1168150Y667310D02*
X1243350D01*
X1118350Y732310D02*
Y862310D01*
Y667310D02*
Y732310D01*
Y862310D02*
Y927310D01*
Y667310D02*
X1168150D01*
X1118350Y927310D02*
X1168150D01*
X1027650Y927910D02*
X1102850D01*
Y667910D02*
Y927910D01*
X1027650Y667910D02*
X1102850D01*
X977850Y732910D02*
Y862910D01*
Y667910D02*
Y732910D01*
Y862910D02*
Y927910D01*
Y667910D02*
X1027650D01*
X977850Y927910D02*
X1027650D01*
X1309550Y1196510D02*
X1384750D01*
Y936510D02*
Y1196510D01*
X1309550Y936510D02*
X1384750D01*
X1259750Y1001510D02*
Y1131510D01*
Y936510D02*
Y1001510D01*
Y1131510D02*
Y1196510D01*
Y936510D02*
X1309550D01*
X1259750Y1196510D02*
X1309550D01*
X1450050Y1195910D02*
X1525250D01*
Y935910D02*
Y1195910D01*
X1450050Y935910D02*
X1525250D01*
X1400250Y1000910D02*
Y1130910D01*
Y935910D02*
Y1000910D01*
Y1130910D02*
Y1195910D01*
Y935910D02*
X1450050D01*
X1400250Y1195910D02*
X1450050D01*
X1168150D02*
X1243350D01*
Y935910D02*
Y1195910D01*
X1168150Y935910D02*
X1243350D01*
X1118350Y1000910D02*
Y1130910D01*
Y935910D02*
Y1000910D01*
Y1130910D02*
Y1195910D01*
Y935910D02*
X1168150D01*
X1118350Y1195910D02*
X1168150D01*
X1027650Y1196510D02*
X1102850D01*
Y936510D02*
Y1196510D01*
X1027650Y936510D02*
X1102850D01*
X977850Y1001510D02*
Y1131510D01*
Y936510D02*
Y1001510D01*
Y1131510D02*
Y1196510D01*
Y936510D02*
X1027650D01*
X977850Y1196510D02*
X1027650D01*
X114390Y441220D02*
Y704110D01*
Y441220D02*
X313780D01*
Y704110D01*
X114390D02*
X313780D01*
X319800Y106090D02*
Y369100D01*
X114600D02*
X319800D01*
X114600Y106090D02*
Y369100D01*
Y106090D02*
X319800D01*
X661000Y52314D02*
Y70100D01*
Y123400D02*
Y139400D01*
X653380Y70100D02*
Y123400D01*
X668620D01*
Y70100D02*
Y123400D01*
X653380Y70100D02*
X668620D01*
X724600Y52314D02*
Y70100D01*
Y123400D02*
Y139400D01*
X716980Y70100D02*
Y123400D01*
X732220D01*
Y70100D02*
Y123400D01*
X716980Y70100D02*
X732220D01*
X724600Y276214D02*
Y294000D01*
Y347300D02*
Y363300D01*
X716980Y294000D02*
Y347300D01*
X732220D01*
Y294000D02*
Y347300D01*
X716980Y294000D02*
X732220D01*
X661000Y276214D02*
Y294000D01*
Y347300D02*
Y363300D01*
X653380Y294000D02*
Y347300D01*
X668620D01*
Y294000D02*
Y347300D01*
X653380Y294000D02*
X668620D01*
X725000Y449414D02*
Y467200D01*
Y520500D02*
Y536500D01*
X717380Y467200D02*
Y520500D01*
X732620D01*
Y467200D02*
Y520500D01*
X717380Y467200D02*
X732620D01*
X661400Y449414D02*
Y467200D01*
Y520500D02*
Y536500D01*
X653780Y467200D02*
Y520500D01*
X669020D01*
Y467200D02*
Y520500D01*
X653780Y467200D02*
X669020D01*
X725000Y674414D02*
Y692200D01*
Y745500D02*
Y761500D01*
X717380Y692200D02*
Y745500D01*
X732620D01*
Y692200D02*
Y745500D01*
X717380Y692200D02*
X732620D01*
X661400Y674414D02*
Y692200D01*
Y745500D02*
Y761500D01*
X653780Y692200D02*
Y745500D01*
X669020D01*
Y692200D02*
Y745500D01*
X653780Y692200D02*
X669020D01*
X725300Y847514D02*
Y865300D01*
Y918600D02*
Y934600D01*
X717680Y865300D02*
Y918600D01*
X732920D01*
Y865300D02*
Y918600D01*
X717680Y865300D02*
X732920D01*
X661700Y847514D02*
Y865300D01*
Y918600D02*
Y934600D01*
X654080Y865300D02*
Y918600D01*
X669320D01*
Y865300D02*
Y918600D01*
X654080Y865300D02*
X669320D01*
X725300Y1072614D02*
Y1090400D01*
Y1143700D02*
Y1159700D01*
X717680Y1090400D02*
Y1143700D01*
X732920D01*
Y1090400D02*
Y1143700D01*
X717680Y1090400D02*
X732920D01*
X661700Y1072614D02*
Y1090400D01*
Y1143700D02*
Y1159700D01*
X654080Y1090400D02*
Y1143700D01*
X669320D01*
Y1090400D02*
Y1143700D01*
X654080Y1090400D02*
X669320D01*
X681400Y584200D02*
Y600200D01*
X650400Y584200D02*
Y600200D01*
X725700Y584200D02*
Y600200D01*
X694700Y584200D02*
Y600200D01*
X681100Y981700D02*
Y997700D01*
X650100Y981700D02*
Y997700D01*
X725400Y981700D02*
Y997700D01*
X694400Y981700D02*
Y997700D01*
X334400Y362700D02*
X359800D01*
X334400D02*
Y464300D01*
X359800Y362700D02*
Y464300D01*
X334400D02*
X359800D01*
X227300Y379900D02*
Y392900D01*
X794800Y579800D02*
Y630600D01*
Y579800D02*
X820200D01*
Y630600D01*
X794800D02*
X820200D01*
D34*
X1692128Y361097D02*
X1699984D01*
X1695699Y355384D01*
X1697841D01*
X1699270Y354670D01*
X1699984Y353955D01*
X1700698Y351813D01*
Y350385D01*
X1699984Y348242D01*
X1698555Y346814D01*
X1696413Y346100D01*
X1694271D01*
X1692128Y346814D01*
X1691414Y347528D01*
X1690700Y348956D01*
X1621900Y358940D02*
X1623328Y359654D01*
X1625471Y361797D01*
Y346800D01*
X247898Y462567D02*
X255754D01*
X251469Y456854D01*
X253611D01*
X255040Y456140D01*
X255754Y455425D01*
X256468Y453283D01*
Y451855D01*
X255754Y449712D01*
X254326Y448284D01*
X252183Y447570D01*
X250041D01*
X247898Y448284D01*
X247184Y448998D01*
X246470Y450426D01*
X175350Y459710D02*
X176778Y460424D01*
X178921Y462567D01*
Y447570D01*
X175128Y363197D02*
X182984D01*
X178699Y357484D01*
X180842D01*
X182270Y356770D01*
X182984Y356055D01*
X183698Y353913D01*
Y352485D01*
X182984Y350342D01*
X181556Y348914D01*
X179413Y348200D01*
X177271D01*
X175128Y348914D01*
X174414Y349628D01*
X173700Y351057D01*
X251800Y361940D02*
X253228Y362654D01*
X255371Y364797D01*
Y349800D01*
D35*
X1812407Y422900D02*
X1844400D01*
X1812407D02*
Y433564D01*
X1813930Y438135D01*
X1816977Y441182D01*
X1820024Y442705D01*
X1824595Y444229D01*
X1832212D01*
X1836783Y442705D01*
X1839830Y441182D01*
X1842876Y438135D01*
X1844400Y433564D01*
Y422900D01*
X1820024Y474241D02*
X1816977Y472718D01*
X1813930Y469671D01*
X1812407Y466624D01*
Y460530D01*
X1813930Y457483D01*
X1816977Y454436D01*
X1820024Y452913D01*
X1824595Y451389D01*
X1832212D01*
X1836783Y452913D01*
X1839830Y454436D01*
X1842876Y457483D01*
X1844400Y460530D01*
Y466624D01*
X1842876Y469671D01*
X1839830Y472718D01*
X1836783Y474241D01*
X1855064Y483230D02*
Y507606D01*
X1812407Y511719D02*
X1844400D01*
X1812407D02*
X1844400Y533048D01*
X1812407D02*
X1844400D01*
X1812407Y561689D02*
Y541884D01*
X1844400D01*
Y561689D01*
X1827642Y541884D02*
Y554072D01*
X1820024Y589874D02*
X1816977Y588350D01*
X1813930Y585303D01*
X1812407Y582256D01*
Y576162D01*
X1813930Y573116D01*
X1816977Y570069D01*
X1820024Y568545D01*
X1824595Y567022D01*
X1832212D01*
X1836783Y568545D01*
X1839830Y570069D01*
X1842876Y573116D01*
X1844400Y576162D01*
Y582256D01*
X1842876Y585303D01*
X1839830Y588350D01*
X1836783Y589874D01*
X1832212D01*
Y582256D02*
Y589874D01*
X1806313Y632988D02*
X1809360Y629941D01*
X1813930Y626894D01*
X1820024Y623848D01*
X1827642Y622324D01*
X1833736D01*
X1841353Y623848D01*
X1847447Y626894D01*
X1852017Y629941D01*
X1855064Y632988D01*
X1809360Y629941D02*
X1815454Y626894D01*
X1820024Y625371D01*
X1827642Y623848D01*
X1833736D01*
X1841353Y625371D01*
X1845923Y626894D01*
X1852017Y629941D01*
X1830689Y639082D02*
Y666505D01*
X1806313Y675951D02*
X1809360Y678998D01*
X1813930Y682045D01*
X1820024Y685092D01*
X1827642Y686615D01*
X1833736D01*
X1841353Y685092D01*
X1847447Y682045D01*
X1852017Y678998D01*
X1855064Y675951D01*
X1809360Y678998D02*
X1815454Y682045D01*
X1820024Y683568D01*
X1827642Y685092D01*
X1833736D01*
X1841353Y683568D01*
X1845923Y682045D01*
X1852017Y678998D01*
X1818407Y857400D02*
X1850400D01*
X1818407D02*
Y868064D01*
X1819930Y872635D01*
X1822977Y875682D01*
X1826024Y877205D01*
X1830595Y878729D01*
X1838212D01*
X1842783Y877205D01*
X1845830Y875682D01*
X1848876Y872635D01*
X1850400Y868064D01*
Y857400D01*
X1826024Y908741D02*
X1822977Y907218D01*
X1819930Y904171D01*
X1818407Y901124D01*
Y895030D01*
X1819930Y891983D01*
X1822977Y888936D01*
X1826024Y887413D01*
X1830595Y885889D01*
X1838212D01*
X1842783Y887413D01*
X1845830Y888936D01*
X1848876Y891983D01*
X1850400Y895030D01*
Y901124D01*
X1848876Y904171D01*
X1845830Y907218D01*
X1842783Y908741D01*
X1861064Y917730D02*
Y942106D01*
X1835165Y946219D02*
Y959930D01*
X1833642Y964501D01*
X1832118Y966024D01*
X1829071Y967548D01*
X1824501D01*
X1821454Y966024D01*
X1819930Y964501D01*
X1818407Y959930D01*
Y946219D01*
X1850400D01*
X1818407Y983849D02*
X1819930Y980802D01*
X1822977Y977755D01*
X1826024Y976232D01*
X1830595Y974708D01*
X1838212D01*
X1842783Y976232D01*
X1845830Y977755D01*
X1848876Y980802D01*
X1850400Y983849D01*
Y989943D01*
X1848876Y992990D01*
X1845830Y996037D01*
X1842783Y997561D01*
X1838212Y999084D01*
X1830595D01*
X1826024Y997561D01*
X1822977Y996037D01*
X1819930Y992990D01*
X1818407Y989943D01*
Y983849D01*
X1822977Y1027878D02*
X1819930Y1024831D01*
X1818407Y1020260D01*
Y1014166D01*
X1819930Y1009596D01*
X1822977Y1006549D01*
X1826024D01*
X1829071Y1008073D01*
X1830595Y1009596D01*
X1832118Y1012643D01*
X1835165Y1021784D01*
X1836689Y1024831D01*
X1838212Y1026354D01*
X1841259Y1027878D01*
X1845830D01*
X1848876Y1024831D01*
X1850400Y1020260D01*
Y1014166D01*
X1848876Y1009596D01*
X1845830Y1006549D01*
X1812313Y1070840D02*
X1815360Y1067793D01*
X1819930Y1064746D01*
X1826024Y1061699D01*
X1833642Y1060176D01*
X1839736D01*
X1847353Y1061699D01*
X1853447Y1064746D01*
X1858017Y1067793D01*
X1861064Y1070840D01*
X1815360Y1067793D02*
X1821454Y1064746D01*
X1826024Y1063223D01*
X1833642Y1061699D01*
X1839736D01*
X1847353Y1063223D01*
X1851924Y1064746D01*
X1858017Y1067793D01*
X1822977Y1090645D02*
X1850400D01*
X1836689Y1076934D02*
Y1104357D01*
X1812313Y1113802D02*
X1815360Y1116849D01*
X1819930Y1119896D01*
X1826024Y1122943D01*
X1833642Y1124467D01*
X1839736D01*
X1847353Y1122943D01*
X1853447Y1119896D01*
X1858017Y1116849D01*
X1861064Y1113802D01*
X1815360Y1116849D02*
X1821454Y1119896D01*
X1826024Y1121420D01*
X1833642Y1122943D01*
X1839736D01*
X1847353Y1121420D01*
X1851924Y1119896D01*
X1858017Y1116849D01*
M02*
