M48
;Layer_Color=9474304
;FILE_FORMAT=4:4
METRIC,TZ
;TYPE=PLATED
T7F00S00C2.0000
;TYPE=NON_PLATED
%
G90
G05
T07
G00X316725Y89000
M15
G01Y69000
M16
G00X287880Y141650
M15
G01X247880
M16
G00X187550Y141650
M15
G01X147550
M16
G00X94475Y144000
M15
G01Y124000
M16
G00X94475Y199000
M15
G01Y179000
M16
G00X94475Y254000
M15
G01Y234000
M16
G00X94475Y89000
M15
G01Y69000
M16
G00X94475Y309000
M15
G01Y289000
M16
G00X94475Y364000
M15
G01Y344000
M16
G00X94475Y486700
M15
G01Y466700
M16
G00X94475Y541700
M15
G01Y521700
M16
G00X94475Y596700
M15
G01Y576700
M16
G00X94475Y651700
M15
G01Y631700
M16
G00X143920Y668550
M15
G01X183920
M16
G00X244250Y668550
M15
G01X284250
M16
G00X316725Y486700
M15
G01Y466700
M16
G00X1588320Y567750
M15
G01X1628320
M16
G00X1688650Y567750
M15
G01X1728650
M16
G00X1776325Y574100
M15
G01Y594100
M16
G00X1776325Y629100
M15
G01Y649100
M16
G00X1776325Y519100
M15
G01Y539100
M16
G00X1776325Y464100
M15
G01Y484100
M16
G00X1776325Y409100
M15
G01Y429100
M16
G00X1776325Y684100
M15
G01Y704100
M16
G00X1775325Y804600
M15
G01Y824600
M16
G00X1775325Y859600
M15
G01Y879600
M16
G00X1775325Y914600
M15
G01Y934600
M16
G00X1775325Y969600
M15
G01Y989600
M16
G00X1775325Y1024600
M15
G01Y1044600
M16
G00X1554075Y684100
M15
G01Y704100
M16
G00X316725Y882000
M15
G01Y862000
M16
G00X94475Y882000
M15
G01Y862000
M16
G00X94475Y937000
M15
G01Y917000
M16
G00X94475Y992000
M15
G01Y972000
M16
G00X94475Y1047000
M15
G01Y1027000
M16
G00X94475Y761700
M15
G01Y741700
M16
G00X94475Y706700
M15
G01Y686700
M16
G00X94475Y1102000
M15
G01Y1082000
M16
G00X94475Y1157000
M15
G01Y1137000
M16
G00X1553075Y1079600
M15
G01Y1099600
M16
G00X1775325Y1079600
M15
G01Y1099600
M16
M17
M30
