G04 Layer_Physical_Order=1*
G04 Layer_Color=255*
%FSLAX44Y44*%
%MOMM*%
G71*
G01*
G75*
%ADD10R,2.6000X1.5000*%
%ADD11R,1.4000X1.5000*%
%ADD12R,3.3000X1.4000*%
%ADD13C,0.2540*%
%ADD14C,0.8000*%
%ADD15C,0.4000*%
%ADD16C,5.0000*%
%ADD17C,3.0000*%
%ADD18C,0.1000*%
%ADD19C,1.5240*%
%ADD20C,1.4000*%
%ADD21R,1.5000X1.5000*%
%ADD22C,1.5000*%
G04:AMPARAMS|DCode=23|XSize=4.8mm|YSize=2.4mm|CornerRadius=0.6mm|HoleSize=0mm|Usage=FLASHONLY|Rotation=270.000|XOffset=0mm|YOffset=0mm|HoleType=Round|Shape=RoundedRectangle|*
%AMROUNDEDRECTD23*
21,1,4.8000,1.2000,0,0,270.0*
21,1,3.6000,2.4000,0,0,270.0*
1,1,1.2000,-0.6000,-1.8000*
1,1,1.2000,-0.6000,1.8000*
1,1,1.2000,0.6000,1.8000*
1,1,1.2000,0.6000,-1.8000*
%
%ADD23ROUNDEDRECTD23*%
%ADD24R,1.5000X1.5000*%
%ADD25O,9.0000X6.0000*%
%ADD26C,5.0000*%
%ADD27C,2.3000*%
%ADD28R,2.3000X2.3000*%
%ADD29C,1.6000*%
%ADD30C,0.8000*%
G36*
X761701Y392948D02*
X761222Y391830D01*
X734210D01*
Y383284D01*
X732940Y382926D01*
X730652Y384682D01*
X727733Y385891D01*
X724600Y386303D01*
X721468Y385891D01*
X718548Y384682D01*
X716042Y382758D01*
X714118Y380252D01*
X712909Y377333D01*
X712497Y374200D01*
X712909Y371067D01*
X714118Y368148D01*
X716042Y365642D01*
X718548Y363718D01*
X721468Y362509D01*
X724600Y362096D01*
X727733Y362509D01*
X730652Y363718D01*
X732940Y365474D01*
X734210Y365116D01*
Y358830D01*
X767210D01*
Y385954D01*
X768384Y386440D01*
X773900Y380923D01*
X773900Y350923D01*
X750710D01*
X746003Y350552D01*
X741411Y349450D01*
X737048Y347643D01*
X733022Y345176D01*
X729432Y342109D01*
X726365Y338518D01*
X723897Y334492D01*
X722090Y330129D01*
X720988Y325538D01*
X720618Y320830D01*
X720988Y316123D01*
X722090Y311531D01*
X723897Y307168D01*
X726365Y303142D01*
X729432Y299551D01*
X733022Y296485D01*
X737048Y294017D01*
X741411Y292210D01*
X746003Y291108D01*
X750710Y290737D01*
X773900D01*
Y284600D01*
X773900Y279600D01*
Y272000D01*
X773900Y230195D01*
X773002Y229297D01*
X665600D01*
X661679Y228911D01*
X657909Y227767D01*
X654435Y225910D01*
X651390Y223411D01*
X649575Y221200D01*
X644100D01*
Y197200D01*
X649575D01*
X651390Y194989D01*
X653487Y193268D01*
X653033Y191998D01*
X625600D01*
X624605Y191800D01*
X623200D01*
X614900Y183500D01*
Y139100D01*
X627000Y127000D01*
X628905D01*
X629900Y126802D01*
X677100D01*
X678095Y127000D01*
X681900D01*
Y122600D01*
X689561D01*
X689813Y121330D01*
X688096Y120619D01*
X685485Y118615D01*
X683481Y116004D01*
X682222Y112963D01*
X681792Y109700D01*
X682222Y106437D01*
X683481Y103396D01*
X685485Y100785D01*
X688096Y98781D01*
X690823Y97652D01*
X690823Y97650D01*
Y96350D01*
X690823Y96348D01*
X688096Y95219D01*
X685485Y93215D01*
X683481Y90604D01*
X682222Y87563D01*
X681792Y84300D01*
X682222Y81037D01*
X683481Y77996D01*
X685485Y75385D01*
X688096Y73381D01*
X691137Y72122D01*
X694400Y71692D01*
X697663Y72122D01*
X700704Y73381D01*
X703315Y75385D01*
X705319Y77996D01*
X706578Y81037D01*
X707008Y84300D01*
X706578Y87563D01*
X705319Y90604D01*
X703315Y93215D01*
X700704Y95219D01*
X697977Y96348D01*
X697977Y96350D01*
Y97650D01*
X697977Y97652D01*
X700704Y98781D01*
X703315Y100785D01*
X705319Y103396D01*
X706578Y106437D01*
X707008Y109700D01*
X706578Y112963D01*
X705319Y116004D01*
X703315Y118615D01*
X700704Y120619D01*
X698987Y121330D01*
X699239Y122600D01*
X706900D01*
Y126102D01*
X707798Y127000D01*
X709000D01*
X745847Y127000D01*
X746003Y125762D01*
X741411Y124660D01*
X737048Y122853D01*
X733022Y120386D01*
X729432Y117319D01*
X726365Y113728D01*
X723897Y109702D01*
X722090Y105339D01*
X720988Y100748D01*
X720618Y96040D01*
X720988Y91333D01*
X722090Y86741D01*
X723897Y82378D01*
X726365Y78352D01*
X729432Y74761D01*
X733022Y71695D01*
X737048Y69227D01*
X741411Y67420D01*
X746003Y66318D01*
X750710Y65947D01*
X779000D01*
Y22700D01*
X762800Y6500D01*
X304100D01*
X222900Y87700D01*
X222900Y303500D01*
X269600Y350200D01*
X364900D01*
X408500Y393800D01*
X599249Y393800D01*
X601300Y393800D01*
X603500D01*
X603774Y393800D01*
X652100Y393800D01*
X683693Y393807D01*
X760981Y393823D01*
X761701Y392948D01*
D02*
G37*
G36*
X728300Y183700D02*
X732600Y179400D01*
Y175900D01*
Y168100D01*
X732900Y167800D01*
X727800Y162700D01*
X707700D01*
X705000Y160000D01*
X677100Y132100D01*
Y131900D01*
X629900D01*
X628300Y133500D01*
X621200Y140600D01*
Y182500D01*
X625600Y186900D01*
X725100D01*
X728300Y183700D01*
D02*
G37*
G36*
X723500Y982600D02*
X731000Y975100D01*
Y963800D01*
X731300Y963500D01*
X726200Y958400D01*
X706100D01*
X703400Y955700D01*
Y928501D01*
X702499Y927606D01*
X675500Y927800D01*
Y927600D01*
X628300D01*
X619600Y936300D01*
Y973500D01*
X628700Y982600D01*
X723500Y982600D01*
D02*
G37*
G36*
X634900Y795650D02*
X779290Y795649D01*
Y748433D01*
X750710D01*
X746003Y748062D01*
X741411Y746960D01*
X737048Y745153D01*
X733022Y742686D01*
X729432Y739619D01*
X726365Y736028D01*
X723897Y732002D01*
X722090Y727639D01*
X720988Y723048D01*
X720618Y718340D01*
X720988Y713633D01*
X722090Y709041D01*
X723897Y704678D01*
X726365Y700652D01*
X729432Y697061D01*
X733022Y693995D01*
X737048Y691527D01*
X741411Y689720D01*
X746003Y688618D01*
X750710Y688247D01*
X779290D01*
Y678100D01*
Y638200D01*
Y631297D01*
X665900D01*
X661979Y630911D01*
X658209Y629767D01*
X654735Y627910D01*
X651690Y625411D01*
X649875Y623200D01*
X644400D01*
Y599200D01*
X649875D01*
X651690Y596989D01*
X654735Y594490D01*
X658209Y592633D01*
X661979Y591489D01*
X662197Y591468D01*
X662135Y590198D01*
X624200D01*
X622249Y589810D01*
X620595Y588705D01*
X616195Y584305D01*
X615090Y582651D01*
X614702Y580700D01*
Y538800D01*
X615090Y536849D01*
X616195Y535195D01*
X623295Y528095D01*
X623295Y528095D01*
X624895Y526495D01*
X626549Y525390D01*
X628500Y525002D01*
X675700D01*
X677651Y525390D01*
X679305Y526495D01*
X679708Y527098D01*
X680727Y528117D01*
X681900Y527631D01*
Y519800D01*
X689561D01*
X689813Y518530D01*
X688096Y517819D01*
X685485Y515815D01*
X683481Y513204D01*
X682222Y510163D01*
X681792Y506900D01*
X682222Y503637D01*
X683481Y500596D01*
X685485Y497985D01*
X688096Y495981D01*
X690823Y494852D01*
X690823Y494850D01*
Y493550D01*
X690823Y493548D01*
X688096Y492419D01*
X685485Y490415D01*
X683481Y487804D01*
X682222Y484763D01*
X681792Y481500D01*
X682222Y478237D01*
X683481Y475196D01*
X685485Y472585D01*
X688096Y470581D01*
X691137Y469322D01*
X694400Y468892D01*
X697663Y469322D01*
X700704Y470581D01*
X703315Y472585D01*
X705319Y475196D01*
X706578Y478237D01*
X707008Y481500D01*
X706578Y484763D01*
X705319Y487804D01*
X703315Y490415D01*
X700704Y492419D01*
X697977Y493548D01*
X697977Y493550D01*
Y494850D01*
X697977Y494852D01*
X700704Y495981D01*
X703315Y497985D01*
X705319Y500596D01*
X706578Y503637D01*
X707008Y506900D01*
X706578Y510163D01*
X705319Y513204D01*
X703315Y515815D01*
X700704Y517819D01*
X698987Y518530D01*
X699239Y519800D01*
X706900D01*
Y544800D01*
X699069D01*
X698583Y545973D01*
X707205Y554595D01*
X707205Y554595D01*
X708412Y555802D01*
X714886D01*
X715448Y554663D01*
X714518Y553452D01*
X713309Y550533D01*
X712897Y547400D01*
X713309Y544267D01*
X714518Y541348D01*
X716442Y538842D01*
X718948Y536918D01*
X721868Y535709D01*
X725000Y535297D01*
X728133Y535709D01*
X731052Y536918D01*
X732940Y538367D01*
X734210Y537741D01*
Y531550D01*
X767210D01*
Y564550D01*
X737311D01*
X736505Y565532D01*
X736598Y566000D01*
X736298Y567508D01*
Y577600D01*
X735910Y579551D01*
X734805Y581205D01*
X731700Y584310D01*
Y585200D01*
X730810D01*
X727305Y588705D01*
X725651Y589810D01*
X725534Y589833D01*
X725659Y591103D01*
X779290D01*
Y542008D01*
X779732Y524552D01*
X778846Y523643D01*
X750710D01*
X746003Y523272D01*
X741411Y522170D01*
X737048Y520363D01*
X733022Y517896D01*
X729432Y514829D01*
X726365Y511238D01*
X723897Y507212D01*
X722090Y502849D01*
X720988Y498258D01*
X720618Y493550D01*
X720988Y488843D01*
X722090Y484251D01*
X723897Y479888D01*
X726365Y475862D01*
X729432Y472271D01*
X733022Y469205D01*
X737048Y466737D01*
X741411Y464930D01*
X746003Y463828D01*
X750710Y463457D01*
X779204D01*
X780102Y462559D01*
Y419302D01*
X764400Y403600D01*
X404900D01*
X400000Y408500D01*
X383000Y425500D01*
Y447000D01*
X375921Y454079D01*
X363300Y454079D01*
X359600D01*
Y464100D01*
X338802D01*
Y494700D01*
X338493Y497836D01*
X337579Y500853D01*
X336093Y503632D01*
X334094Y506068D01*
X331657Y508068D01*
X328878Y509554D01*
X325862Y510468D01*
X322725Y510777D01*
X310725D01*
X307589Y510468D01*
X304572Y509554D01*
X301793Y508068D01*
X299357Y506068D01*
X297357Y503632D01*
X295871Y500853D01*
X294956Y497836D01*
X294648Y494700D01*
Y458700D01*
X294956Y455563D01*
X295097Y455099D01*
X294341Y454079D01*
X284179D01*
X245823Y492436D01*
X219400Y518859D01*
X219400Y727800D01*
X257600Y766000D01*
X320700D01*
X350350Y795650D01*
X586600Y795650D01*
X600800Y795650D01*
X605650Y795650D01*
X634900Y795650D01*
D02*
G37*
G36*
X1781800Y731300D02*
X1784900D01*
X1797300Y718900D01*
Y399000D01*
Y388500D01*
X1796300Y387500D01*
X1790200Y381400D01*
X1742400D01*
X1740100Y383700D01*
X1732100Y391700D01*
Y400600D01*
Y426200D01*
X1720400Y437900D01*
X1664500Y493800D01*
X1664500Y658800D01*
X1681250Y675550D01*
X1737000Y731300D01*
X1781800Y731300D01*
D02*
G37*
G36*
X1797700Y1172700D02*
X1797700Y812400D01*
X1593161Y607861D01*
X1587043Y607380D01*
X1580921Y605910D01*
X1575104Y603501D01*
X1569736Y600211D01*
X1564948Y596122D01*
X1560859Y591334D01*
X1557569Y585966D01*
X1555160Y580149D01*
X1553690Y574027D01*
X1553196Y567750D01*
X1553690Y561473D01*
X1555160Y555351D01*
X1557569Y549534D01*
X1560859Y544166D01*
X1564948Y539378D01*
X1566500Y538053D01*
X1566500Y245800D01*
Y69600D01*
X1504100Y7200D01*
X786098D01*
X785200Y8098D01*
X785200Y1192300D01*
X778970Y1198530D01*
X779496Y1199800D01*
X1467200D01*
X1770600Y1199800D01*
X1797700Y1172700D01*
D02*
G37*
G36*
X726900Y581900D02*
X731200Y577600D01*
Y574100D01*
Y566300D01*
X731500Y566000D01*
X726400Y560900D01*
X706300D01*
X703600Y558200D01*
X675700Y530300D01*
Y530100D01*
X628500D01*
X626900Y531700D01*
X619800Y538800D01*
Y580700D01*
X624200Y585100D01*
X723700D01*
X726900Y581900D01*
D02*
G37*
G36*
X114677Y389147D02*
X114840Y388328D01*
X116736Y382742D01*
X119345Y377452D01*
X122622Y372547D01*
X126512Y368112D01*
X130947Y364222D01*
X135852Y360945D01*
X141142Y358336D01*
X146728Y356440D01*
X147547Y356277D01*
X181912Y321912D01*
X213000Y290824D01*
X213000Y90498D01*
X212102Y89600D01*
X133800D01*
X127150Y82950D01*
Y72448D01*
X126512Y71888D01*
X122622Y67453D01*
X119345Y62548D01*
X116736Y57258D01*
X114840Y51672D01*
X113689Y45886D01*
X113381Y41181D01*
X105500Y33300D01*
X77500D01*
Y394362D01*
X109462D01*
X114677Y389147D01*
D02*
G37*
G36*
X774108Y1199715D02*
X773872Y1198530D01*
X774260Y1196579D01*
X775366Y1194925D01*
X778801Y1191489D01*
X778799Y1159900D01*
X778799Y1146841D01*
X777901Y1145943D01*
X750710D01*
X746003Y1145572D01*
X741411Y1144470D01*
X737048Y1142663D01*
X733022Y1140196D01*
X729432Y1137129D01*
X726365Y1133538D01*
X723897Y1129512D01*
X722090Y1125149D01*
X720988Y1120558D01*
X720618Y1115850D01*
X720988Y1111143D01*
X722090Y1106551D01*
X723897Y1102188D01*
X726365Y1098162D01*
X729432Y1094571D01*
X733022Y1091505D01*
X737048Y1089037D01*
X741411Y1087230D01*
X746003Y1086128D01*
X750710Y1085757D01*
X778800D01*
X778800Y1084200D01*
X778800Y1070200D01*
X778800Y1029695D01*
X777902Y1028797D01*
X665600D01*
X661679Y1028411D01*
X657909Y1027267D01*
X654435Y1025410D01*
X651390Y1022911D01*
X649575Y1020700D01*
X644100D01*
Y996700D01*
X649575D01*
X651390Y994489D01*
X654435Y991990D01*
X657909Y990133D01*
X661679Y988989D01*
X661897Y988968D01*
X661834Y987698D01*
X628700Y987698D01*
X626749Y987310D01*
X625095Y986205D01*
X615995Y977105D01*
X614890Y975451D01*
X614502Y973500D01*
Y936300D01*
X614890Y934349D01*
X615995Y932695D01*
X624695Y923995D01*
X626349Y922890D01*
X628300Y922502D01*
X675500D01*
X676470Y922695D01*
X681900Y922656D01*
Y918000D01*
X689561D01*
X689813Y916730D01*
X688096Y916019D01*
X685485Y914015D01*
X683481Y911404D01*
X682222Y908363D01*
X681792Y905100D01*
X682222Y901837D01*
X683481Y898796D01*
X685485Y896185D01*
X688096Y894181D01*
X690823Y893052D01*
X690823Y893050D01*
Y891750D01*
X690823Y891748D01*
X688096Y890619D01*
X685485Y888615D01*
X683481Y886004D01*
X682222Y882963D01*
X681792Y879700D01*
X682222Y876437D01*
X683481Y873396D01*
X685485Y870785D01*
X688096Y868781D01*
X691137Y867522D01*
X694400Y867092D01*
X697663Y867522D01*
X700704Y868781D01*
X703315Y870785D01*
X705319Y873396D01*
X706578Y876437D01*
X707008Y879700D01*
X706578Y882963D01*
X705319Y886004D01*
X703315Y888615D01*
X700704Y890619D01*
X697977Y891748D01*
X697977Y891750D01*
Y893050D01*
X697977Y893052D01*
X700704Y894181D01*
X703315Y896185D01*
X705319Y898796D01*
X706578Y901837D01*
X707008Y905100D01*
X706578Y908363D01*
X705319Y911404D01*
X703315Y914015D01*
X700704Y916019D01*
X698987Y916730D01*
X699239Y918000D01*
X706900D01*
Y924792D01*
X706992Y924884D01*
X706997Y924891D01*
X707005Y924896D01*
X707551Y925714D01*
X708103Y926534D01*
X708105Y926543D01*
X708110Y926550D01*
X708303Y927520D01*
X708498Y928483D01*
X708496Y928492D01*
X708498Y928501D01*
Y953302D01*
X714725D01*
X715287Y952163D01*
X714818Y951552D01*
X713609Y948633D01*
X713197Y945500D01*
X713609Y942367D01*
X714818Y939448D01*
X716742Y936942D01*
X719248Y935018D01*
X722168Y933809D01*
X725300Y933397D01*
X728433Y933809D01*
X731352Y935018D01*
X732940Y936237D01*
X734210Y935611D01*
Y929060D01*
X767210D01*
Y962060D01*
X737113D01*
X736307Y963042D01*
X736398Y963500D01*
X736098Y965008D01*
Y975100D01*
X735710Y977051D01*
X734605Y978705D01*
X731400Y981910D01*
Y982700D01*
X730610D01*
X727105Y986205D01*
X725451Y987310D01*
X725334Y987333D01*
X725459Y988603D01*
X778597D01*
X778800Y988400D01*
X778800Y962700D01*
X778800Y942300D01*
X778800Y922051D01*
X777902Y921153D01*
X750710D01*
X746003Y920782D01*
X741411Y919680D01*
X737048Y917873D01*
X733022Y915406D01*
X729432Y912339D01*
X726365Y908748D01*
X723897Y904722D01*
X722090Y900359D01*
X720988Y895768D01*
X720618Y891060D01*
X720988Y886353D01*
X722090Y881761D01*
X723897Y877398D01*
X726365Y873372D01*
X729432Y869781D01*
X733022Y866715D01*
X737048Y864247D01*
X741411Y862440D01*
X746003Y861338D01*
X750710Y860967D01*
X778800D01*
Y851600D01*
Y817300D01*
X772400Y810700D01*
X426600D01*
X396800Y810700D01*
X345650Y861850D01*
X160850Y861850D01*
X140198Y841198D01*
X135852Y839055D01*
X130947Y835778D01*
X130631Y835500D01*
X88600Y835500D01*
X77400Y846700D01*
Y1187500D01*
X116380D01*
X116981Y1186230D01*
X115868Y1184874D01*
X114475Y1182268D01*
X113617Y1179441D01*
X113327Y1176500D01*
X113303D01*
X113689Y1170614D01*
X114840Y1164828D01*
X116736Y1159242D01*
X119345Y1153952D01*
X122622Y1149047D01*
X126512Y1144612D01*
X130947Y1140723D01*
X135852Y1137445D01*
X141142Y1134836D01*
X146728Y1132940D01*
X152514Y1131789D01*
X158400Y1131404D01*
X164286Y1131789D01*
X170072Y1132940D01*
X175658Y1134836D01*
X180948Y1137445D01*
X185853Y1140723D01*
X190288Y1144612D01*
X194177Y1149047D01*
X197455Y1153952D01*
X200064Y1159242D01*
X201960Y1164828D01*
X203111Y1170614D01*
X203496Y1176500D01*
X203472D01*
X203183Y1179441D01*
X202325Y1182268D01*
X200932Y1184874D01*
X199058Y1187158D01*
X196774Y1189032D01*
X194168Y1190425D01*
X191341Y1191283D01*
X190300Y1191385D01*
Y1200025D01*
X191198Y1200923D01*
X263000Y1200900D01*
X273000Y1200900D01*
X275400Y1200900D01*
X278600Y1200900D01*
X603600D01*
X773186Y1200984D01*
X774108Y1199715D01*
D02*
G37*
G36*
X128400Y766000D02*
X128920D01*
X130947Y764222D01*
X135852Y760945D01*
X141142Y758336D01*
X146728Y756440D01*
X152514Y755289D01*
X158400Y754903D01*
X164286Y755289D01*
X170072Y756440D01*
X175658Y758336D01*
X177001Y758999D01*
X208200Y727800D01*
Y599700D01*
X208200Y475650D01*
X204400Y471850D01*
X183350D01*
X156470Y444970D01*
X152514Y444711D01*
X146728Y443560D01*
X141142Y441664D01*
X135852Y439055D01*
X130947Y435778D01*
X126512Y431888D01*
X125996Y431300D01*
X91100D01*
X77400Y445000D01*
Y783200D01*
X83350Y789150D01*
X100900D01*
X105250Y789150D01*
X128400Y766000D01*
D02*
G37*
%LPC*%
G36*
X635460Y391910D02*
X632226Y391591D01*
X629115Y390648D01*
X626249Y389116D01*
X623736Y387054D01*
X621674Y384541D01*
X620142Y381675D01*
X619199Y378565D01*
X618880Y375330D01*
X619199Y372096D01*
X620142Y368985D01*
X621674Y366119D01*
X623736Y363606D01*
X626249Y361545D01*
X629115Y360012D01*
X632226Y359069D01*
X635460Y358750D01*
X638695Y359069D01*
X641805Y360012D01*
X644671Y361545D01*
X647184Y363606D01*
X649246Y366119D01*
X649750Y367063D01*
X651256Y367186D01*
X652442Y365642D01*
X654948Y363718D01*
X657868Y362509D01*
X661000Y362096D01*
X664133Y362509D01*
X667052Y363718D01*
X669559Y365642D01*
X671482Y368148D01*
X672691Y371067D01*
X673104Y374200D01*
X672691Y377333D01*
X671482Y380252D01*
X669559Y382758D01*
X667052Y384682D01*
X664133Y385891D01*
X661000Y386303D01*
X657868Y385891D01*
X654948Y384682D01*
X652442Y382758D01*
X651917Y382075D01*
X650462Y382265D01*
X649246Y384541D01*
X647184Y387054D01*
X644671Y389116D01*
X641805Y390648D01*
X638695Y391591D01*
X635460Y391910D01*
D02*
G37*
G36*
X1322250Y428118D02*
X1318987Y427688D01*
X1315946Y426429D01*
X1313335Y424425D01*
X1311331Y421814D01*
X1310072Y418773D01*
X1309642Y415510D01*
X1310072Y412247D01*
X1311331Y409206D01*
X1313335Y406595D01*
X1315946Y404591D01*
X1318987Y403332D01*
X1322250Y402902D01*
X1325513Y403332D01*
X1328554Y404591D01*
X1331165Y406595D01*
X1333169Y409206D01*
X1334428Y412247D01*
X1334858Y415510D01*
X1334428Y418773D01*
X1333169Y421814D01*
X1331165Y424425D01*
X1328554Y426429D01*
X1325513Y427688D01*
X1322250Y428118D01*
D02*
G37*
G36*
X651960Y455540D02*
X618960D01*
Y422540D01*
X651960D01*
Y429022D01*
X653230Y429543D01*
X655348Y427918D01*
X658268Y426709D01*
X661400Y426297D01*
X664533Y426709D01*
X667452Y427918D01*
X669959Y429841D01*
X671882Y432348D01*
X673091Y435267D01*
X673504Y438400D01*
X673091Y441533D01*
X671882Y444452D01*
X669959Y446959D01*
X667452Y448882D01*
X664533Y450091D01*
X661400Y450504D01*
X658268Y450091D01*
X655348Y448882D01*
X653230Y447257D01*
X651960Y447778D01*
Y455540D01*
D02*
G37*
G36*
X1040350Y428118D02*
X1037087Y427688D01*
X1034046Y426429D01*
X1031435Y424425D01*
X1029431Y421814D01*
X1028172Y418773D01*
X1027742Y415510D01*
X1028172Y412247D01*
X1029431Y409206D01*
X1031435Y406595D01*
X1034046Y404591D01*
X1037087Y403332D01*
X1040350Y402902D01*
X1043613Y403332D01*
X1046654Y404591D01*
X1049265Y406595D01*
X1051269Y409206D01*
X1052528Y412247D01*
X1052958Y415510D01*
X1052528Y418773D01*
X1051269Y421814D01*
X1049265Y424425D01*
X1046654Y426429D01*
X1043613Y427688D01*
X1040350Y428118D01*
D02*
G37*
G36*
X1180850Y427518D02*
X1177587Y427088D01*
X1174546Y425829D01*
X1171935Y423825D01*
X1169931Y421214D01*
X1168672Y418173D01*
X1168242Y414910D01*
X1168672Y411647D01*
X1169931Y408606D01*
X1171935Y405995D01*
X1174546Y403991D01*
X1177587Y402732D01*
X1180850Y402302D01*
X1184113Y402732D01*
X1187154Y403991D01*
X1189765Y405995D01*
X1191769Y408606D01*
X1193028Y411647D01*
X1193458Y414910D01*
X1193028Y418173D01*
X1191769Y421214D01*
X1189765Y423825D01*
X1187154Y425829D01*
X1184113Y427088D01*
X1180850Y427518D01*
D02*
G37*
G36*
X1462750D02*
X1459487Y427088D01*
X1456446Y425829D01*
X1453835Y423825D01*
X1451831Y421214D01*
X1450572Y418173D01*
X1450142Y414910D01*
X1450572Y411647D01*
X1451831Y408606D01*
X1453835Y405995D01*
X1456446Y403991D01*
X1459487Y402732D01*
X1462750Y402302D01*
X1466013Y402732D01*
X1469054Y403991D01*
X1471665Y405995D01*
X1473669Y408606D01*
X1474928Y411647D01*
X1475358Y414910D01*
X1474928Y418173D01*
X1473669Y421214D01*
X1471665Y423825D01*
X1469054Y425829D01*
X1466013Y427088D01*
X1462750Y427518D01*
D02*
G37*
G36*
X706900Y371400D02*
X681900D01*
Y346400D01*
X689561D01*
X689813Y345130D01*
X688096Y344419D01*
X685485Y342415D01*
X683481Y339804D01*
X682222Y336763D01*
X681792Y333500D01*
X682222Y330237D01*
X683481Y327196D01*
X685485Y324585D01*
X688096Y322581D01*
X690823Y321452D01*
X690823Y321450D01*
Y320150D01*
X690823Y320148D01*
X688096Y319019D01*
X685485Y317015D01*
X683481Y314404D01*
X682222Y311363D01*
X681792Y308100D01*
X682222Y304837D01*
X683481Y301796D01*
X685485Y299185D01*
X688096Y297181D01*
X691137Y295922D01*
X694400Y295492D01*
X697663Y295922D01*
X700704Y297181D01*
X703315Y299185D01*
X705319Y301796D01*
X706578Y304837D01*
X707008Y308100D01*
X706578Y311363D01*
X705319Y314404D01*
X703315Y317015D01*
X700704Y319019D01*
X697977Y320148D01*
X697977Y320150D01*
Y321450D01*
X697977Y321452D01*
X700704Y322581D01*
X703315Y324585D01*
X705319Y327196D01*
X706578Y330237D01*
X707008Y333500D01*
X706578Y336763D01*
X705319Y339804D01*
X703315Y342415D01*
X700704Y344419D01*
X698987Y345130D01*
X699239Y346400D01*
X706900D01*
Y371400D01*
D02*
G37*
G36*
X1462750Y157018D02*
X1459487Y156588D01*
X1456446Y155329D01*
X1453835Y153325D01*
X1451831Y150714D01*
X1450572Y147673D01*
X1450142Y144410D01*
X1450572Y141147D01*
X1451831Y138106D01*
X1453835Y135495D01*
X1456446Y133491D01*
X1459487Y132232D01*
X1462750Y131802D01*
X1466013Y132232D01*
X1469054Y133491D01*
X1471665Y135495D01*
X1473669Y138106D01*
X1474928Y141147D01*
X1475358Y144410D01*
X1474928Y147673D01*
X1473669Y150714D01*
X1471665Y153325D01*
X1469054Y155329D01*
X1466013Y156588D01*
X1462750Y157018D01*
D02*
G37*
G36*
X1040350Y157618D02*
X1037087Y157188D01*
X1034046Y155929D01*
X1031435Y153925D01*
X1029431Y151314D01*
X1028172Y148273D01*
X1027742Y145010D01*
X1028172Y141747D01*
X1029431Y138706D01*
X1031435Y136095D01*
X1034046Y134091D01*
X1037087Y132832D01*
X1040350Y132402D01*
X1043613Y132832D01*
X1046654Y134091D01*
X1049265Y136095D01*
X1051269Y138706D01*
X1052528Y141747D01*
X1052958Y145010D01*
X1052528Y148273D01*
X1051269Y151314D01*
X1049265Y153925D01*
X1046654Y155929D01*
X1043613Y157188D01*
X1040350Y157618D01*
D02*
G37*
G36*
X1180850Y157018D02*
X1177587Y156588D01*
X1174546Y155329D01*
X1171935Y153325D01*
X1169931Y150714D01*
X1168672Y147673D01*
X1168242Y144410D01*
X1168672Y141147D01*
X1169931Y138106D01*
X1171935Y135495D01*
X1174546Y133491D01*
X1177587Y132232D01*
X1180850Y131802D01*
X1184113Y132232D01*
X1187154Y133491D01*
X1189765Y135495D01*
X1191769Y138106D01*
X1193028Y141147D01*
X1193458Y144410D01*
X1193028Y147673D01*
X1191769Y150714D01*
X1189765Y153325D01*
X1187154Y155329D01*
X1184113Y156588D01*
X1180850Y157018D01*
D02*
G37*
G36*
X651960Y58030D02*
X618960D01*
Y25030D01*
X651960D01*
Y31510D01*
X653230Y32136D01*
X654948Y30818D01*
X657868Y29609D01*
X661000Y29197D01*
X664133Y29609D01*
X667052Y30818D01*
X669559Y32741D01*
X671482Y35248D01*
X672691Y38167D01*
X673104Y41300D01*
X672691Y44433D01*
X671482Y47352D01*
X669559Y49858D01*
X667052Y51782D01*
X664133Y52991D01*
X661000Y53404D01*
X657868Y52991D01*
X654948Y51782D01*
X653230Y50464D01*
X651960Y51090D01*
Y58030D01*
D02*
G37*
G36*
X322725Y113077D02*
X310725D01*
X307589Y112768D01*
X304572Y111854D01*
X301793Y110368D01*
X299357Y108368D01*
X297357Y105932D01*
X295871Y103153D01*
X294956Y100136D01*
X294648Y97000D01*
Y61000D01*
X294956Y57863D01*
X295871Y54847D01*
X297357Y52068D01*
X299357Y49632D01*
X301793Y47632D01*
X304572Y46146D01*
X307589Y45231D01*
X310725Y44922D01*
X322725D01*
X325862Y45231D01*
X328878Y46146D01*
X331657Y47632D01*
X334094Y49632D01*
X336093Y52068D01*
X337579Y54847D01*
X338493Y57863D01*
X338802Y61000D01*
Y97000D01*
X338493Y100136D01*
X337579Y103153D01*
X336093Y105932D01*
X334094Y108368D01*
X331657Y110368D01*
X328878Y111854D01*
X325862Y112768D01*
X322725Y113077D01*
D02*
G37*
G36*
X388300Y228399D02*
X384281Y228003D01*
X380417Y226831D01*
X376856Y224928D01*
X373734Y222366D01*
X371172Y219244D01*
X369269Y215683D01*
X368097Y211819D01*
X367701Y207800D01*
X368097Y203781D01*
X369269Y199917D01*
X371172Y196356D01*
X373734Y193234D01*
X376856Y190672D01*
X380417Y188769D01*
X384281Y187597D01*
X388300Y187201D01*
X392319Y187597D01*
X396183Y188769D01*
X399744Y190672D01*
X402866Y193234D01*
X405428Y196356D01*
X407331Y199917D01*
X408503Y203781D01*
X408899Y207800D01*
X408503Y211819D01*
X407331Y215683D01*
X405428Y219244D01*
X402866Y222366D01*
X399744Y224928D01*
X396183Y226831D01*
X392319Y228003D01*
X388300Y228399D01*
D02*
G37*
G36*
X651960Y282830D02*
X618960D01*
Y249830D01*
X651960D01*
Y255410D01*
X653230Y256036D01*
X654948Y254718D01*
X657868Y253509D01*
X661000Y253097D01*
X664133Y253509D01*
X667052Y254718D01*
X669559Y256642D01*
X671482Y259148D01*
X672691Y262067D01*
X673104Y265200D01*
X672691Y268333D01*
X671482Y271252D01*
X669559Y273759D01*
X667052Y275682D01*
X664133Y276891D01*
X661000Y277304D01*
X657868Y276891D01*
X654948Y275682D01*
X653230Y274363D01*
X651960Y274990D01*
Y282830D01*
D02*
G37*
G36*
X904220Y257907D02*
X897680Y257479D01*
X891251Y256200D01*
X885045Y254093D01*
X879166Y251194D01*
X873717Y247553D01*
X868789Y243231D01*
X864467Y238303D01*
X860826Y232854D01*
X857927Y226975D01*
X855820Y220769D01*
X854541Y214340D01*
X854113Y207800D01*
X854541Y201260D01*
X855820Y194831D01*
X857927Y188625D01*
X860826Y182746D01*
X864467Y177297D01*
X868789Y172369D01*
X873717Y168047D01*
X879166Y164406D01*
X885045Y161507D01*
X891251Y159400D01*
X897680Y158121D01*
X904220Y157693D01*
X910760Y158121D01*
X917189Y159400D01*
X923395Y161507D01*
X929274Y164406D01*
X934724Y168047D01*
X939651Y172369D01*
X943973Y177297D01*
X947614Y182746D01*
X950513Y188625D01*
X952620Y194831D01*
X953899Y201260D01*
X954327Y207800D01*
X953899Y214340D01*
X952620Y220769D01*
X950513Y226975D01*
X947614Y232854D01*
X943973Y238303D01*
X939651Y243231D01*
X934724Y247553D01*
X929274Y251194D01*
X923395Y254093D01*
X917189Y256200D01*
X910760Y257479D01*
X904220Y257907D01*
D02*
G37*
G36*
X1322250Y157618D02*
X1318987Y157188D01*
X1315946Y155929D01*
X1313335Y153925D01*
X1311331Y151314D01*
X1310072Y148273D01*
X1309642Y145010D01*
X1310072Y141747D01*
X1311331Y138706D01*
X1313335Y136095D01*
X1315946Y134091D01*
X1318987Y132832D01*
X1322250Y132402D01*
X1325513Y132832D01*
X1328554Y134091D01*
X1331165Y136095D01*
X1333169Y138706D01*
X1334428Y141747D01*
X1334858Y145010D01*
X1334428Y148273D01*
X1333169Y151314D01*
X1331165Y153925D01*
X1328554Y155929D01*
X1325513Y157188D01*
X1322250Y157618D01*
D02*
G37*
G36*
X501950Y257907D02*
X495410Y257479D01*
X488981Y256200D01*
X482775Y254093D01*
X476897Y251194D01*
X471447Y247553D01*
X466519Y243231D01*
X462197Y238303D01*
X458556Y232854D01*
X455657Y226975D01*
X453550Y220769D01*
X452271Y214340D01*
X451843Y207800D01*
X452271Y201260D01*
X453550Y194831D01*
X455657Y188625D01*
X458556Y182746D01*
X462197Y177297D01*
X466519Y172369D01*
X471447Y168047D01*
X476897Y164406D01*
X482775Y161507D01*
X488981Y159400D01*
X495410Y158121D01*
X501950Y157693D01*
X508490Y158121D01*
X514919Y159400D01*
X521125Y161507D01*
X527004Y164406D01*
X532453Y168047D01*
X537381Y172369D01*
X541703Y177297D01*
X545344Y182746D01*
X548243Y188625D01*
X550350Y194831D01*
X551629Y201260D01*
X552057Y207800D01*
X551629Y214340D01*
X550350Y220769D01*
X548243Y226975D01*
X545344Y232854D01*
X541703Y238303D01*
X537381Y243231D01*
X532453Y247553D01*
X527004Y251194D01*
X521125Y254093D01*
X514919Y256200D01*
X508490Y257479D01*
X501950Y257907D01*
D02*
G37*
G36*
X1322250Y966618D02*
X1318987Y966188D01*
X1315946Y964929D01*
X1313335Y962925D01*
X1311331Y960314D01*
X1310072Y957273D01*
X1309642Y954010D01*
X1310072Y950747D01*
X1311331Y947706D01*
X1313335Y945095D01*
X1315946Y943091D01*
X1318987Y941832D01*
X1322250Y941402D01*
X1325513Y941832D01*
X1328554Y943091D01*
X1331165Y945095D01*
X1333169Y947706D01*
X1334428Y950747D01*
X1334858Y954010D01*
X1334428Y957273D01*
X1333169Y960314D01*
X1331165Y962925D01*
X1328554Y964929D01*
X1325513Y966188D01*
X1322250Y966618D01*
D02*
G37*
G36*
X501950Y1054197D02*
X495410Y1053769D01*
X488981Y1052490D01*
X482775Y1050383D01*
X476897Y1047484D01*
X471447Y1043843D01*
X466519Y1039521D01*
X462197Y1034593D01*
X458556Y1029144D01*
X455657Y1023265D01*
X453550Y1017059D01*
X452271Y1010630D01*
X451843Y1004090D01*
X452271Y997550D01*
X453550Y991121D01*
X455657Y984915D01*
X458556Y979036D01*
X462197Y973587D01*
X466519Y968659D01*
X471447Y964337D01*
X476897Y960696D01*
X482775Y957797D01*
X488981Y955690D01*
X495410Y954411D01*
X501950Y953983D01*
X508490Y954411D01*
X514919Y955690D01*
X521125Y957797D01*
X527004Y960696D01*
X532453Y964337D01*
X537381Y968659D01*
X541703Y973587D01*
X545344Y979036D01*
X548243Y984915D01*
X550350Y991121D01*
X551629Y997550D01*
X552057Y1004090D01*
X551629Y1010630D01*
X550350Y1017059D01*
X548243Y1023265D01*
X545344Y1029144D01*
X541703Y1034593D01*
X537381Y1039521D01*
X532453Y1043843D01*
X527004Y1047484D01*
X521125Y1050383D01*
X514919Y1052490D01*
X508490Y1053769D01*
X501950Y1054197D01*
D02*
G37*
G36*
X1040350Y966618D02*
X1037087Y966188D01*
X1034046Y964929D01*
X1031435Y962925D01*
X1029431Y960314D01*
X1028172Y957273D01*
X1027742Y954010D01*
X1028172Y950747D01*
X1029431Y947706D01*
X1031435Y945095D01*
X1034046Y943091D01*
X1037087Y941832D01*
X1040350Y941402D01*
X1043613Y941832D01*
X1046654Y943091D01*
X1049265Y945095D01*
X1051269Y947706D01*
X1052528Y950747D01*
X1052958Y954010D01*
X1052528Y957273D01*
X1051269Y960314D01*
X1049265Y962925D01*
X1046654Y964929D01*
X1043613Y966188D01*
X1040350Y966618D01*
D02*
G37*
G36*
X1180850Y966018D02*
X1177587Y965588D01*
X1174546Y964329D01*
X1171935Y962325D01*
X1169931Y959714D01*
X1168672Y956673D01*
X1168242Y953410D01*
X1168672Y950147D01*
X1169931Y947106D01*
X1171935Y944495D01*
X1174546Y942491D01*
X1177587Y941232D01*
X1180850Y940802D01*
X1184113Y941232D01*
X1187154Y942491D01*
X1189765Y944495D01*
X1191769Y947106D01*
X1193028Y950147D01*
X1193458Y953410D01*
X1193028Y956673D01*
X1191769Y959714D01*
X1189765Y962325D01*
X1187154Y964329D01*
X1184113Y965588D01*
X1180850Y966018D01*
D02*
G37*
G36*
X1462750D02*
X1459487Y965588D01*
X1456446Y964329D01*
X1453835Y962325D01*
X1451831Y959714D01*
X1450572Y956673D01*
X1450142Y953410D01*
X1450572Y950147D01*
X1451831Y947106D01*
X1453835Y944495D01*
X1456446Y942491D01*
X1459487Y941232D01*
X1462750Y940802D01*
X1466013Y941232D01*
X1469054Y942491D01*
X1471665Y944495D01*
X1473669Y947106D01*
X1474928Y950147D01*
X1475358Y953410D01*
X1474928Y956673D01*
X1473669Y959714D01*
X1471665Y962325D01*
X1469054Y964329D01*
X1466013Y965588D01*
X1462750Y966018D01*
D02*
G37*
G36*
X904220Y1054197D02*
X897680Y1053769D01*
X891251Y1052490D01*
X885045Y1050383D01*
X879166Y1047484D01*
X873717Y1043843D01*
X868789Y1039521D01*
X864467Y1034593D01*
X860826Y1029144D01*
X857927Y1023265D01*
X855820Y1017059D01*
X854541Y1010630D01*
X854113Y1004090D01*
X854541Y997550D01*
X855820Y991121D01*
X857927Y984915D01*
X860826Y979036D01*
X864467Y973587D01*
X868789Y968659D01*
X873717Y964337D01*
X879166Y960696D01*
X885045Y957797D01*
X891251Y955690D01*
X897680Y954411D01*
X904220Y953983D01*
X910760Y954411D01*
X917189Y955690D01*
X923395Y957797D01*
X929274Y960696D01*
X934724Y964337D01*
X939651Y968659D01*
X943973Y973587D01*
X947614Y979036D01*
X950513Y984915D01*
X952620Y991121D01*
X953899Y997550D01*
X954327Y1004090D01*
X953899Y1010630D01*
X952620Y1017059D01*
X950513Y1023265D01*
X947614Y1029144D01*
X943973Y1034593D01*
X939651Y1039521D01*
X934724Y1043843D01*
X929274Y1047484D01*
X923395Y1050383D01*
X917189Y1052490D01*
X910760Y1053769D01*
X904220Y1054197D01*
D02*
G37*
G36*
X635460Y1186930D02*
X632226Y1186611D01*
X629115Y1185668D01*
X626249Y1184136D01*
X623736Y1182074D01*
X621674Y1179561D01*
X620142Y1176695D01*
X619199Y1173585D01*
X618880Y1170350D01*
X619199Y1167116D01*
X620142Y1164005D01*
X621674Y1161139D01*
X623736Y1158626D01*
X626249Y1156565D01*
X629115Y1155032D01*
X632226Y1154089D01*
X635460Y1153770D01*
X638695Y1154089D01*
X641805Y1155032D01*
X644671Y1156565D01*
X647184Y1158626D01*
X649246Y1161139D01*
X650472Y1163434D01*
X651855Y1163624D01*
X651954Y1163589D01*
X653142Y1162041D01*
X655648Y1160118D01*
X658568Y1158909D01*
X661700Y1158496D01*
X664833Y1158909D01*
X667752Y1160118D01*
X670259Y1162041D01*
X672182Y1164548D01*
X673391Y1167467D01*
X673804Y1170600D01*
X673391Y1173733D01*
X672182Y1176652D01*
X670259Y1179158D01*
X667752Y1181082D01*
X664833Y1182291D01*
X661700Y1182703D01*
X658568Y1182291D01*
X655648Y1181082D01*
X653142Y1179158D01*
X651821Y1177438D01*
X650315Y1177561D01*
X649246Y1179561D01*
X647184Y1182074D01*
X644671Y1184136D01*
X641805Y1185668D01*
X638695Y1186611D01*
X635460Y1186930D01*
D02*
G37*
G36*
X767210Y1186850D02*
X734210D01*
Y1180489D01*
X732940Y1179863D01*
X731352Y1181082D01*
X728433Y1182291D01*
X725300Y1182703D01*
X722168Y1182291D01*
X719248Y1181082D01*
X716742Y1179158D01*
X714818Y1176652D01*
X713609Y1173733D01*
X713197Y1170600D01*
X713609Y1167467D01*
X714818Y1164548D01*
X716742Y1162041D01*
X719248Y1160118D01*
X722168Y1158909D01*
X725300Y1158496D01*
X728433Y1158909D01*
X731352Y1160118D01*
X732940Y1161337D01*
X734210Y1160711D01*
Y1153850D01*
X767210D01*
Y1186850D01*
D02*
G37*
G36*
X706900Y1167900D02*
X681900D01*
Y1142900D01*
X689561D01*
X689813Y1141630D01*
X688096Y1140919D01*
X685485Y1138915D01*
X683481Y1136304D01*
X682222Y1133263D01*
X681792Y1130000D01*
X682222Y1126737D01*
X683481Y1123696D01*
X685485Y1121085D01*
X688096Y1119081D01*
X690823Y1117952D01*
X690823Y1117950D01*
Y1116650D01*
X690823Y1116648D01*
X688096Y1115519D01*
X685485Y1113515D01*
X683481Y1110904D01*
X682222Y1107863D01*
X681792Y1104600D01*
X682222Y1101337D01*
X683481Y1098296D01*
X685485Y1095685D01*
X688096Y1093681D01*
X691137Y1092422D01*
X694400Y1091992D01*
X697663Y1092422D01*
X700704Y1093681D01*
X703315Y1095685D01*
X705319Y1098296D01*
X706578Y1101337D01*
X707008Y1104600D01*
X706578Y1107863D01*
X705319Y1110904D01*
X703315Y1113515D01*
X700704Y1115519D01*
X697977Y1116648D01*
X697977Y1116650D01*
Y1117950D01*
X697977Y1117952D01*
X700704Y1119081D01*
X703315Y1121085D01*
X705319Y1123696D01*
X706578Y1126737D01*
X707008Y1130000D01*
X706578Y1133263D01*
X705319Y1136304D01*
X703315Y1138915D01*
X700704Y1140919D01*
X698987Y1141630D01*
X699239Y1142900D01*
X706900D01*
Y1167900D01*
D02*
G37*
G36*
X388300Y1024689D02*
X384281Y1024293D01*
X380417Y1023121D01*
X376856Y1021218D01*
X373734Y1018656D01*
X371172Y1015534D01*
X369269Y1011973D01*
X368097Y1008109D01*
X367701Y1004090D01*
X368097Y1000071D01*
X369269Y996207D01*
X371172Y992646D01*
X373734Y989524D01*
X376856Y986962D01*
X380417Y985059D01*
X384281Y983887D01*
X388300Y983491D01*
X392319Y983887D01*
X396183Y985059D01*
X399744Y986962D01*
X402866Y989524D01*
X405428Y992646D01*
X407331Y996207D01*
X408503Y1000071D01*
X408899Y1004090D01*
X408503Y1008109D01*
X407331Y1011973D01*
X405428Y1015534D01*
X402866Y1018656D01*
X399744Y1021218D01*
X396183Y1023121D01*
X392319Y1024293D01*
X388300Y1024689D01*
D02*
G37*
G36*
X651960Y1077850D02*
X618960D01*
Y1044850D01*
X651960D01*
Y1052640D01*
X652605Y1052859D01*
X653230Y1052974D01*
X655648Y1051118D01*
X658568Y1049909D01*
X661700Y1049497D01*
X664833Y1049909D01*
X667752Y1051118D01*
X670259Y1053042D01*
X672182Y1055548D01*
X673391Y1058467D01*
X673804Y1061600D01*
X673391Y1064733D01*
X672182Y1067652D01*
X670259Y1070158D01*
X667752Y1072082D01*
X664833Y1073291D01*
X661700Y1073704D01*
X658568Y1073291D01*
X655648Y1072082D01*
X653230Y1070226D01*
X652605Y1070341D01*
X651960Y1070560D01*
Y1077850D01*
D02*
G37*
G36*
Y853050D02*
X618960D01*
Y820050D01*
X651960D01*
Y827540D01*
X652605Y827759D01*
X653230Y827874D01*
X655648Y826018D01*
X658568Y824809D01*
X661700Y824397D01*
X664833Y824809D01*
X667752Y826018D01*
X670259Y827942D01*
X672182Y830448D01*
X673391Y833367D01*
X673804Y836500D01*
X673391Y839633D01*
X672182Y842552D01*
X670259Y845059D01*
X667752Y846982D01*
X664833Y848191D01*
X661700Y848604D01*
X658568Y848191D01*
X655648Y846982D01*
X653230Y845126D01*
X652605Y845241D01*
X651960Y845460D01*
Y853050D01*
D02*
G37*
G36*
X1560075Y728177D02*
X1548075D01*
X1544938Y727868D01*
X1541922Y726954D01*
X1539143Y725468D01*
X1536707Y723468D01*
X1534707Y721032D01*
X1533221Y718253D01*
X1532307Y715237D01*
X1531998Y712100D01*
Y676100D01*
X1532307Y672963D01*
X1533221Y669948D01*
X1534707Y667168D01*
X1536707Y664732D01*
X1539143Y662732D01*
X1541922Y661246D01*
X1544938Y660331D01*
X1548075Y660023D01*
X1560075D01*
X1563212Y660331D01*
X1566228Y661246D01*
X1569007Y662732D01*
X1571443Y664732D01*
X1573443Y667168D01*
X1574929Y669948D01*
X1575844Y672963D01*
X1576152Y676100D01*
Y712100D01*
X1575844Y715237D01*
X1574929Y718253D01*
X1573443Y721032D01*
X1571443Y723468D01*
X1569007Y725468D01*
X1566228Y726954D01*
X1563212Y727868D01*
X1560075Y728177D01*
D02*
G37*
G36*
X1180850Y697418D02*
X1177587Y696988D01*
X1174546Y695729D01*
X1171935Y693725D01*
X1169931Y691114D01*
X1168672Y688073D01*
X1168242Y684810D01*
X1168672Y681547D01*
X1169931Y678506D01*
X1171935Y675895D01*
X1174546Y673891D01*
X1177587Y672632D01*
X1180850Y672202D01*
X1184113Y672632D01*
X1187154Y673891D01*
X1189765Y675895D01*
X1191769Y678506D01*
X1193028Y681547D01*
X1193458Y684810D01*
X1193028Y688073D01*
X1191769Y691114D01*
X1189765Y693725D01*
X1187154Y695729D01*
X1184113Y696988D01*
X1180850Y697418D01*
D02*
G37*
G36*
X651960Y680340D02*
X618960D01*
Y647340D01*
X651960D01*
Y654022D01*
X653230Y654543D01*
X655348Y652918D01*
X658268Y651709D01*
X661400Y651296D01*
X664533Y651709D01*
X667452Y652918D01*
X669959Y654842D01*
X671882Y657348D01*
X673091Y660267D01*
X673504Y663400D01*
X673091Y666533D01*
X671882Y669452D01*
X669959Y671958D01*
X667452Y673882D01*
X664533Y675091D01*
X661400Y675503D01*
X658268Y675091D01*
X655348Y673882D01*
X653230Y672256D01*
X651960Y672778D01*
Y680340D01*
D02*
G37*
G36*
X501950Y655417D02*
X495410Y654989D01*
X488981Y653710D01*
X482775Y651603D01*
X476897Y648704D01*
X471447Y645063D01*
X466519Y640741D01*
X462197Y635813D01*
X458556Y630364D01*
X455657Y624485D01*
X453550Y618279D01*
X452271Y611850D01*
X451843Y605310D01*
X452271Y598770D01*
X453550Y592341D01*
X455657Y586135D01*
X458556Y580256D01*
X462197Y574807D01*
X466519Y569879D01*
X471447Y565557D01*
X476897Y561916D01*
X482775Y559017D01*
X488981Y556910D01*
X495410Y555631D01*
X501950Y555203D01*
X508490Y555631D01*
X514919Y556910D01*
X521125Y559017D01*
X527004Y561916D01*
X532453Y565557D01*
X537381Y569879D01*
X541703Y574807D01*
X545344Y580256D01*
X548243Y586135D01*
X550350Y592341D01*
X551629Y598770D01*
X552057Y605310D01*
X551629Y611850D01*
X550350Y618279D01*
X548243Y624485D01*
X545344Y630364D01*
X541703Y635813D01*
X537381Y640741D01*
X532453Y645063D01*
X527004Y648704D01*
X521125Y651603D01*
X514919Y653710D01*
X508490Y654989D01*
X501950Y655417D01*
D02*
G37*
G36*
X904220D02*
X897680Y654989D01*
X891251Y653710D01*
X885045Y651603D01*
X879166Y648704D01*
X873717Y645063D01*
X868789Y640741D01*
X864467Y635813D01*
X860826Y630364D01*
X857927Y624485D01*
X855820Y618279D01*
X854541Y611850D01*
X854113Y605310D01*
X854541Y598770D01*
X855820Y592341D01*
X857927Y586135D01*
X860826Y580256D01*
X864467Y574807D01*
X868789Y569879D01*
X873717Y565557D01*
X879166Y561916D01*
X885045Y559017D01*
X891251Y556910D01*
X897680Y555631D01*
X904220Y555203D01*
X910760Y555631D01*
X917189Y556910D01*
X923395Y559017D01*
X929274Y561916D01*
X934724Y565557D01*
X939651Y569879D01*
X943973Y574807D01*
X947614Y580256D01*
X950513Y586135D01*
X952620Y592341D01*
X953899Y598770D01*
X954327Y605310D01*
X953899Y611850D01*
X952620Y618279D01*
X950513Y624485D01*
X947614Y630364D01*
X943973Y635813D01*
X939651Y640741D01*
X934724Y645063D01*
X929274Y648704D01*
X923395Y651603D01*
X917189Y653710D01*
X910760Y654989D01*
X904220Y655417D01*
D02*
G37*
G36*
X1462750Y697418D02*
X1459487Y696988D01*
X1456446Y695729D01*
X1453835Y693725D01*
X1451831Y691114D01*
X1450572Y688073D01*
X1450142Y684810D01*
X1450572Y681547D01*
X1451831Y678506D01*
X1453835Y675895D01*
X1456446Y673891D01*
X1459487Y672632D01*
X1462750Y672202D01*
X1466013Y672632D01*
X1469054Y673891D01*
X1471665Y675895D01*
X1473669Y678506D01*
X1474928Y681547D01*
X1475358Y684810D01*
X1474928Y688073D01*
X1473669Y691114D01*
X1471665Y693725D01*
X1469054Y695729D01*
X1466013Y696988D01*
X1462750Y697418D01*
D02*
G37*
G36*
X635460Y789420D02*
X632226Y789101D01*
X629115Y788158D01*
X626249Y786626D01*
X623736Y784564D01*
X621674Y782051D01*
X620142Y779185D01*
X619199Y776075D01*
X618880Y772840D01*
X619199Y769606D01*
X620142Y766495D01*
X621674Y763629D01*
X623736Y761116D01*
X626249Y759055D01*
X629115Y757522D01*
X632226Y756579D01*
X635460Y756260D01*
X638695Y756579D01*
X641805Y757522D01*
X644671Y759055D01*
X647184Y761116D01*
X649246Y763629D01*
X650132Y765287D01*
X651638Y765410D01*
X652842Y763841D01*
X655348Y761918D01*
X658268Y760709D01*
X661400Y760296D01*
X664533Y760709D01*
X667452Y761918D01*
X669959Y763841D01*
X671882Y766348D01*
X673091Y769267D01*
X673504Y772400D01*
X673091Y775533D01*
X671882Y778452D01*
X669959Y780958D01*
X667452Y782882D01*
X664533Y784091D01*
X661400Y784503D01*
X658268Y784091D01*
X655348Y782882D01*
X652842Y780958D01*
X651903Y779735D01*
X650409Y779875D01*
X649246Y782051D01*
X647184Y784564D01*
X644671Y786626D01*
X641805Y788158D01*
X638695Y789101D01*
X635460Y789420D01*
D02*
G37*
G36*
X767210Y789340D02*
X734210D01*
Y782059D01*
X732940Y781433D01*
X731052Y782882D01*
X728133Y784091D01*
X725000Y784503D01*
X721868Y784091D01*
X718948Y782882D01*
X716442Y780958D01*
X714518Y778452D01*
X713309Y775533D01*
X712897Y772400D01*
X713309Y769267D01*
X714518Y766348D01*
X716442Y763841D01*
X718948Y761918D01*
X721868Y760709D01*
X725000Y760296D01*
X728133Y760709D01*
X731052Y761918D01*
X732940Y763367D01*
X734210Y762741D01*
Y756340D01*
X767210D01*
Y789340D01*
D02*
G37*
G36*
X706900Y769500D02*
X681900D01*
Y744500D01*
X689561D01*
X689813Y743230D01*
X688096Y742519D01*
X685485Y740515D01*
X683481Y737904D01*
X682222Y734863D01*
X681792Y731600D01*
X682222Y728337D01*
X683481Y725296D01*
X685485Y722685D01*
X688096Y720681D01*
X690823Y719552D01*
X690823Y719550D01*
Y718250D01*
X690823Y718248D01*
X688096Y717119D01*
X685485Y715115D01*
X683481Y712504D01*
X682222Y709463D01*
X681792Y706200D01*
X682222Y702937D01*
X683481Y699896D01*
X685485Y697285D01*
X688096Y695281D01*
X691137Y694022D01*
X694400Y693592D01*
X697663Y694022D01*
X700704Y695281D01*
X703315Y697285D01*
X705319Y699896D01*
X706578Y702937D01*
X707008Y706200D01*
X706578Y709463D01*
X705319Y712504D01*
X703315Y715115D01*
X700704Y717119D01*
X697977Y718248D01*
X697977Y718250D01*
Y719550D01*
X697977Y719552D01*
X700704Y720681D01*
X703315Y722685D01*
X705319Y725296D01*
X706578Y728337D01*
X707008Y731600D01*
X706578Y734863D01*
X705319Y737904D01*
X703315Y740515D01*
X700704Y742519D01*
X698987Y743230D01*
X699239Y744500D01*
X706900D01*
Y769500D01*
D02*
G37*
G36*
X1040350Y698018D02*
X1037087Y697588D01*
X1034046Y696329D01*
X1031435Y694325D01*
X1029431Y691714D01*
X1028172Y688673D01*
X1027742Y685410D01*
X1028172Y682147D01*
X1029431Y679106D01*
X1031435Y676495D01*
X1034046Y674491D01*
X1037087Y673232D01*
X1040350Y672802D01*
X1043613Y673232D01*
X1046654Y674491D01*
X1049265Y676495D01*
X1051269Y679106D01*
X1052528Y682147D01*
X1052958Y685410D01*
X1052528Y688673D01*
X1051269Y691714D01*
X1049265Y694325D01*
X1046654Y696329D01*
X1043613Y697588D01*
X1040350Y698018D01*
D02*
G37*
G36*
X1322250D02*
X1318987Y697588D01*
X1315946Y696329D01*
X1313335Y694325D01*
X1311331Y691714D01*
X1310072Y688673D01*
X1309642Y685410D01*
X1310072Y682147D01*
X1311331Y679106D01*
X1313335Y676495D01*
X1315946Y674491D01*
X1318987Y673232D01*
X1322250Y672802D01*
X1325513Y673232D01*
X1328554Y674491D01*
X1331165Y676495D01*
X1333169Y679106D01*
X1334428Y682147D01*
X1334858Y685410D01*
X1334428Y688673D01*
X1333169Y691714D01*
X1331165Y694325D01*
X1328554Y696329D01*
X1325513Y697588D01*
X1322250Y698018D01*
D02*
G37*
%LPD*%
D10*
X1594900Y182500D02*
D03*
Y212500D02*
D03*
D11*
X1638500Y324100D02*
D03*
X1658500D02*
D03*
X229500Y426200D02*
D03*
X209500D02*
D03*
X237300Y386400D02*
D03*
X217300D02*
D03*
D12*
X709900Y209200D02*
D03*
Y171200D02*
D03*
X665600Y209200D02*
D03*
Y171200D02*
D03*
X665900Y611200D02*
D03*
Y573200D02*
D03*
X710200Y611200D02*
D03*
Y573200D02*
D03*
X665600Y1008700D02*
D03*
Y970700D02*
D03*
X709900Y1008700D02*
D03*
Y970700D02*
D03*
D13*
X229700Y400800D02*
X347100D01*
X194380Y436120D02*
X229700Y400800D01*
X194380Y436120D02*
Y457550D01*
X240900Y426200D02*
X347100D01*
X214385Y452715D02*
X240900Y426200D01*
X214385Y452715D02*
Y457550D01*
X234550D02*
X259450D01*
X276400Y440600D01*
X336100D01*
X347100Y451600D01*
X237720Y355650D02*
Y400600D01*
X217715Y355650D02*
Y385985D01*
X197550Y344150D02*
Y355650D01*
Y344150D02*
X200900Y340800D01*
X244600D01*
X279200Y375400D01*
X347100D01*
X0Y1207700D02*
X1879800D01*
Y0D02*
Y1207700D01*
X0Y0D02*
X1879800D01*
X0D02*
Y1207700D01*
D14*
X1675100Y100900D02*
X1750200D01*
X1649800Y126200D02*
X1675100Y100900D01*
X1556900Y126200D02*
X1649800D01*
X1612600Y231300D02*
X1750200D01*
D15*
X1630500Y231400D02*
X1630600Y231300D01*
X1600000D02*
X1630600D01*
X1594900Y226200D02*
X1600000Y231300D01*
X1594900Y212500D02*
Y226200D01*
X1691600Y126700D02*
Y152800D01*
X1582600D02*
X1594900Y165100D01*
Y182500D01*
X1689300Y290400D02*
Y306100D01*
X1678650Y316750D02*
X1689300Y306100D01*
X1678650Y316750D02*
Y353750D01*
X1663900Y290400D02*
Y305600D01*
X1658485Y311015D02*
X1663900Y305600D01*
X1658485Y311015D02*
Y353750D01*
X1638480Y290420D02*
Y353750D01*
D16*
X750710Y1115850D02*
X814950D01*
X750710Y891060D02*
X806860D01*
X750710Y718340D02*
X804640D01*
X750710Y493550D02*
X810450D01*
X750710Y320830D02*
X812770D01*
X750710Y96040D02*
X810060D01*
D17*
X665600Y209200D02*
X828500D01*
X665900Y611200D02*
X836300D01*
X665600Y1008700D02*
X829800D01*
D18*
X1592900Y197500D02*
X1596900D01*
X1594900Y195500D02*
Y199500D01*
D19*
X388300Y1004090D02*
D03*
X388300Y207800D02*
D03*
X1839100Y400000D02*
D03*
Y1180000D02*
D03*
X158400Y40000D02*
D03*
Y400000D02*
D03*
Y800000D02*
D03*
X1839100D02*
D03*
Y40000D02*
D03*
X158400Y1180000D02*
D03*
X235100Y811900D02*
D03*
D20*
X1750200Y100900D02*
D03*
Y231300D02*
D03*
X1714900Y101400D02*
D03*
X1714800Y232000D02*
D03*
X1582800Y126300D02*
D03*
X1691800D02*
D03*
X1582600Y152800D02*
D03*
X1691600D02*
D03*
X661000Y150300D02*
D03*
Y41300D02*
D03*
X724600Y150300D02*
D03*
Y41300D02*
D03*
Y374200D02*
D03*
Y265200D02*
D03*
X661000Y374200D02*
D03*
Y265200D02*
D03*
X725000Y547400D02*
D03*
Y438400D02*
D03*
X661400Y547400D02*
D03*
Y438400D02*
D03*
X725000Y772400D02*
D03*
Y663400D02*
D03*
X661400Y772400D02*
D03*
Y663400D02*
D03*
X725300Y945500D02*
D03*
Y836500D02*
D03*
X661700Y945500D02*
D03*
Y836500D02*
D03*
X725300Y1170600D02*
D03*
Y1061600D02*
D03*
X661700Y1170600D02*
D03*
Y1061600D02*
D03*
D21*
X1638500Y290400D02*
D03*
D22*
X1663900D02*
D03*
X1689300D02*
D03*
X347100Y836800D02*
D03*
X1678650Y353750D02*
D03*
X1658485D02*
D03*
X1638480D02*
D03*
X694400Y1130000D02*
D03*
Y1104600D02*
D03*
Y1079200D02*
D03*
Y905100D02*
D03*
Y879700D02*
D03*
Y854300D02*
D03*
Y731600D02*
D03*
Y706200D02*
D03*
Y680800D02*
D03*
Y506900D02*
D03*
Y481500D02*
D03*
Y456100D02*
D03*
Y333500D02*
D03*
Y308100D02*
D03*
Y282700D02*
D03*
Y109700D02*
D03*
Y84300D02*
D03*
Y58900D02*
D03*
X1322250Y370010D02*
D03*
Y145010D02*
D03*
X1462750Y369410D02*
D03*
Y144410D02*
D03*
X1180850Y369410D02*
D03*
Y144410D02*
D03*
X1040350Y370010D02*
D03*
Y145010D02*
D03*
X1322250Y640510D02*
D03*
Y415510D02*
D03*
X1462750Y639910D02*
D03*
Y414910D02*
D03*
X1180850Y639910D02*
D03*
Y414910D02*
D03*
X1040350Y640510D02*
D03*
Y415510D02*
D03*
X1322250Y910410D02*
D03*
Y685410D02*
D03*
X1462750Y909810D02*
D03*
Y684810D02*
D03*
X1180850Y909810D02*
D03*
Y684810D02*
D03*
X1040350Y910410D02*
D03*
Y685410D02*
D03*
X1322250Y1179010D02*
D03*
Y954010D02*
D03*
X1462750Y1178410D02*
D03*
Y953410D02*
D03*
X1180850Y1178410D02*
D03*
Y953410D02*
D03*
X1040350Y1179010D02*
D03*
Y954010D02*
D03*
X234250Y454550D02*
D03*
X214085D02*
D03*
X194080D02*
D03*
X197550Y355650D02*
D03*
X217715D02*
D03*
X237720D02*
D03*
X347100Y426200D02*
D03*
Y400800D02*
D03*
Y375400D02*
D03*
X807500Y617900D02*
D03*
D23*
X316725Y872000D02*
D03*
X94475Y872000D02*
D03*
Y927000D02*
D03*
Y1147000D02*
D03*
Y1092000D02*
D03*
Y1037000D02*
D03*
Y982000D02*
D03*
X316725Y476700D02*
D03*
X94475Y476700D02*
D03*
Y531700D02*
D03*
Y751700D02*
D03*
Y696700D02*
D03*
Y641700D02*
D03*
Y586700D02*
D03*
X316725Y79000D02*
D03*
X94475Y79000D02*
D03*
Y134000D02*
D03*
Y354000D02*
D03*
Y299000D02*
D03*
Y244000D02*
D03*
Y189000D02*
D03*
X1554075Y694100D02*
D03*
X1776325Y694100D02*
D03*
Y639100D02*
D03*
Y419100D02*
D03*
Y474100D02*
D03*
Y529100D02*
D03*
Y584100D02*
D03*
X1553075Y1089600D02*
D03*
X1775325Y1089600D02*
D03*
Y1034600D02*
D03*
Y814600D02*
D03*
Y869600D02*
D03*
Y924600D02*
D03*
Y979600D02*
D03*
D24*
X347100Y811400D02*
D03*
X694400Y1155400D02*
D03*
Y930500D02*
D03*
Y757000D02*
D03*
Y532300D02*
D03*
Y358900D02*
D03*
Y135100D02*
D03*
X347100Y451600D02*
D03*
X807500Y592500D02*
D03*
D25*
X1708650Y567750D02*
D03*
X1608320D02*
D03*
X264250Y668550D02*
D03*
X163920D02*
D03*
X167550Y141650D02*
D03*
X267880D02*
D03*
D26*
X904220Y1002820D02*
D03*
Y604040D02*
D03*
Y206530D02*
D03*
X501950Y1004090D02*
D03*
Y605310D02*
D03*
Y207800D02*
D03*
D27*
X635460Y1170350D02*
D03*
Y1115850D02*
D03*
X750710Y1061350D02*
D03*
Y1115850D02*
D03*
Y836560D02*
D03*
Y891060D02*
D03*
X635460Y375330D02*
D03*
Y320830D02*
D03*
Y150530D02*
D03*
Y96030D02*
D03*
X750710Y663840D02*
D03*
Y718340D02*
D03*
Y439050D02*
D03*
Y493550D02*
D03*
Y266330D02*
D03*
Y320830D02*
D03*
Y41540D02*
D03*
Y96040D02*
D03*
X635460Y945550D02*
D03*
Y891050D02*
D03*
Y772840D02*
D03*
Y718340D02*
D03*
Y548040D02*
D03*
Y493540D02*
D03*
D28*
Y1061350D02*
D03*
X750710Y1170350D02*
D03*
Y945560D02*
D03*
X635460Y266330D02*
D03*
Y41530D02*
D03*
X750710Y772840D02*
D03*
Y548050D02*
D03*
Y375330D02*
D03*
Y150540D02*
D03*
X635460Y836550D02*
D03*
Y663840D02*
D03*
Y439040D02*
D03*
D29*
X1612600Y231300D02*
D03*
X1630500Y231600D02*
D03*
D30*
X1645360Y567220D02*
D03*
X1641550Y578650D02*
D03*
X1571700Y567220D02*
D03*
X1575510Y578650D02*
D03*
X1585670Y586270D02*
D03*
X1631390D02*
D03*
X1619960Y587540D02*
D03*
X1608530D02*
D03*
X1597100D02*
D03*
X1608530Y546900D02*
D03*
X1597100D02*
D03*
X1619960D02*
D03*
X1631390Y548170D02*
D03*
X1641550Y555790D02*
D03*
X1575510D02*
D03*
X1585670Y548170D02*
D03*
X1685500Y548470D02*
D03*
X1675340Y556090D02*
D03*
X1741380D02*
D03*
X1731220Y548470D02*
D03*
X1719790Y547200D02*
D03*
X1696930D02*
D03*
X1708360D02*
D03*
X1696930Y587840D02*
D03*
X1708360D02*
D03*
X1719790D02*
D03*
X1731220Y586570D02*
D03*
X1685500D02*
D03*
X1675340Y578950D02*
D03*
X1741380D02*
D03*
X1745190Y567520D02*
D03*
X1671530D02*
D03*
X204670Y141880D02*
D03*
X131010D02*
D03*
X134820Y130450D02*
D03*
X200860D02*
D03*
X190700Y122830D02*
D03*
X144980D02*
D03*
X156410Y121560D02*
D03*
X167840D02*
D03*
X179270D02*
D03*
X167840Y162200D02*
D03*
X179270D02*
D03*
X156410D02*
D03*
X144980Y160930D02*
D03*
X134820Y153310D02*
D03*
X200860D02*
D03*
X190700Y160930D02*
D03*
X290530Y161230D02*
D03*
X300690Y153610D02*
D03*
X234650D02*
D03*
X244810Y161230D02*
D03*
X256240Y162500D02*
D03*
X279100D02*
D03*
X267670D02*
D03*
X279100Y121860D02*
D03*
X267670D02*
D03*
X256240D02*
D03*
X244810Y123130D02*
D03*
X290530D02*
D03*
X300690Y130750D02*
D03*
X304500Y142180D02*
D03*
X234650Y130750D02*
D03*
X230840Y142180D02*
D03*
X201070Y671580D02*
D03*
X127410D02*
D03*
X131220Y660150D02*
D03*
X197260D02*
D03*
X187100Y652530D02*
D03*
X141380D02*
D03*
X152810Y651260D02*
D03*
X164240D02*
D03*
X175670D02*
D03*
X164240Y691900D02*
D03*
X175670D02*
D03*
X152810D02*
D03*
X141380Y690630D02*
D03*
X131220Y683010D02*
D03*
X197260D02*
D03*
X187100Y690630D02*
D03*
X287530Y690730D02*
D03*
X297690Y683110D02*
D03*
X231650D02*
D03*
X241810Y690730D02*
D03*
X253240Y692000D02*
D03*
X276100D02*
D03*
X264670D02*
D03*
X276100Y651360D02*
D03*
X264670D02*
D03*
X253240D02*
D03*
X241810Y652630D02*
D03*
X287530D02*
D03*
X297690Y660250D02*
D03*
X231650D02*
D03*
X227840Y671680D02*
D03*
X301500D02*
D03*
X711600Y218100D02*
D03*
X701600D02*
D03*
X691600D02*
D03*
X681600D02*
D03*
X671600D02*
D03*
X673100Y618200D02*
D03*
X683100D02*
D03*
X693100D02*
D03*
X703100D02*
D03*
X713100D02*
D03*
X711900Y1018600D02*
D03*
X701900D02*
D03*
X691900D02*
D03*
X681900D02*
D03*
X671900D02*
D03*
M02*
