M48
;Layer_Color=9474304
;FILE_FORMAT=4:4
METRIC,TZ
;TYPE=PLATED
T1F00S00C0.5000
T2F00S00C0.8000
T3F00S00C0.8500
T4F00S00C0.9000
T5F00S00C1.0000
T6F00S00C1.5000
T8F00S00C3.1000
T9F00S00C8.0000
;TYPE=NON_PLATED
T10F00S00C5.0000
%
T01
X671600Y218100
X681600
X691600
X701600
X711600
X300690Y153610
X304500Y142180
X300690Y130750
X290530Y123130
X279100Y121860
X267670
X256240
X244810Y123130
X234650Y130750
X230840Y142180
X234650Y153610
X244810Y161230
X256240Y162500
X267670
X279100
X290530Y161230
X200860Y153310
X204670Y141880
X200860Y130450
X190700Y122830
X179270Y121560
Y162200
X190700Y160930
X167840Y162200
X156410
X144980Y160930
X134820Y153310
X131010Y141880
X134820Y130450
X144980Y122830
X156410Y121560
X167840
X164240Y651260
X152810
X141380Y652530
X131220Y660150
X127410Y671580
X131220Y683010
X175670Y651260
X187100Y652530
X197260Y660150
X201070Y671580
X197260Y683010
X231650Y683110
X227840Y671680
X231650Y660250
X241810Y652630
X253240Y651360
X264670
X276100
X287530Y652630
X297690Y660250
X301500Y671680
X297690Y683110
X673100Y618200
X683100
X693100
X703100
X713100
X1575510Y578650
X1571700Y567220
X1575510Y555790
X1585670Y548170
X1597100Y546900
X1608530
X1619960
X1631390Y548170
X1641550Y555790
X1645360Y567220
X1641550Y578650
X1631390Y586270
X1619960Y587540
X1608530
X1597100
X1585670Y586270
X1675340Y578950
X1671530Y567520
X1675340Y556090
X1685500Y548470
X1696930Y547200
X1708360
X1719790
X1731220Y548470
X1741380Y556090
X1745190Y567520
X1741380Y578950
X1731220Y586570
X1719790Y587840
X1708360
X1696930
X1685500Y586570
X711900Y1018600
X701900
X691900
X681900
X671900
X287530Y690730
X276100Y692000
X264670
X253240
X241810Y690730
X187100Y690630
X175670Y691900
X164240
X152810
X141380Y690630
T02
X1462750Y144410
X1322250Y145010
X1180850Y144410
X1040350Y145010
X237720Y355650
X217715
X197550
X194080Y454550
X214085
X234250
X1040350Y415510
Y370010
X1180850Y369410
Y414910
X1322250Y415510
Y370010
Y640510
Y685410
X1180850Y684810
Y639910
X1040350Y640510
Y685410
X1462750Y684810
Y639910
Y414910
Y369410
X1638480Y353750
X1658485
X1678650
X1462750Y909810
Y953410
X1322250Y954010
Y910410
X1180850Y909810
Y953410
X1040350Y954010
Y910410
Y1179010
X1180850Y1178410
X1322250Y1179010
X1462750Y1178410
T03
X1582800Y126300
X1582600Y152800
X1691600
X1691800Y126300
X1714900Y101400
X1750200Y100900
Y231300
X1714800Y232000
X724600Y265200
X661000
Y150300
X724600
Y41300
X661000
Y374200
X724600
X725000Y438400
X661400
Y547400
X725000
Y663400
X661400
Y772400
X725000
X725300Y836500
X661700
Y945500
X725300
Y1061600
X661700
Y1170600
X725300
T04
X1638500Y290400
X1663900
X1689300
X694400Y282700
Y135100
Y109700
Y84300
Y58900
X347100Y375400
Y400800
Y426200
Y451600
X694400Y456100
Y481500
Y506900
Y532300
Y680800
X807500Y617900
Y592500
X694400Y358900
Y333500
Y308100
Y706200
Y731600
Y757000
Y854300
Y879700
Y905100
Y930500
Y1079200
X347100Y836800
Y811400
X694400Y1104600
Y1130000
Y1155400
T05
X1612600Y231300
X1630500Y231600
T06
X635460Y41530
Y96030
Y150530
X750710Y150540
Y96040
Y41540
Y266330
X635460
Y320830
Y375330
Y439040
Y493540
Y548040
X750710Y548050
Y493550
Y439050
Y375330
Y320830
Y663840
X635460
Y718340
Y772840
Y836550
Y891050
Y945550
X750710Y945560
Y891060
Y836560
Y772840
Y718340
Y1061350
X635460
Y1115850
Y1170350
X750710
Y1115850
T08
X1839100Y40000
X388300Y207800
X158400Y40000
Y400000
X1839100
Y800000
X388300Y1004090
X158400Y800000
Y1180000
X1839100
T09
X235100Y811900
T10
X904220Y206530
X501950Y207800
Y605310
X904220Y604040
Y1002820
X501950Y1004090
M30
